<?xml version="1.0" encoding="UTF-8"?>
<svg version="1.1" xmlns="http://www.w3.org/2000/svg" width="1024" height="860">
<path d="M0 0 C0.93628235 -0.00570007 1.8725647 -0.01140015 2.83721924 -0.01727295 C4.8138315 -0.02666956 6.79045905 -0.03323553 8.76708984 -0.03710938 C11.71611863 -0.04671377 14.66441843 -0.07774651 17.61328125 -0.109375 C34.59592709 -0.20497147 51.26585608 1.44227061 67.703125 5.890625 C69.12492065 6.26973022 69.12492065 6.26973022 70.57543945 6.65649414 C92.75141932 12.84864563 111.12404653 25.46407317 129.953125 38.265625 C133.62801375 40.75782822 137.30426518 43.24801806 140.98046875 45.73828125 C141.89641815 46.35929718 142.81236755 46.98031311 143.756073 47.62014771 C150.86748531 52.43776813 158.00899653 57.20887048 165.1605072 61.96669006 C175.87943794 69.10168249 186.54402672 76.31706593 197.21337891 83.52587891 C206.95900782 90.10942797 216.71324352 96.6788714 226.50390625 103.1953125 C237.26836808 110.35989364 247.9883944 117.5894557 258.703125 124.828125 C273.83559503 135.05105247 273.83559503 135.05105247 289.015625 145.203125 C300.06287333 152.55361739 311.053445 159.98790773 322.04858398 167.41601562 C331.85307593 174.03874231 341.66609759 180.64751263 351.515625 187.203125 C362.27618274 194.3650976 372.99228508 201.59208417 383.703125 208.828125 C387.33160997 211.27927035 390.96044388 213.72989702 394.58984375 216.1796875 C395.46603363 216.77112045 396.34222351 217.36255341 397.2449646 217.97190857 C403.82686927 222.41070451 410.4263037 226.82268358 417.04118347 231.21218872 C427.60217336 238.2298326 437.92893718 245.29118117 447.015625 254.203125 C447.71171875 254.87472656 448.4078125 255.54632813 449.125 256.23828125 C465.49135656 273.20727497 468.46876492 295.46331631 468.23046875 318.05859375 C467.82571433 334.35687278 463.70514877 348.21119602 454.56640625 361.828125 C453.20923461 363.90661457 452.06983595 365.95968101 451.015625 368.203125 C451.45132813 368.77417969 451.88703125 369.34523438 452.3359375 369.93359375 C467.72831284 390.88987966 470.90012717 416.01713639 467.1953125 441.34545898 C465.20874472 452.74841086 460.9990326 462.24336911 454.56640625 471.828125 C453.20923461 473.90661457 452.06983595 475.95968101 451.015625 478.203125 C451.45132813 478.77417969 451.88703125 479.34523438 452.3359375 479.93359375 C467.72831284 500.88987966 470.90012717 526.01713639 467.1953125 551.34545898 C463.47878622 572.67841868 451.07422 590.34008595 433.56176758 602.75244141 C429.73114649 605.41782269 425.84568884 607.99849252 421.95703125 610.578125 C415.11670906 615.12734021 408.29350475 619.70110481 401.484375 624.296875 C400.13938683 625.20463684 400.13938683 625.20463684 398.76722717 626.1307373 C396.01644216 627.98782856 393.26597311 629.84538677 390.515625 631.703125 C379.63316139 639.05374676 368.74522787 646.39474799 357.81184387 653.66946411 C347.50179504 660.5348706 337.24657121 667.48191544 326.98266602 674.41601562 C316.31128237 681.6243093 305.62367314 688.80660002 294.90328979 695.9418335 C285.01560578 702.52716685 275.17210493 709.17771839 265.328125 715.828125 C254.51141263 723.13512349 243.68900555 730.43212974 232.82131958 737.66314697 C222.50811525 744.53066505 212.24971738 751.47978995 201.98266602 758.41601562 C192.17966161 765.03773751 182.36799916 771.64525448 172.51953125 778.19921875 C165.38109791 782.94981922 158.26039109 787.72560705 151.15625 792.52734375 C150.2583223 793.13414978 149.36039459 793.74095581 148.43525696 794.3661499 C144.79476917 796.82702449 141.15477395 799.28862174 137.51611328 801.75219727 C102.1140955 825.71542975 102.1140955 825.71542975 92.640625 830.015625 C91.85719727 830.37615967 91.07376953 830.73669434 90.26660156 831.1081543 C65.9097641 842.01039143 39.81523915 845.42891309 13.328125 845.453125 C12.17585419 845.45463562 12.17585419 845.45463562 11.00030518 845.45617676 C-33.10433452 845.41728479 -67.30580651 832.7666154 -103.359375 807.953125 C-105.16601987 806.71910461 -106.97331063 805.48602931 -108.78125 804.25390625 C-111.49060578 802.40715336 -114.19943616 800.55967927 -116.90574646 798.70846558 C-123.93279374 793.90423026 -131.00486612 789.17075416 -138.09355164 784.45809937 C-147.98550259 777.87960639 -157.82809838 771.22839427 -167.671875 764.578125 C-182.80434503 754.35519753 -182.80434503 754.35519753 -197.984375 744.203125 C-209.03162333 736.85263261 -220.022195 729.41834227 -231.01733398 721.99023438 C-240.82182593 715.36750769 -250.63484759 708.75873737 -260.484375 702.203125 C-271.24493274 695.0411524 -281.96103508 687.81416583 -292.671875 680.578125 C-307.80434503 670.35519753 -307.80434503 670.35519753 -322.984375 660.203125 C-334.03162333 652.85263261 -345.022195 645.41834227 -356.01733398 637.99023438 C-370.09288497 628.48249775 -384.1958055 619.01677754 -398.35403442 609.63247681 C-399.48057938 608.88567154 -399.48057938 608.88567154 -400.62988281 608.1237793 C-401.29256165 607.68502975 -401.95524048 607.24628021 -402.63800049 606.79423523 C-422.18993305 593.69787881 -437.10465488 576.8645017 -441.984375 553.203125 C-446.69643277 527.7975548 -442.53108337 503.89266354 -428.984375 482.203125 C-427.98163287 480.53810668 -426.98090423 478.87186922 -425.984375 477.203125 C-426.87189453 475.89601563 -426.87189453 475.89601563 -427.77734375 474.5625 C-442.75749463 452.14932885 -446.69404792 426.79955572 -441.796875 400.203125 C-439.44173461 389.79208382 -434.58965066 381.17769203 -428.984375 372.203125 C-427.98163287 370.53810668 -426.98090423 368.87186922 -425.984375 367.203125 C-426.87189453 365.89601563 -426.87189453 365.89601563 -427.77734375 364.5625 C-442.75749463 342.14932885 -446.69404792 316.79955572 -441.796875 290.203125 C-440.33630046 283.74656653 -438.15186938 278.00568593 -434.984375 272.203125 C-434.54222656 271.36394531 -434.10007812 270.52476562 -433.64453125 269.66015625 C-429.95013531 263.05936572 -425.3429881 257.52346229 -419.984375 252.203125 C-419.3641748 251.58373047 -418.74397461 250.96433594 -418.10498047 250.32617188 C-410.80039398 243.37840508 -402.58035355 238.00517793 -394.16809082 232.50204468 C-390.65733126 230.20529509 -387.15880187 227.89019272 -383.65917969 225.57652283 C-381.89549527 224.41089348 -380.13117464 223.24622617 -378.36621094 222.08253479 C-371.28153814 217.41036584 -364.24602761 212.67163805 -357.234375 207.890625 C-355.03409655 206.39287116 -352.83364699 204.8953737 -350.6328125 203.3984375 C-350.05805176 203.00742355 -349.48329102 202.61640961 -348.89111328 202.21354675 C-340.51217411 196.51724616 -332.11063838 190.85430957 -323.71081543 185.18887329 C-321.8455201 183.93076317 -319.98036153 182.67245025 -318.11535645 181.41390991 C-309.09578498 175.32755493 -300.07030055 169.25083493 -291.01171875 163.22265625 C-279.95574925 155.86507418 -268.95582625 148.42460575 -257.95141602 140.99023438 C-247.28003237 133.7819407 -236.59242314 126.59964998 -225.87203979 119.4644165 C-215.98435578 112.87908315 -206.14085493 106.22853161 -196.296875 99.578125 C-185.48016263 92.27112651 -174.65775555 84.97412026 -163.79006958 77.74310303 C-153.47686525 70.87558495 -143.21846738 63.92646005 -132.95141602 56.99023438 C-121.99786518 49.59134274 -111.03151382 42.21328098 -100.01799011 34.90383911 C-95.65571378 32.00432165 -91.32210505 29.07270913 -87.0377655 26.05903625 C-61.96748571 8.60636536 -30.37642972 0.14804764 0 0 Z " fill="#723EBE" transform="translate(498.984375,13.796875)"/>
<path d="M0 0 C0.93628235 -0.00570007 1.8725647 -0.01140015 2.83721924 -0.01727295 C4.8138315 -0.02666956 6.79045905 -0.03323553 8.76708984 -0.03710938 C11.71611863 -0.04671377 14.66441843 -0.07774651 17.61328125 -0.109375 C34.59592709 -0.20497147 51.26585608 1.44227061 67.703125 5.890625 C69.12492065 6.26973022 69.12492065 6.26973022 70.57543945 6.65649414 C92.75141932 12.84864563 111.12404653 25.46407317 129.953125 38.265625 C133.62801375 40.75782822 137.30426518 43.24801806 140.98046875 45.73828125 C141.89641815 46.35929718 142.81236755 46.98031311 143.756073 47.62014771 C150.86748531 52.43776813 158.00899653 57.20887048 165.1605072 61.96669006 C175.87943794 69.10168249 186.54402672 76.31706593 197.21337891 83.52587891 C206.95900782 90.10942797 216.71324352 96.6788714 226.50390625 103.1953125 C237.26836808 110.35989364 247.9883944 117.5894557 258.703125 124.828125 C273.83559503 135.05105247 273.83559503 135.05105247 289.015625 145.203125 C300.06287333 152.55361739 311.053445 159.98790773 322.04858398 167.41601562 C331.85307593 174.03874231 341.66609759 180.64751263 351.515625 187.203125 C362.27618274 194.3650976 372.99228508 201.59208417 383.703125 208.828125 C387.33160997 211.27927035 390.96044388 213.72989702 394.58984375 216.1796875 C395.46603363 216.77112045 396.34222351 217.36255341 397.2449646 217.97190857 C403.82686927 222.41070451 410.4263037 226.82268358 417.04118347 231.21218872 C427.60217336 238.2298326 437.92893718 245.29118117 447.015625 254.203125 C447.71171875 254.87472656 448.4078125 255.54632813 449.125 256.23828125 C465.49135656 273.20727497 468.46876492 295.46331631 468.23046875 318.05859375 C467.82571433 334.35687278 463.70514877 348.21119602 454.56640625 361.828125 C453.20923461 363.90661457 452.06983595 365.95968101 451.015625 368.203125 C451.45132813 368.77417969 451.88703125 369.34523438 452.3359375 369.93359375 C467.72831284 390.88987966 470.90012717 416.01713639 467.1953125 441.34545898 C465.20874472 452.74841086 460.9990326 462.24336911 454.56640625 471.828125 C453.20923461 473.90661457 452.06983595 475.95968101 451.015625 478.203125 C451.45132813 478.77417969 451.88703125 479.34523438 452.3359375 479.93359375 C467.72831284 500.88987966 470.90012717 526.01713639 467.1953125 551.34545898 C463.47878622 572.67841868 451.07422 590.34008595 433.56176758 602.75244141 C429.73114649 605.41782269 425.84568884 607.99849252 421.95703125 610.578125 C415.11670906 615.12734021 408.29350475 619.70110481 401.484375 624.296875 C400.13938683 625.20463684 400.13938683 625.20463684 398.76722717 626.1307373 C396.01644216 627.98782856 393.26597311 629.84538677 390.515625 631.703125 C379.63316139 639.05374676 368.74522787 646.39474799 357.81184387 653.66946411 C347.50179504 660.5348706 337.24657121 667.48191544 326.98266602 674.41601562 C316.31128237 681.6243093 305.62367314 688.80660002 294.90328979 695.9418335 C285.01560578 702.52716685 275.17210493 709.17771839 265.328125 715.828125 C254.51141263 723.13512349 243.68900555 730.43212974 232.82131958 737.66314697 C222.50811525 744.53066505 212.24971738 751.47978995 201.98266602 758.41601562 C192.17966161 765.03773751 182.36799916 771.64525448 172.51953125 778.19921875 C165.38109791 782.94981922 158.26039109 787.72560705 151.15625 792.52734375 C150.2583223 793.13414978 149.36039459 793.74095581 148.43525696 794.3661499 C144.79476917 796.82702449 141.15477395 799.28862174 137.51611328 801.75219727 C102.1140955 825.71542975 102.1140955 825.71542975 92.640625 830.015625 C91.85719727 830.37615967 91.07376953 830.73669434 90.26660156 831.1081543 C65.9097641 842.01039143 39.81523915 845.42891309 13.328125 845.453125 C12.17585419 845.45463562 12.17585419 845.45463562 11.00030518 845.45617676 C-33.10433452 845.41728479 -67.30580651 832.7666154 -103.359375 807.953125 C-105.16601987 806.71910461 -106.97331063 805.48602931 -108.78125 804.25390625 C-111.49060578 802.40715336 -114.19943616 800.55967927 -116.90574646 798.70846558 C-123.93279374 793.90423026 -131.00486612 789.17075416 -138.09355164 784.45809937 C-147.98550259 777.87960639 -157.82809838 771.22839427 -167.671875 764.578125 C-182.80434503 754.35519753 -182.80434503 754.35519753 -197.984375 744.203125 C-209.03162333 736.85263261 -220.022195 729.41834227 -231.01733398 721.99023438 C-240.82182593 715.36750769 -250.63484759 708.75873737 -260.484375 702.203125 C-271.24493274 695.0411524 -281.96103508 687.81416583 -292.671875 680.578125 C-307.80434503 670.35519753 -307.80434503 670.35519753 -322.984375 660.203125 C-334.03162333 652.85263261 -345.022195 645.41834227 -356.01733398 637.99023438 C-370.09288497 628.48249775 -384.1958055 619.01677754 -398.35403442 609.63247681 C-399.48057938 608.88567154 -399.48057938 608.88567154 -400.62988281 608.1237793 C-401.29256165 607.68502975 -401.95524048 607.24628021 -402.63800049 606.79423523 C-422.18993305 593.69787881 -437.10465488 576.8645017 -441.984375 553.203125 C-446.69643277 527.7975548 -442.53108337 503.89266354 -428.984375 482.203125 C-427.98163287 480.53810668 -426.98090423 478.87186922 -425.984375 477.203125 C-426.87189453 475.89601563 -426.87189453 475.89601563 -427.77734375 474.5625 C-442.75749463 452.14932885 -446.69404792 426.79955572 -441.796875 400.203125 C-439.44173461 389.79208382 -434.58965066 381.17769203 -428.984375 372.203125 C-427.98163287 370.53810668 -426.98090423 368.87186922 -425.984375 367.203125 C-426.87189453 365.89601563 -426.87189453 365.89601563 -427.77734375 364.5625 C-442.75749463 342.14932885 -446.69404792 316.79955572 -441.796875 290.203125 C-440.33630046 283.74656653 -438.15186938 278.00568593 -434.984375 272.203125 C-434.54222656 271.36394531 -434.10007812 270.52476562 -433.64453125 269.66015625 C-429.95013531 263.05936572 -425.3429881 257.52346229 -419.984375 252.203125 C-419.3641748 251.58373047 -418.74397461 250.96433594 -418.10498047 250.32617188 C-410.80039398 243.37840508 -402.58035355 238.00517793 -394.16809082 232.50204468 C-390.65733126 230.20529509 -387.15880187 227.89019272 -383.65917969 225.57652283 C-381.89549527 224.41089348 -380.13117464 223.24622617 -378.36621094 222.08253479 C-371.28153814 217.41036584 -364.24602761 212.67163805 -357.234375 207.890625 C-355.03409655 206.39287116 -352.83364699 204.8953737 -350.6328125 203.3984375 C-350.05805176 203.00742355 -349.48329102 202.61640961 -348.89111328 202.21354675 C-340.51217411 196.51724616 -332.11063838 190.85430957 -323.71081543 185.18887329 C-321.8455201 183.93076317 -319.98036153 182.67245025 -318.11535645 181.41390991 C-309.09578498 175.32755493 -300.07030055 169.25083493 -291.01171875 163.22265625 C-279.95574925 155.86507418 -268.95582625 148.42460575 -257.95141602 140.99023438 C-247.28003237 133.7819407 -236.59242314 126.59964998 -225.87203979 119.4644165 C-215.98435578 112.87908315 -206.14085493 106.22853161 -196.296875 99.578125 C-185.48016263 92.27112651 -174.65775555 84.97412026 -163.79006958 77.74310303 C-153.47686525 70.87558495 -143.21846738 63.92646005 -132.95141602 56.99023438 C-121.99786518 49.59134274 -111.03151382 42.21328098 -100.01799011 34.90383911 C-95.65571378 32.00432165 -91.32210505 29.07270913 -87.0377655 26.05903625 C-61.96748571 8.60636536 -30.37642972 0.14804764 0 0 Z M-91.609375 46.703125 C-93.51530112 47.99657112 -95.42154936 49.28954273 -97.328125 50.58203125 C-100.09882467 52.46057484 -102.8692317 54.33953578 -105.63827515 56.22052002 C-110.98975858 59.8555016 -116.35761513 63.46373669 -121.74658203 67.04296875 C-126.15149948 69.98179469 -130.54052324 72.9439643 -134.9296875 75.90625 C-135.83220245 76.51533203 -136.73471741 77.12441406 -137.6645813 77.75195312 C-141.41471433 80.28323839 -145.16449971 82.81503809 -148.9140625 85.34716797 C-158.99345654 92.15322939 -169.08153736 98.94490214 -179.20710754 105.68209839 C-189.51084542 112.54328166 -199.75972113 119.48616643 -210.01733398 126.41601562 C-220.68871763 133.6243093 -231.37632686 140.80660002 -242.09671021 147.9418335 C-251.98439422 154.52716685 -261.82789507 161.17771839 -271.671875 167.828125 C-282.48858737 175.13512349 -293.31099445 182.43212974 -304.17868042 189.66314697 C-314.49188475 196.53066505 -324.75028262 203.47978995 -335.01733398 210.41601562 C-346.70982749 218.31404739 -358.42333676 226.17895243 -370.17041016 233.99560547 C-405.39429104 256.57749211 -405.39429104 256.57749211 -423.359375 293.078125 C-425.6187312 309.12654169 -421.13314019 323.56310239 -412.13671875 336.953125 C-405.38925682 345.8204261 -397.38483576 352.93191114 -387.88671875 358.65625 C-378.84566588 364.21067191 -370.06947221 370.1328671 -361.29101562 376.09082031 C-356.53789319 379.31651586 -351.77837094 382.53274778 -347.01953125 385.75 C-345.59509201 386.71347351 -345.59509201 386.71347351 -344.14187622 387.69641113 C-335.9474179 393.23603196 -327.7223591 398.72852681 -319.484375 404.203125 C-304.49271873 414.16965037 -289.56651665 424.23234731 -274.6484375 434.30859375 C-264.35050078 441.26874277 -264.35050078 441.26874277 -254.01953125 448.1796875 C-246.00826334 453.50740915 -238.04350959 458.90436238 -230.07009888 464.28848267 C-212.89941988 475.88189244 -195.70284362 487.43320449 -178.44140625 498.89111328 C-167.27363009 506.31855198 -156.16966347 513.84107608 -145.0546875 521.34716797 C-135.70926936 527.65761575 -126.36095662 533.96246836 -116.96875 540.203125 C-110.40569309 544.56492639 -103.88741783 548.98907119 -97.3828125 553.4375 C-94.63361172 555.31205686 -91.88381792 557.18574023 -89.13378906 559.05908203 C-87.27839967 560.32572326 -85.42521771 561.59560379 -83.57421875 562.86865234 C-45.59911955 588.96651851 -4.71917242 600.56889254 41.43066406 592.79638672 C67.22755124 587.94132438 87.48456484 576.94482074 108.95703125 562.28369141 C112.69312724 559.7422634 116.45489709 557.24123828 120.22070312 554.74414062 C133.09205552 546.2082123 145.88164292 537.55106313 158.67831421 528.90383911 C168.37662362 522.3507826 178.07815852 515.80417048 187.828125 509.328125 C199.09597257 501.8437629 210.30429875 494.27177135 221.515625 486.703125 C244.43137428 471.23309513 244.43137428 471.23309513 255.015625 464.203125 C266.0958758 456.84359416 277.11650087 449.39634467 288.140625 441.953125 C300.98786937 433.27909128 313.84699248 424.62481475 326.75769043 416.04550171 C334.62258124 410.8178602 342.46475457 405.5577521 350.2890625 400.26953125 C351.19182922 399.65940689 352.09459595 399.04928253 353.02471924 398.42066956 C356.73976136 395.90960661 360.45470631 393.39840002 364.16943359 390.88687134 C377.65567816 381.7726083 391.19968459 372.7548888 404.85693359 363.89868164 C424.35425121 351.2293964 441.77159372 338.03518334 447.7265625 314.37890625 C450.72161838 299.50086894 447.97888548 284.36174713 439.69921875 271.6015625 C430.79633988 258.91857497 419.83164713 250.50449536 407.015625 241.953125 C405.8357436 241.15995412 404.65623286 240.36623166 403.47705078 239.57202148 C400.8344613 237.79323416 398.18980036 236.01757832 395.54394531 234.24365234 C390.44128003 230.82035783 385.34952703 227.38095886 380.2578125 223.94140625 C359.68181605 210.03522363 359.68181605 210.03522363 339.04296875 196.22265625 C327.98699925 188.86507418 316.98707625 181.42460575 305.98266602 173.99023438 C295.30676864 166.77889177 284.61460819 159.59361013 273.88969421 152.45535278 C263.16579834 145.31309194 252.49398834 138.09375493 241.81787109 130.88037109 C232.07224218 124.29682203 222.31800648 117.7273786 212.52734375 111.2109375 C201.76288192 104.04635636 191.0428556 96.8167943 180.328125 89.578125 C165.20815789 79.36378464 165.20815789 79.36378464 150.0390625 69.22265625 C143.46324243 64.84920456 136.91508546 60.43636838 130.37890625 56.00390625 C128.54623699 54.76235056 126.71355463 53.52081419 124.88085938 52.27929688 C122.09591913 50.39248698 119.31179662 48.50452239 116.5300293 46.61303711 C46.13438022 -1.23530509 -21.66660738 -0.94164918 -91.609375 46.703125 Z " fill="#3A166E" transform="translate(498.984375,13.796875)"/>
<path d="M0 0 C7.10758458 4.50099173 14.17840284 9.05252338 21.20703125 13.67578125 C22.13488937 14.28584518 23.0627475 14.89590912 24.01872253 15.52445984 C25.96600594 16.80545564 27.91296817 18.08693981 29.85961914 19.36889648 C32.7934051 21.29993163 35.72968327 23.22713675 38.66601562 25.15429688 C47.11004264 30.70763594 55.50854898 36.28380297 63.686203 42.22335815 C71.36469275 47.76230817 79.3352118 52.8757815 87.25564575 58.05908203 C92.17664879 61.28060845 97.09058368 64.51286944 102.00390625 67.74609375 C103.45273445 68.69946121 103.45273445 68.69946121 104.93083191 69.67208862 C115.106291 76.37544826 125.18459187 83.21554649 135.24871826 90.08468628 C144.39228261 96.320302 153.57393474 102.49986898 162.75 108.6875 C163.68386536 109.31731781 164.61773071 109.94713562 165.57989502 110.59603882 C180.53298087 120.67916663 195.51690887 130.71389285 210.54296875 140.68798828 C221.71074491 148.11542698 232.81471153 155.63795108 243.9296875 163.14404297 C253.27510564 169.45449075 262.62341838 175.75934336 272.015625 182 C278.57868191 186.36180139 285.09695717 190.78594619 291.6015625 195.234375 C294.35076328 197.10893186 297.10055708 198.98261523 299.85058594 200.85595703 C301.70597533 202.12259826 303.55915729 203.39247879 305.41015625 204.66552734 C343.38525545 230.76339351 384.26520258 242.36576754 430.41503906 234.59326172 C456.21192624 229.73819938 476.46893984 218.74169574 497.94140625 204.08056641 C501.67750224 201.5391384 505.43927209 199.03811328 509.20507812 196.54101562 C522.07643052 188.0050873 534.86601792 179.34793813 547.66268921 170.70071411 C557.36099862 164.1476576 567.06253352 157.60104548 576.8125 151.125 C588.08034757 143.6406379 599.28867375 136.06864635 610.5 128.5 C633.41574928 113.02997013 633.41574928 113.02997013 644 106 C655.0802508 98.64046916 666.10087587 91.19321967 677.125 83.75 C689.39433652 75.46615051 701.67110421 67.19498499 714 59 C727.13414458 50.26970291 740.20745357 41.4503215 753.27749634 32.62442017 C769.47668903 21.68670603 785.71757098 10.81337508 802 0 C808.23447154 3.4965118 813.71741763 7.03316553 818.6875 12.1875 C819.23857422 12.75355957 819.78964844 13.31961914 820.35742188 13.90283203 C831.8921052 26.04693339 838.33939152 41.11527209 838 58 C836.81274573 76.89713051 826.39312019 91.66233873 812.64697266 103.80151367 C808.65307875 107.11870742 804.42452879 109.94367629 800.0625 112.75 C797.97018832 114.12061776 795.87915574 115.49318915 793.7890625 116.8671875 C793.20899948 117.24743073 792.62893646 117.62767395 792.03129578 118.0194397 C782.60422679 124.21073491 773.28175161 130.55981782 763.9375 136.875 C760.30124643 139.33141863 756.66452432 141.78714168 753.02734375 144.2421875 C752.15417511 144.83159622 751.28100647 145.42100494 750.38137817 146.02827454 C745.40526348 149.38487787 740.42013242 152.72725302 735.421875 156.05078125 C729.82193351 159.77450589 724.2447676 163.53092772 718.67578125 167.30078125 C697.77821223 181.44282586 676.8126584 195.46931669 655.69458008 209.28051758 C648.38198006 214.0708419 641.08864494 218.85791487 634.01171875 223.9921875 C625.99902556 229.80524962 617.7075444 235.18791731 609.42468262 240.60562134 C593.45271789 251.05634214 577.55607221 261.61260774 561.75 272.3125 C560.90800049 272.88234619 560.06600098 273.45219238 559.19848633 274.03930664 C555.9435447 276.24231761 552.68871367 278.44549161 549.43426514 280.64923096 C542.46648157 285.36569671 535.47867626 290.05117093 528.46582031 294.70043945 C522.80020164 298.45793542 517.15462354 302.24281334 511.52340698 306.051651 C507.79105781 308.57407555 504.05342844 311.08861789 500.31536865 313.60256958 C498.46823368 314.84745454 496.62330362 316.09561868 494.78082275 317.34738159 C481.43309809 326.41222818 467.88437192 335.31617761 452.375 340.25 C451.64901611 340.48614014 450.92303223 340.72228027 450.17504883 340.96557617 C436.64700248 345.15313372 422.14679525 347.56266628 408 348 C407.0203125 348.03996094 406.040625 348.07992188 405.03125 348.12109375 C384.71513504 348.55717198 364.21955055 345.33418091 345.1875 338.25 C344.37676025 337.9514209 343.56602051 337.6528418 342.73071289 337.34521484 C327.34404432 331.3199896 313.87691639 321.36884606 300.3125 312.125 C297.40637384 310.15305595 294.49902048 308.18293001 291.59164429 306.21282959 C289.67785053 304.91577537 287.76445531 303.61813292 285.85147095 302.31988525 C278.75960548 297.50781335 271.64124223 292.73844721 264.5 288 C256.76038045 282.85916945 249.04397896 277.68589465 241.34765625 272.48046875 C240.48164291 271.89484665 239.61562958 271.30922455 238.72337341 270.70585632 C237.83956497 270.10819962 236.95575653 269.51054291 236.04516602 268.89477539 C234.21763214 267.65898519 232.3900766 266.42322702 230.5625 265.1875 C229.65652069 264.57486298 228.75054138 263.96222595 227.81710815 263.33102417 C211.70573514 252.4423602 195.49604914 241.70839784 179.21899414 231.0690918 C170.73247475 225.51150129 162.32400318 219.87253628 154.03515625 214.0234375 C144.69658578 207.43375249 135.19447307 201.11893332 125.62927246 194.86410522 C110.92836795 185.24805353 96.28275262 175.55592269 81.75 165.6875 C81.04963623 165.21196686 80.34927246 164.73643372 79.62768555 164.24649048 C76.9166556 162.40550559 74.20564494 160.56449242 71.49493408 158.72303772 C65.81083233 154.86466858 60.0978561 151.050637 54.375 147.25 C44.18844929 140.47806768 34.03467665 133.65786403 23.89117432 126.82165527 C22.11134029 125.62245608 20.33103822 124.42395121 18.55023193 123.22619629 C-28.26247239 91.7344359 -28.26247239 91.7344359 -34.375 64.6875 C-36.64070761 49.37747576 -32.85310559 34.55256414 -24.2109375 21.796875 C-17.38837961 13.16621873 -9.51565791 5.57819171 0 0 Z " fill="#4E1F93" transform="translate(110,371)"/>
<path d="M0 0 C0.93628235 -0.00570007 1.8725647 -0.01140015 2.83721924 -0.01727295 C4.8138315 -0.02666956 6.79045905 -0.03323553 8.76708984 -0.03710938 C11.71611863 -0.04671377 14.66441843 -0.07774651 17.61328125 -0.109375 C34.59592709 -0.20497147 51.26585608 1.44227061 67.703125 5.890625 C69.12492065 6.26973022 69.12492065 6.26973022 70.57543945 6.65649414 C92.75141932 12.84864563 111.12404653 25.46407317 129.953125 38.265625 C133.62801375 40.75782822 137.30426518 43.24801806 140.98046875 45.73828125 C141.89641815 46.35929718 142.81236755 46.98031311 143.756073 47.62014771 C150.86748531 52.43776813 158.00899653 57.20887048 165.1605072 61.96669006 C175.87943794 69.10168249 186.54402672 76.31706593 197.21337891 83.52587891 C206.95900782 90.10942797 216.71324352 96.6788714 226.50390625 103.1953125 C237.26836808 110.35989364 247.9883944 117.5894557 258.703125 124.828125 C273.83559503 135.05105247 273.83559503 135.05105247 289.015625 145.203125 C300.06287333 152.55361739 311.053445 159.98790773 322.04858398 167.41601562 C331.85307593 174.03874231 341.66609759 180.64751263 351.515625 187.203125 C362.27618274 194.3650976 372.99228508 201.59208417 383.703125 208.828125 C387.33160997 211.27927035 390.96044388 213.72989702 394.58984375 216.1796875 C395.46603363 216.77112045 396.34222351 217.36255341 397.2449646 217.97190857 C403.82686927 222.41070451 410.4263037 226.82268358 417.04118347 231.21218872 C427.60217336 238.2298326 437.92893718 245.29118117 447.015625 254.203125 C447.71171875 254.87472656 448.4078125 255.54632813 449.125 256.23828125 C465.49135656 273.20727497 468.46876492 295.46331631 468.23046875 318.05859375 C467.82571433 334.35687278 463.70514877 348.21119602 454.56640625 361.828125 C453.20923461 363.90661457 452.06983595 365.95968101 451.015625 368.203125 C451.45132813 368.77417969 451.88703125 369.34523438 452.3359375 369.93359375 C467.72831284 390.88987966 470.90012717 416.01713639 467.1953125 441.34545898 C465.20874472 452.74841086 460.9990326 462.24336911 454.56640625 471.828125 C453.20923461 473.90661457 452.06983595 475.95968101 451.015625 478.203125 C451.45132813 478.77417969 451.88703125 479.34523438 452.3359375 479.93359375 C467.72831284 500.88987966 470.90012717 526.01713639 467.1953125 551.34545898 C463.47878622 572.67841868 451.07422 590.34008595 433.56176758 602.75244141 C429.73114649 605.41782269 425.84568884 607.99849252 421.95703125 610.578125 C415.11670906 615.12734021 408.29350475 619.70110481 401.484375 624.296875 C400.13938683 625.20463684 400.13938683 625.20463684 398.76722717 626.1307373 C396.01644216 627.98782856 393.26597311 629.84538677 390.515625 631.703125 C379.63316139 639.05374676 368.74522787 646.39474799 357.81184387 653.66946411 C347.50179504 660.5348706 337.24657121 667.48191544 326.98266602 674.41601562 C316.31128237 681.6243093 305.62367314 688.80660002 294.90328979 695.9418335 C285.01560578 702.52716685 275.17210493 709.17771839 265.328125 715.828125 C254.51141263 723.13512349 243.68900555 730.43212974 232.82131958 737.66314697 C222.50811525 744.53066505 212.24971738 751.47978995 201.98266602 758.41601562 C192.17966161 765.03773751 182.36799916 771.64525448 172.51953125 778.19921875 C165.38109791 782.94981922 158.26039109 787.72560705 151.15625 792.52734375 C150.2583223 793.13414978 149.36039459 793.74095581 148.43525696 794.3661499 C144.79476917 796.82702449 141.15477395 799.28862174 137.51611328 801.75219727 C102.1140955 825.71542975 102.1140955 825.71542975 92.640625 830.015625 C91.85719727 830.37615967 91.07376953 830.73669434 90.26660156 831.1081543 C65.9097641 842.01039143 39.81523915 845.42891309 13.328125 845.453125 C12.17585419 845.45463562 12.17585419 845.45463562 11.00030518 845.45617676 C-33.10433452 845.41728479 -67.30580651 832.7666154 -103.359375 807.953125 C-105.16601987 806.71910461 -106.97331063 805.48602931 -108.78125 804.25390625 C-111.49060578 802.40715336 -114.19943616 800.55967927 -116.90574646 798.70846558 C-123.93279374 793.90423026 -131.00486612 789.17075416 -138.09355164 784.45809937 C-147.98550259 777.87960639 -157.82809838 771.22839427 -167.671875 764.578125 C-182.80434503 754.35519753 -182.80434503 754.35519753 -197.984375 744.203125 C-209.03162333 736.85263261 -220.022195 729.41834227 -231.01733398 721.99023438 C-240.82182593 715.36750769 -250.63484759 708.75873737 -260.484375 702.203125 C-271.24493274 695.0411524 -281.96103508 687.81416583 -292.671875 680.578125 C-307.80434503 670.35519753 -307.80434503 670.35519753 -322.984375 660.203125 C-334.03162333 652.85263261 -345.022195 645.41834227 -356.01733398 637.99023438 C-370.09288497 628.48249775 -384.1958055 619.01677754 -398.35403442 609.63247681 C-399.48057938 608.88567154 -399.48057938 608.88567154 -400.62988281 608.1237793 C-401.29256165 607.68502975 -401.95524048 607.24628021 -402.63800049 606.79423523 C-422.18993305 593.69787881 -437.10465488 576.8645017 -441.984375 553.203125 C-446.69643277 527.7975548 -442.53108337 503.89266354 -428.984375 482.203125 C-427.98163287 480.53810668 -426.98090423 478.87186922 -425.984375 477.203125 C-426.87189453 475.89601563 -426.87189453 475.89601563 -427.77734375 474.5625 C-442.75749463 452.14932885 -446.69404792 426.79955572 -441.796875 400.203125 C-439.44173461 389.79208382 -434.58965066 381.17769203 -428.984375 372.203125 C-427.98163287 370.53810668 -426.98090423 368.87186922 -425.984375 367.203125 C-426.87189453 365.89601563 -426.87189453 365.89601563 -427.77734375 364.5625 C-442.75749463 342.14932885 -446.69404792 316.79955572 -441.796875 290.203125 C-440.33630046 283.74656653 -438.15186938 278.00568593 -434.984375 272.203125 C-434.54222656 271.36394531 -434.10007812 270.52476562 -433.64453125 269.66015625 C-429.95013531 263.05936572 -425.3429881 257.52346229 -419.984375 252.203125 C-419.3641748 251.58373047 -418.74397461 250.96433594 -418.10498047 250.32617188 C-410.80039398 243.37840508 -402.58035355 238.00517793 -394.16809082 232.50204468 C-390.65733126 230.20529509 -387.15880187 227.89019272 -383.65917969 225.57652283 C-381.89549527 224.41089348 -380.13117464 223.24622617 -378.36621094 222.08253479 C-371.28153814 217.41036584 -364.24602761 212.67163805 -357.234375 207.890625 C-355.03409655 206.39287116 -352.83364699 204.8953737 -350.6328125 203.3984375 C-350.05805176 203.00742355 -349.48329102 202.61640961 -348.89111328 202.21354675 C-340.51217411 196.51724616 -332.11063838 190.85430957 -323.71081543 185.18887329 C-321.8455201 183.93076317 -319.98036153 182.67245025 -318.11535645 181.41390991 C-309.09578498 175.32755493 -300.07030055 169.25083493 -291.01171875 163.22265625 C-279.95574925 155.86507418 -268.95582625 148.42460575 -257.95141602 140.99023438 C-247.28003237 133.7819407 -236.59242314 126.59964998 -225.87203979 119.4644165 C-215.98435578 112.87908315 -206.14085493 106.22853161 -196.296875 99.578125 C-185.48016263 92.27112651 -174.65775555 84.97412026 -163.79006958 77.74310303 C-153.47686525 70.87558495 -143.21846738 63.92646005 -132.95141602 56.99023438 C-121.99786518 49.59134274 -111.03151382 42.21328098 -100.01799011 34.90383911 C-95.65571378 32.00432165 -91.32210505 29.07270913 -87.0377655 26.05903625 C-61.96748571 8.60636536 -30.37642972 0.14804764 0 0 Z M-91.609375 46.703125 C-93.51530112 47.99657112 -95.42154936 49.28954273 -97.328125 50.58203125 C-100.09882467 52.46057484 -102.8692317 54.33953578 -105.63827515 56.22052002 C-110.98975858 59.8555016 -116.35761513 63.46373669 -121.74658203 67.04296875 C-126.15149948 69.98179469 -130.54052324 72.9439643 -134.9296875 75.90625 C-135.83220245 76.51533203 -136.73471741 77.12441406 -137.6645813 77.75195312 C-141.41471433 80.28323839 -145.16449971 82.81503809 -148.9140625 85.34716797 C-158.99345654 92.15322939 -169.08153736 98.94490214 -179.20710754 105.68209839 C-189.51084542 112.54328166 -199.75972113 119.48616643 -210.01733398 126.41601562 C-220.68871763 133.6243093 -231.37632686 140.80660002 -242.09671021 147.9418335 C-251.98439422 154.52716685 -261.82789507 161.17771839 -271.671875 167.828125 C-282.48858737 175.13512349 -293.31099445 182.43212974 -304.17868042 189.66314697 C-314.49188475 196.53066505 -324.75028262 203.47978995 -335.01733398 210.41601562 C-346.70982749 218.31404739 -358.42333676 226.17895243 -370.17041016 233.99560547 C-405.39429104 256.57749211 -405.39429104 256.57749211 -423.359375 293.078125 C-425.6187312 309.12654169 -421.13314019 323.56310239 -412.13671875 336.953125 C-405.89245723 345.15913603 -398.04710936 351.8401022 -389.984375 358.203125 C-390.49484375 358.49703125 -391.0053125 358.7909375 -391.53125 359.09375 C-405.98363929 368.01118169 -417.45734255 381.62703276 -422.296875 398.046875 C-425.96306032 414.87799853 -422.85598833 429.57184023 -413.984375 444.203125 C-407.50502099 453.41373956 -399.59075236 461.29150816 -389.984375 467.203125 C-390.66242188 467.73679687 -391.34046875 468.27046875 -392.0390625 468.8203125 C-408.15750641 481.72399752 -420.41030789 495.27052817 -423.73046875 516.328125 C-425.1653243 532.5751048 -419.59901871 547.99145974 -409.35546875 560.4921875 C-408.38551117 561.61107047 -407.40768317 562.72318198 -406.421875 563.828125 C-405.99455078 564.31796875 -405.56722656 564.8078125 -405.12695312 565.3125 C-395.37714961 575.73047187 -381.68175314 583.15304141 -369.86633301 590.97964478 C-365.52944104 593.85304424 -361.19838178 596.73520961 -356.8671875 599.6171875 C-355.57814514 600.47468346 -355.57814514 600.47468346 -354.26306152 601.34950256 C-347.2272081 606.03337771 -340.2215913 610.75950429 -333.234375 615.515625 C-331.04178399 617.00798535 -328.84914283 618.5002708 -326.65625 619.9921875 C-325.79599716 620.57746216 -325.79599716 620.57746216 -324.91836548 621.17456055 C-315.45796109 627.60588796 -305.96875172 633.99473558 -296.484375 640.390625 C-295.55322876 641.01877106 -294.62208252 641.64691711 -293.66271973 642.2940979 C-284.83653986 648.2480112 -276.00723467 654.19624424 -267.14306641 660.09350586 C-260.46546087 664.55332882 -253.81408465 669.05227959 -247.15802002 673.54415894 C-244.35736658 675.434158 -241.55640481 677.32369934 -238.75537109 679.21313477 C-229.90918024 685.18053543 -221.06389247 691.14927332 -212.21931458 697.11906433 C-208.42564894 699.67951574 -204.63168324 702.23952232 -200.837677 704.79946899 C-198.20455213 706.57639606 -195.57187254 708.35398136 -192.93920898 710.1315918 C-181.75005162 717.68323864 -170.53027565 725.18794696 -159.2923584 732.66682434 C-154.97339491 735.5417265 -150.65714096 738.42069266 -146.34082031 741.29956055 C-142.11667735 744.11684222 -137.89049447 746.93103255 -133.66247559 749.74249268 C-130.26912247 751.99922274 -126.87665099 754.25727625 -123.484375 756.515625 C-122.78650879 756.98011047 -122.08864258 757.44459595 -121.36962891 757.92315674 C-113.14099431 763.4020795 -104.92982457 768.90545532 -96.75 774.45703125 C-95.61280518 775.22848228 -95.61280518 775.22848228 -94.45263672 776.01551819 C-90.81257515 778.48575878 -87.17495849 780.95948815 -83.54101562 783.4387207 C-64.56303471 796.35700795 -46.37018655 806.4743121 -23.984375 812.203125 C-23.30197754 812.38391602 -22.61958008 812.56470703 -21.91650391 812.75097656 C5.29062027 819.62622573 37.4979576 816.38296666 63.890625 808.015625 C64.66204834 807.77320068 65.43347168 807.53077637 66.22827148 807.28100586 C83.19249682 801.42584584 97.97686316 790.82710729 112.640625 780.765625 C114.50725458 779.4933217 116.37444016 778.22183373 118.2421875 776.95117188 C121.86431606 774.48616879 125.48413128 772.01782407 129.10253906 769.54736328 C135.03509517 765.50256798 141.0065044 761.51800409 146.98937988 757.54818726 C162.00140415 747.58290366 176.95954443 737.53917889 191.890625 727.453125 C206.21199328 717.78040635 220.56131933 708.15331039 234.95767212 698.59265137 C238.2644929 696.39601952 241.57033209 694.19791327 244.87597656 691.99951172 C246.54827478 690.88800166 248.22112402 689.77732017 249.89453125 688.66748047 C258.46473296 682.98251294 266.99512045 677.26295704 275.3671875 671.2890625 C286.3189755 663.48359093 297.61143138 656.19419091 308.86816406 648.83935547 C318.88316635 642.29055545 328.83191333 635.69342078 338.56877136 628.73678589 C348.72086963 621.51883432 359.21477451 614.80107966 369.6418457 607.99023438 C380.70221027 600.75975325 391.67626206 593.44081004 402.46211243 585.80496216 C406.75348022 582.76791441 411.07498581 579.83007725 415.515625 577.015625 C430.86925942 566.79430561 443.38129189 552.72433654 447.44140625 534.26757812 C450.7345845 517.08650171 446.72873042 502.44890121 437.09375 487.93359375 C430.92815152 479.83255365 423.2386269 473.15211156 415.015625 467.203125 C415.56089844 466.790625 416.10617187 466.378125 416.66796875 465.953125 C419.13789535 464.06162566 421.57985191 462.13839677 424.015625 460.203125 C424.76972656 459.61273438 425.52382813 459.02234375 426.30078125 458.4140625 C438.44643129 448.34623971 446.6961542 433.93302806 448.79296875 418.2578125 C449.95476807 402.31874116 445.04930617 387.56752948 435.015625 375.203125 C429.11099334 368.48427355 422.94979125 362.47536837 415.015625 358.203125 C415.71171875 357.65527344 416.4078125 357.10742188 417.125 356.54296875 C432.87940734 343.7904147 445.964724 329.17997084 448.796875 308.265625 C450.0755656 290.36395664 443.64049831 275.33841785 432.36621094 261.78149414 C425.12882019 253.84276504 415.89989074 247.88106785 407.015625 241.953125 C405.8357436 241.15995412 404.65623286 240.36623166 403.47705078 239.57202148 C400.8344613 237.79323416 398.18980036 236.01757832 395.54394531 234.24365234 C390.44128003 230.82035783 385.34952703 227.38095886 380.2578125 223.94140625 C359.68181605 210.03522363 359.68181605 210.03522363 339.04296875 196.22265625 C327.98699925 188.86507418 316.98707625 181.42460575 305.98266602 173.99023438 C295.30676864 166.77889177 284.61460819 159.59361013 273.88969421 152.45535278 C263.16579834 145.31309194 252.49398834 138.09375493 241.81787109 130.88037109 C232.07224218 124.29682203 222.31800648 117.7273786 212.52734375 111.2109375 C201.76288192 104.04635636 191.0428556 96.8167943 180.328125 89.578125 C165.20815789 79.36378464 165.20815789 79.36378464 150.0390625 69.22265625 C143.46324243 64.84920456 136.91508546 60.43636838 130.37890625 56.00390625 C128.54623699 54.76235056 126.71355463 53.52081419 124.88085938 52.27929688 C122.09591913 50.39248698 119.31179662 48.50452239 116.5300293 46.61303711 C46.13438022 -1.23530509 -21.66660738 -0.94164918 -91.609375 46.703125 Z " fill="#000000" transform="translate(498.984375,13.796875)"/>
<path d="M0 0 C10.07148965 9.58572648 16.60383754 20.19981103 17.25 34.375 C16.74008393 45.37006535 11.44426592 53.34967117 4.75 61.75 C5.88695312 61.21890625 7.02390625 60.6878125 8.1953125 60.140625 C17.56936732 55.82543816 26.65580625 52.05516444 36.75 49.75 C37.69875 49.52570313 38.6475 49.30140625 39.625 49.0703125 C67.87853445 43.58491884 98.22397649 48.75823081 122.37890625 64.4296875 C136.66521892 74.09455452 147.23405831 85.20217494 152.75 101.75 C154.13085722 118.59645809 149.0774404 131.62094989 138.3125 144.71484375 C126.57508695 158.21791388 112.36515472 167.98357957 97.5 177.6875 C94.15880569 179.88009805 90.82085755 182.07758352 87.484375 184.27734375 C86.65898727 184.82067856 85.83359955 185.36401337 84.98320007 185.92381287 C79.73128352 189.39550112 74.56386655 192.96553638 69.44140625 196.625 C59.13501811 203.98040428 48.52958524 210.87817631 37.9375 217.8125 C34.95367873 219.76851506 31.97042258 221.72538077 28.9881134 223.68370056 C27.15158279 224.88940292 25.31413444 226.09370892 23.47563171 227.29640198 C22.64989151 227.83804489 21.82415131 228.37968781 20.97338867 228.93774414 C19.89114265 229.64623253 19.89114265 229.64623253 18.78703308 230.36903381 C16.69575441 231.72159197 16.69575441 231.72159197 14.79853821 233.48826599 C12.75 234.75 12.75 234.75 10.25837708 234.59510803 C7.70700739 233.73551518 5.83485051 232.74373607 3.6159668 231.22827148 C2.83194992 230.69874374 2.04793304 230.169216 1.24015808 229.62364197 C-0.01760689 228.7561306 -0.01760689 228.7561306 -1.30078125 227.87109375 C-2.18251511 227.27257095 -3.06424896 226.67404816 -3.97270203 226.05738831 C-6.84105611 224.10811779 -9.70166934 222.14779134 -12.5625 220.1875 C-14.54822118 218.83569654 -16.53455182 217.48478792 -18.52148438 216.13476562 C-22.40388258 213.49628795 -26.28409076 210.85464321 -30.16259766 208.21044922 C-35.83163872 204.3493901 -41.5311195 200.53688457 -47.25 196.75 C-58.26876303 189.43366344 -69.22588549 182.02654501 -80.1875 174.625 C-93.01691313 165.96244254 -105.85964224 157.32162378 -118.75 148.75 C-136.75862173 136.77246354 -154.6802201 124.6664745 -172.60400391 112.5625 C-181.24789767 106.72532894 -189.89371329 100.89100736 -198.54034424 95.05789185 C-201.21518886 93.25315647 -203.88959881 91.44777846 -206.56396484 89.64233398 C-217.43408172 82.30678552 -228.33074813 75.0122044 -239.25 67.75 C-236.67344527 65.05301057 -234.13164708 62.84636011 -231.01074219 60.80834961 C-230.18177429 60.26355453 -229.3528064 59.71875946 -228.49871826 59.15745544 C-227.16130585 58.28867516 -227.16130585 58.28867516 -225.796875 57.40234375 C-224.86385559 56.79040665 -223.93083618 56.17846954 -222.96954346 55.54798889 C-219.98263319 53.58996168 -216.99157514 51.63839095 -214 49.6875 C-210.09731938 47.13661279 -206.19643425 44.58299989 -202.296875 42.02734375 C-201.33932816 41.39992279 -200.38178131 40.77250183 -199.3952179 40.12606812 C-191.94906955 35.23549285 -184.59932148 30.21840514 -177.27545166 25.14749146 C-125.81526191 -10.35825616 -57.72015671 -49.08829037 0 0 Z " fill="#FDFDFE" transform="translate(547.25,212.25)"/>
<path d="M0 0 C1.00740234 0.79277344 1.00740234 0.79277344 2.03515625 1.6015625 C3.61296875 2.7153125 3.61296875 2.7153125 5.22265625 3.8515625 C11.52259889 10.01150641 15.4668479 15.78089358 15.66015625 24.7890625 C14.80247402 39.64476596 5.76224694 48.95161356 -4.96484375 58.6015625 C-15.62393113 66.75011207 -26.97216068 74.01021957 -38.15234375 81.4140625 C-40.63423607 83.0593126 -43.11560908 84.7053271 -45.59573364 86.35324097 C-47.23773089 87.44334959 -48.88133501 88.53104193 -50.52658081 89.61624146 C-54.82974437 92.4655621 -59.07243285 95.37533881 -63.26025391 98.39208984 C-64.5507238 99.31075081 -64.5507238 99.31075081 -65.86726379 100.24797058 C-67.51511619 101.42527563 -69.15252851 102.61737134 -70.77763367 103.82588196 C-76.25711094 107.71882038 -76.25711094 107.71882038 -79.68945312 107.15014648 C-80.44033203 106.63911377 -81.19121094 106.12808105 -81.96484375 105.6015625 C-82.74496826 105.12638184 -83.52509277 104.65120117 -84.32885742 104.16162109 C-85.62400269 103.27724365 -85.62400269 103.27724365 -86.9453125 102.375 C-88.52578369 101.30330566 -88.52578369 101.30330566 -90.13818359 100.20996094 C-90.73725525 99.80112671 -91.3363269 99.39229248 -91.95355225 98.97106934 C-95.06809929 96.85034568 -98.1952716 94.74842383 -101.32058716 92.64361572 C-106.92370594 88.8691195 -112.52176453 85.08711672 -118.12084961 81.30664062 C-127.79502732 74.77529633 -137.47287438 68.25065007 -147.19198608 61.78631592 C-151.2917351 59.0572156 -155.36126681 56.29169475 -159.40234375 53.4765625 C-160.47355469 52.73148437 -161.54476563 51.98640625 -162.6484375 51.21875 C-163.41285156 50.68507813 -164.17726563 50.15140625 -164.96484375 49.6015625 C-163.79507393 46.09225303 -163.0496704 45.71409586 -160.03442383 43.75756836 C-159.19877396 43.20947006 -158.36312408 42.66137177 -157.50215149 42.09666443 C-156.58878525 41.50917923 -155.67541901 40.92169403 -154.734375 40.31640625 C-153.7923674 39.70068253 -152.8503598 39.0849588 -151.87980652 38.45057678 C-148.85062196 36.47232074 -145.81442625 34.50516747 -142.77734375 32.5390625 C-138.82278284 29.96903057 -134.87144667 27.39409802 -130.921875 24.81640625 C-129.96358292 24.19210724 -129.00529083 23.56780823 -128.01795959 22.92459106 C-122.04512437 19.01666072 -116.20142738 14.97458966 -110.42953491 10.77738953 C-106.08252516 7.63421287 -101.62903269 4.87999657 -96.90234375 2.3515625 C-96.14123291 1.9388208 -95.38012207 1.5260791 -94.59594727 1.10083008 C-64.05686895 -15.30222757 -29.59890372 -22.43389364 0 0 Z " fill="#703CBC" transform="translate(639.96484375,300.3984375)"/>
<path d="M0 0 C1.60681641 0.08894531 1.60681641 0.08894531 3.24609375 0.1796875 C18.51817928 1.87888833 32.35895413 11.60432921 42.3359375 22.75390625 C46.90350711 28.91905302 46.92324212 35.59742808 46 43 C42.24991152 54.54970215 34.05860214 62.79988033 24.69921875 70.12890625 C24.09373703 70.6033316 23.48825531 71.07775696 22.86442566 71.56655884 C15.76900193 77.05047917 8.31034387 81.96463884 0.8125 86.875 C-2.09412342 88.78652639 -4.9986734 90.7011788 -7.90234375 92.6171875 C-8.6058194 93.08066589 -9.30929504 93.54414429 -10.03408813 94.02166748 C-14.14141743 96.73749376 -18.18814578 99.51574879 -22.19140625 102.3828125 C-23.06579346 103.00559082 -23.94018066 103.62836914 -24.84106445 104.27001953 C-26.39875533 105.38867744 -27.94632982 106.52161877 -29.48120117 107.67138672 C-31.515625 109.125 -31.515625 109.125 -35 111 C-39.54475927 109.82893089 -43.18345022 106.96207346 -46.96484375 104.28515625 C-48.39762123 103.28568361 -49.83108916 102.28720025 -51.26513672 101.28955078 C-52.0300946 100.75630188 -52.79505249 100.22305298 -53.58319092 99.67364502 C-57.84401666 96.72301485 -62.14345044 93.82975206 -66.44140625 90.93359375 C-67.34660004 90.32311188 -68.25179382 89.71263 -69.18441772 89.08364868 C-71.04093689 87.83188629 -72.89767887 86.58045433 -74.75463867 85.3293457 C-77.56291695 83.43721908 -80.3703826 81.54389155 -83.17773438 79.65039062 C-84.09404633 79.03289948 -85.01035828 78.41540833 -85.95443726 77.77920532 C-87.76118306 76.56086819 -89.56689012 75.34098904 -91.37149048 74.11947632 C-95.44436801 71.36757825 -99.52882038 68.64606507 -103.67919922 66.01220703 C-104.74133888 65.33074364 -104.74133888 65.33074364 -105.82493591 64.63551331 C-107.12844308 63.80235813 -108.43917354 62.98035277 -109.75819397 62.17198181 C-111.47241211 61.07055664 -111.47241211 61.07055664 -114 59 C-114 57.68 -114 56.36 -114 55 C-112.12426758 53.36694336 -112.12426758 53.36694336 -109.33203125 51.65234375 C-108.2332666 50.95608887 -107.13450195 50.25983398 -106.00244141 49.54248047 C-105.37194885 49.14583191 -104.7414563 48.74918335 -104.09185791 48.34051514 C-99.98711658 45.7100937 -95.97751981 42.93680305 -91.94921875 40.19140625 C-90.09737865 38.9362978 -88.24515787 37.68175084 -86.39257812 36.42773438 C-83.54167469 34.49704533 -80.69155433 32.56525591 -77.84399414 30.62963867 C-30.05787886 -1.84279537 -30.05787886 -1.84279537 0 0 Z " fill="#7743C3" transform="translate(483,220)"/>
</svg>
