<?xml version="1.0" encoding="UTF-8"?>
<svg version="1.1" xmlns="http://www.w3.org/2000/svg" width="512" height="512">
<path d="M0 0 C1.21648566 -0.00644889 2.43297132 -0.01289778 3.68632019 -0.0195421 C5.03814477 -0.01659975 6.38996894 -0.01346431 7.74179268 -0.01015663 C9.17640171 -0.01389226 10.6110087 -0.01849343 12.04561245 -0.02388728 C15.99276234 -0.03614351 19.93982763 -0.03585374 23.88699222 -0.03349853 C28.14203183 -0.03309102 32.39704408 -0.04412311 36.652071 -0.05361366 C44.9901953 -0.07023881 53.32829133 -0.07572388 61.66643082 -0.07683842 C68.44260458 -0.07778814 75.218769 -0.08189462 81.9949398 -0.08823967 C101.19837786 -0.1058559 120.40179354 -0.1150779 139.60523973 -0.11357872 C141.1586945 -0.11345885 141.1586945 -0.11345885 142.74353218 -0.11333656 C143.78043025 -0.1132548 144.81732832 -0.11317304 145.88564755 -0.1130888 C162.69434714 -0.1122757 179.50295716 -0.13141835 196.31163083 -0.1596133 C213.56256214 -0.18832222 230.81344974 -0.2021547 248.06440556 -0.20042574 C257.75278322 -0.19976117 267.44106697 -0.20528288 277.12942314 -0.22678185 C285.37760896 -0.24496743 293.6256583 -0.24936259 301.87385546 -0.235763 C306.08322601 -0.22922015 310.29233454 -0.22916338 314.50168037 -0.2464695 C318.35457615 -0.26214741 322.207001 -0.25939121 326.05988492 -0.24190123 C327.4542122 -0.23881963 328.84857416 -0.24250732 330.24286054 -0.25362138 C343.40447913 -0.351592 343.40447913 -0.351592 348.08972359 4.25726891 C350.87136499 7.79269985 350.19668426 11.78221613 349.89294624 16.0454464 C349.84156816 16.86802102 349.79019009 17.69059565 349.7372551 18.53809679 C348.89575273 31.17283733 347.64661547 43.77907733 346.45202732 56.384341 C346.08381423 60.2789737 345.72015475 64.17403214 345.3558979 68.06903648 C344.64432194 75.67046637 343.92868021 83.27150806 343.21164846 90.87242503 C342.37562671 99.73660595 341.54391121 108.60118938 340.71239638 117.46579401 C339.22863709 133.28248229 337.74131905 149.09883382 336.25183296 164.91498375 C334.80820929 180.24420301 333.36665605 195.57361491 331.92761421 210.903265 C331.83883247 211.84902321 331.75005073 212.79478142 331.65857863 213.76919897 C331.3016599 217.57137431 330.94474696 221.37355019 330.58784378 225.17572699 C329.0475348 241.58445418 327.50552471 257.99302157 325.96329021 274.40156788 C325.71418328 277.05208034 325.46511618 279.70259654 325.21605873 282.35311365 C324.34439807 291.62909981 323.47222014 300.90503691 322.59861803 310.18084045 C322.23762328 314.01385748 321.87685117 317.84689507 321.51673317 321.67999458 C321.12605489 325.83820759 320.73417412 329.99630639 320.34216499 334.15439415 C320.22903151 335.36032176 320.11589802 336.56624936 319.99933624 337.80872023 C319.70178679 340.95881233 319.39614918 344.1080309 319.08972359 347.25726891 C319.0099919 348.14450437 318.93026021 349.03173983 318.8481124 349.94586122 C318.34545115 355.1501571 317.65262574 358.29648472 314.08972359 362.25726891 C311.11714363 363.84287071 311.11714363 363.84287071 307.47180367 365.07611656 C306.78302793 365.31552279 306.09425219 365.55492901 305.38460445 365.80158997 C303.82468301 366.34025804 302.26131888 366.8690232 300.6952877 367.38966179 C297.89800551 368.32110766 295.1115891 369.28111022 292.32541084 370.24524498 C285.55301212 372.58031483 278.76603339 374.87118212 271.97644234 377.15570641 C270.74713305 377.56944134 269.51782375 377.98317627 268.25126266 378.40944862 C263.08651615 380.14695185 257.92116584 381.88264222 252.75429249 383.61381149 C245.41446536 386.07316971 238.07860354 388.54367961 230.74763077 391.02931154 C224.92285786 393.00309792 219.09209653 394.95862672 213.25910568 396.90798378 C210.79617026 397.73403897 208.33510981 398.56570753 205.87604523 399.40321541 C202.4388574 400.57250554 198.99527223 401.72068009 195.54944038 402.8642025 C194.04749123 403.38305519 194.04749123 403.38305519 192.51519966 403.91238976 C180.25619679 407.92134749 170.62000869 406.0182654 158.44201851 402.46527672 C157.0022172 402.05676615 155.56206135 401.64950349 154.12158394 401.24338341 C150.23994923 400.1449392 146.3637157 399.0284887 142.48840308 397.90797329 C138.41928523 396.73415801 134.34591496 395.57527204 130.27314949 394.41419029 C123.4405943 392.46382323 116.61146231 390.50182786 109.78430367 388.53265953 C101.90127382 386.25908514 94.01329154 384.00341213 86.12238234 381.75735021 C78.51255381 379.59090844 70.90620214 377.41250081 63.3014183 375.22842216 C60.07257946 374.30129029 56.84262047 373.37822173 53.61168671 372.45841789 C49.80766936 371.37482892 46.00682803 370.2807318 42.20815468 369.17856026 C40.81685511 368.77666775 39.42452534 368.37832143 38.03110123 367.98385811 C36.12390268 367.44329348 34.22079889 366.88834447 32.31791878 366.33276939 C30.7216026 365.87371649 30.7216026 365.87371649 29.09303761 365.40538979 C24.98821169 363.83617781 21.33484735 362.02914831 18.76099014 358.36640835 C17.92237897 355.73146714 17.6069731 353.26664557 17.34945869 350.51103783 C17.23524071 349.33104934 17.12102272 348.15106085 17.00334358 346.93531513 C16.88602379 345.63769025 16.76870399 344.34006536 16.64782906 343.00311852 C16.51622783 341.61145718 16.38391921 340.21986259 16.25096321 338.82833004 C15.88725894 335.00011416 15.53361394 331.1710249 15.18156004 327.34172249 C14.80011253 323.2120694 14.40933814 319.08329797 14.01968575 314.95441246 C13.25730035 306.86040506 12.50340656 298.76562807 11.7522918 290.67056787 C10.8770324 281.24126586 9.99330794 271.81276334 9.10897207 262.38430893 C7.6245684 246.55644382 6.14576273 230.72806241 4.67048502 214.89934433 C2.57099247 192.37504707 0.45348414 169.8524802 -1.67159688 147.33058399 C-2.88256179 134.49586097 -4.09049262 121.66085232 -5.29801178 108.82580471 C-5.47815154 106.91112369 -5.65829361 104.99644289 -5.83843803 103.08176231 C-5.92708087 102.13958278 -6.0157237 101.19740325 -6.10705268 100.22667283 C-6.73176947 93.58799265 -7.35793496 86.94944998 -7.9845562 80.31094933 C-8.74866344 72.21506306 -9.50999869 64.11892142 -10.26791036 56.02245271 C-10.65479164 51.89026228 -11.04287197 47.75819395 -11.4342289 43.62642479 C-11.79273239 39.84119848 -12.14777925 36.05566427 -12.50009894 32.26985753 C-12.68849706 30.25502599 -12.88054816 28.24053706 -13.07273865 26.22606373 C-14.60985694 9.60645992 -14.60985694 9.60645992 -12.16027641 4.88226891 C-8.45214283 0.55611306 -5.60712425 0.00750648 0 0 Z " fill="#2196F3" transform="translate(87.91027641296387,105.74273109436035)"/>
<path d="M0 0 C1.21616355 0.00129972 1.21616355 0.00129972 2.45689607 0.0026257 C3.73920495 -0.00183098 3.73920495 -0.00183098 5.04741907 -0.0063777 C7.93475525 -0.01510431 10.82205016 -0.01657628 13.70939851 -0.01806521 C15.77037354 -0.02269064 17.83134771 -0.02771493 19.89232087 -0.03311038 C25.50812043 -0.04626417 31.12390802 -0.05268529 36.73972058 -0.05712104 C40.24524242 -0.06004738 43.75076096 -0.06415137 47.25628114 -0.06862521 C58.21532378 -0.08230888 69.17435891 -0.0919709 80.1334095 -0.0958271 C92.80017012 -0.10030813 105.46682284 -0.11785452 118.13355064 -0.1468277 C127.91276348 -0.16842235 137.69194591 -0.17853022 147.47118235 -0.17986822 C153.31704576 -0.18091797 159.16280786 -0.18686171 165.00864625 -0.20468783 C170.50792717 -0.22112988 176.00703022 -0.22334282 181.50632691 -0.21454883 C183.52637925 -0.21377634 185.546441 -0.21814893 187.56646943 -0.22800708 C190.32149967 -0.24066492 193.07589416 -0.23488334 195.8309195 -0.22442508 C196.63277232 -0.23248148 197.43462513 -0.24053789 198.26077652 -0.24883842 C202.81826482 -0.20829976 205.7985202 0.27584906 209.39787507 3.1430676 C214.92247636 11.42996953 210.59621116 27.08544909 209.51774812 36.68383908 C209.31519429 38.5296319 209.11318299 40.37548433 208.91166902 42.22139096 C208.36619677 47.20091421 207.81230654 52.17946541 207.25615883 57.1578064 C206.79173152 61.3205927 206.33103948 65.48378933 205.87019402 69.64697343 C204.78325531 79.46400549 203.68900667 89.28020447 202.59050202 99.09594846 C201.45783248 109.21841628 200.33905281 119.34235399 199.22676462 129.46707982 C198.26974726 138.17317906 197.30344791 146.87821494 196.32983261 155.58247358 C195.74906821 160.77584561 195.17200805 165.9695632 194.60417962 171.16436696 C194.07067165 176.04200842 193.52562284 180.91822259 192.97162843 185.79357839 C192.7703248 187.5825698 192.57314067 189.37203026 192.38037515 191.16196179 C192.11667569 193.60449315 191.83817312 196.04489555 191.55587983 198.4853375 C191.44642275 199.54846045 191.44642275 199.54846045 191.33475441 200.63306063 C190.83331551 204.7994413 189.91499999 207.76617355 187.39787507 211.1430676 C185.23410249 212.34773374 185.23410249 212.34773374 182.66227937 213.17358518 C181.67907716 213.49541776 180.69587495 213.81725034 179.68287873 214.14883542 C178.59882752 214.47693204 177.51477632 214.80502866 176.39787507 215.1430676 C175.2499347 215.49573697 174.10199433 215.84840634 172.91926789 216.21176267 C169.00975664 217.38792605 165.09097132 218.52667629 161.16740632 219.65478635 C159.72251096 220.07250037 158.2776622 220.49037562 156.83285737 220.90840268 C153.82573727 221.77741187 150.81778588 222.64346819 147.80925202 223.50756955 C143.97117285 224.61034505 140.1357678 225.72212643 136.30098653 226.83630776 C133.3260697 227.69928138 130.34956305 228.55666462 127.37258172 229.41248631 C125.9579765 229.82003094 124.54391182 230.22945704 123.13042855 230.64087605 C111.41016008 234.04791369 103.44531337 235.99349659 91.59709382 232.18603635 C89.45480595 231.52879621 87.31204623 230.87309253 85.16887116 230.21875119 C84.05816255 229.87535703 82.94745393 229.53196286 81.80308747 229.17816281 C76.17894832 227.46857209 70.51615678 225.90018586 64.85490632 224.31884885 C62.58576671 223.67718737 60.31688655 223.03460763 58.0482657 222.39111447 C54.5916928 221.4108553 51.13428023 220.43434172 47.67350984 219.46899533 C44.25159015 218.51328562 40.83424064 217.54255991 37.41740632 216.56884885 C36.38106553 216.28334668 35.34472474 215.99784451 34.27697968 215.70369077 C24.88475812 212.99870071 24.88475812 212.99870071 21.39787507 209.1430676 C20.18400788 206.47998166 20.18400788 206.47998166 19.35100007 203.4086926 C19.03066804 202.25562619 18.71033601 201.10255979 18.38029695 199.91455197 C18.05609773 198.66996213 17.73189851 197.42537229 17.39787507 196.1430676 C17.04532239 194.83877047 16.69178976 193.53473788 16.3373282 192.23095822 C15.41984652 188.82319875 14.54087743 185.40686187 13.67814851 181.98486447 C13.14421824 179.87864231 12.59530038 177.77665814 12.04631257 175.6743176 C7.62133998 158.39909653 7.62133998 158.39909653 10.61271882 152.9165051 C14.05034433 150.12587033 16.50293815 148.69621942 21.02287507 148.8930676 C24.99771918 149.32355613 26.75048542 151.27749707 29.21058869 154.32415891 C31.27701624 157.48990148 32.00186459 160.87964671 32.81975007 164.5336926 C33.10522706 165.71242948 33.10522706 165.71242948 33.39647126 166.91497922 C33.99605139 169.40422398 34.57259702 171.89810645 35.14787507 174.3930676 C35.74239454 176.90091126 36.3415415 179.40760514 36.94212556 181.91400266 C37.31290878 183.46877729 37.67923325 185.02462344 38.0406363 186.5816052 C38.9189661 190.46465245 38.9189661 190.46465245 40.39787507 194.1430676 C42.90538909 195.02379179 45.37298075 195.78615498 47.92912507 196.49853635 C48.70402787 196.72131253 49.47893067 196.94408872 50.27731538 197.17361569 C52.8152072 197.90094653 55.35621489 198.61652528 57.89787507 199.3305676 C59.63926764 199.82329613 61.3805597 200.31637998 63.12175202 200.80981565 C65.73930156 201.55136545 68.35705492 202.29210994 70.97583222 203.02931333 C76.03662569 204.45743077 81.0727549 205.9431651 86.09709382 207.4946301 C87.21084382 207.83083371 88.32459382 208.16703732 89.47209382 208.51342893 C91.47641807 209.11997592 93.47571562 209.74352581 95.46818757 210.38794065 C105.7794488 213.44008137 114.65846223 210.23824434 124.58537507 207.0805676 C134.4042318 203.99177123 144.28610295 201.16506859 154.19865632 198.39697385 C155.68197383 197.98147127 157.16525044 197.56582267 158.64848542 197.15002561 C162.23114718 196.14602871 165.81435213 195.14398697 169.39787507 194.1430676 C169.50840714 193.12686841 169.61893922 192.11066922 169.73282075 191.06367612 C170.77501575 181.48476519 171.819568 171.90611385 172.86642575 162.32771134 C173.40454281 157.40341735 173.94183036 152.4790358 174.47722077 147.55444455 C174.99397663 142.80154067 175.51291329 138.0488795 176.03335977 133.29637837 C176.2314899 131.48359955 176.42883545 129.67073479 176.62538171 127.85778356 C176.90090086 125.3176362 177.17921341 122.77780928 177.4581778 120.2380383 C177.53873918 119.48925412 177.61930055 118.74046994 177.70230317 117.96899533 C178.10686591 114.31263278 178.64997292 110.74321239 179.39787507 107.1430676 C178.51181014 107.14675477 177.62574521 107.15044194 176.71282983 107.15424085 C155.15510745 107.24256976 133.59741625 107.30876647 112.03955102 107.35031629 C101.61432992 107.37094343 91.18922959 107.39906701 80.76408601 107.44482541 C71.67775895 107.48468843 62.59151936 107.5104993 53.50510728 107.51942158 C48.69367807 107.52463722 43.88249909 107.53689911 39.07115006 107.56598783 C34.54199717 107.59314843 30.01319748 107.60151128 25.48397088 107.59549832 C23.82231246 107.59659827 22.16064216 107.60454841 20.49905419 107.6198895 C18.22798745 107.6398283 15.95824948 107.63499367 13.68715119 107.62408566 C11.7818051 107.62961642 11.7818051 107.62961642 9.83796716 107.63525891 C5.21089818 106.97324083 1.86897806 105.08224881 -0.97712493 101.3305676 C-1.90390726 98.08682945 -1.95553389 95.50045268 -1.60212493 92.1430676 C0.58625978 88.62602074 2.54552313 86.60969554 6.39787507 85.1430676 C9.63872361 84.89697194 9.63872361 84.89697194 13.56053376 84.90255857 C14.64371813 84.89999529 14.64371813 84.89999529 15.74878502 84.89738023 C18.16869981 84.89408574 20.58833738 84.90508825 23.00822663 84.91601682 C24.74278467 84.91658094 26.47734319 84.91626435 28.21190095 84.91513181 C32.92229941 84.91455734 37.63259627 84.92632693 42.34297109 84.94027972 C47.26505544 84.95277134 52.18714206 84.95395634 57.10923982 84.95633054 C66.43061169 84.96254992 75.75193673 84.97896694 85.07328796 84.99902952 C95.68502232 85.02137426 106.2967589 85.03237836 116.90851092 85.04242039 C138.73832513 85.06333276 160.56809715 85.09851765 182.39787507 85.1430676 C182.39291835 84.54881891 182.38796163 83.95457023 182.3828547 83.342314 C182.36328797 79.32163521 182.35728388 75.36359859 182.82512116 71.36450315 C182.91876954 70.54302289 183.01241792 69.72154263 183.10890412 68.87516904 C183.21199891 68.01869275 183.3150937 67.16221646 183.42131257 66.27978635 C183.52754945 65.36655103 183.63378633 64.45331571 183.7432425 63.51240659 C183.96777568 61.59188445 184.19481203 59.67165345 184.42424226 57.75171018 C184.77059762 54.84965004 185.10831534 51.94668337 185.44475007 49.04345822 C185.66559159 47.16384063 185.88692983 45.28428131 186.10881257 43.40478635 C186.25738206 42.12918096 186.25738206 42.12918096 186.40895295 40.82780576 C186.97328648 36.13633199 187.65512215 31.48003239 188.44075227 26.82014585 C188.70990417 25.21945359 188.70990417 25.21945359 188.98449349 23.58642411 C189.12090941 22.78011646 189.25732533 21.97380881 189.39787507 21.1430676 C188.39750624 21.14675477 187.3971374 21.15044194 186.36645436 21.15424085 C162.03847427 21.24299276 137.71051515 21.30874859 113.38240743 21.35031629 C101.61756667 21.37095181 89.85283278 21.39909142 78.08806062 21.44482541 C67.83528763 21.48466275 57.58259203 21.5104932 47.3297438 21.51942158 C41.89964187 21.52464156 36.46976136 21.53693115 31.03973031 21.56598783 C25.93030259 21.59310778 20.82118781 21.60151947 15.71169496 21.59549832 C13.83514861 21.59660009 11.95859196 21.60457425 10.08210778 21.6198895 C7.52171986 21.63976408 4.96251655 21.63501636 2.40210176 21.62408566 C1.28584569 21.64156271 1.28584569 21.64156271 0.147039 21.65939283 C-4.7239713 21.60310628 -7.16446783 20.57667714 -10.60212493 17.1430676 C-12.63852726 14.45871907 -12.60206825 13.13995021 -12.53962493 9.7055676 C-11.43556487 5.51013938 -9.86486924 3.91640026 -6.60212493 1.1430676 C-4.81137592 -0.64768141 -2.38521929 0.01254342 0 0 Z " fill="#F7F8F9" transform="translate(161.6021249294281,191.8569324016571)"/>
<path d="M0 0 C1.5672155 -0.02409439 1.5672155 -0.02409439 3.16609192 -0.04867554 C7.94649661 -0.09306697 12.72676171 -0.13418771 17.50732422 -0.15722656 C20.03020446 -0.17379347 22.55303764 -0.20109274 25.07568359 -0.23925781 C28.70915124 -0.2939608 32.34151808 -0.3158914 35.9753418 -0.33056641 C37.10257156 -0.35323578 38.22980133 -0.37590515 39.39118958 -0.39926147 C47.22387958 -0.37808709 47.22387958 -0.37808709 51.18481445 2.58520508 C53.84316618 6.43156851 54.41074692 9.56491224 53.98706055 14.19287109 C51.97469069 18.29214302 50.2632031 20.6284287 45.98706055 22.19287109 C43.07630528 22.57105031 40.16853816 22.70119537 37.23706055 22.81787109 C36.44428711 22.85654297 35.65151367 22.89521484 34.8347168 22.93505859 C32.88586638 23.0289791 30.93649604 23.11199932 28.98706055 23.19287109 C29.6733252 23.86866211 30.35958984 24.54445313 31.06665039 25.24072266 C33.61748598 27.7552899 36.16164108 30.27652619 38.70385742 32.79980469 C39.80394032 33.88984561 40.90581366 34.97808274 42.00952148 36.06445312 C43.59795521 37.62855949 45.17978395 39.19909318 46.76049805 40.77099609 C47.2532724 41.25344788 47.74604675 41.73589966 48.25375366 42.23297119 C51.34993278 45.32813426 53.82697683 47.89833775 54.1394043 52.37646484 C54.06850586 53.12025391 53.99760742 53.86404297 53.92456055 54.63037109 C53.87170898 55.37158203 53.81885742 56.11279297 53.7644043 56.87646484 C52.54206993 60.51889841 51.08686089 61.86796163 47.98706055 64.19287109 C44.02331665 64.95160002 40.1065414 64.89338409 36.08081055 64.85693359 C34.92335327 64.86171722 33.765896 64.86650085 32.57336426 64.87142944 C30.12905517 64.87482809 27.6847006 64.86562834 25.24047852 64.84472656 C21.50002646 64.81796386 17.76257555 64.84447914 14.0222168 64.87646484 C11.64590809 64.87316074 9.26960125 64.86675451 6.89331055 64.85693359 C5.21658264 64.87211533 5.21658264 64.87211533 3.50598145 64.88760376 C-4.25235683 64.77054503 -4.25235683 64.77054503 -8.19458008 61.77636719 C-11.11513668 57.62688679 -11.71818799 54.22622025 -11.01293945 49.19287109 C-8.84516826 45.63153271 -6.88698326 43.65192655 -3.01293945 42.19287109 C-0.10171707 41.81208142 2.80486009 41.68500368 5.73706055 41.56787109 C7.20876794 41.50158899 8.68044596 41.43465237 10.15209961 41.3671875 C11.41763672 41.30966309 12.68317383 41.25213867 13.98706055 41.19287109 C13.26526611 40.47631348 12.54347168 39.75975586 11.79980469 39.02148438 C9.12670651 36.36646387 6.45690084 33.70815357 3.78808594 31.04882812 C2.63175809 29.89753415 1.47453501 28.7471386 0.31640625 27.59765625 C-1.34651156 25.94684534 -3.00620056 24.29284772 -4.6652832 22.63818359 C-5.44499733 21.8662114 -5.44499733 21.8662114 -6.24046326 21.0786438 C-9.63646801 17.68317296 -10.91920239 16.31771582 -11.32543945 11.44287109 C-11.28560509 7.0690576 -9.81921197 4.5769056 -7.01293945 1.19287109 C-4.52010171 -0.05354778 -2.78953132 0.03890874 0 0 Z " fill="#36474E" transform="translate(320.012939453125,-0.19287109375)"/>
<path d="M0 0 C1.53718437 -0.01925285 1.53718437 -0.01925285 3.10542297 -0.03889465 C4.21685165 -0.04628159 5.32828033 -0.05366852 6.47338867 -0.0612793 C7.61289474 -0.06935104 8.75240082 -0.07742279 9.92643738 -0.08573914 C12.34156773 -0.09958792 14.75671772 -0.1103065 17.171875 -0.11816406 C20.86585567 -0.1353792 24.55894214 -0.17925999 28.25268555 -0.22338867 C30.59708 -0.2335151 32.94148206 -0.24203136 35.28588867 -0.2487793 C36.39124466 -0.26628738 37.49660065 -0.28379547 38.63545227 -0.30183411 C46.28637566 -0.28019197 46.28637566 -0.28019197 50.22607422 1.99267578 C52.75236278 4.97102652 53.48159904 7.32800349 54.07885742 11.17700195 C53.19352255 15.69220981 51.63308391 18.26899846 48.07885742 21.17700195 C44.36606274 22.41460018 40.76579397 22.53309092 36.89135742 22.73950195 C36.14176758 22.78268555 35.39217773 22.82586914 34.61987305 22.87036133 C32.77307367 22.97622881 30.92598908 23.07709955 29.07885742 23.17700195 C29.7348291 23.82773682 30.39080078 24.47847168 31.06665039 25.14892578 C33.50259009 27.56780829 35.9362509 29.98893776 38.3684082 32.41162109 C39.42089029 33.45907902 40.47426877 34.50563706 41.52856445 35.55126953 C43.04510092 37.05565655 44.55836882 38.56326582 46.07104492 40.0715332 C46.98225098 40.97750244 47.89345703 41.88347168 48.83227539 42.81689453 C52.32875455 46.4900595 53.78688821 49.1162023 54.07885742 54.17700195 C52.58321783 58.82135646 51.28670551 61.66537585 47.07885742 64.17700195 C44.65736389 64.56468201 44.65736389 64.56468201 41.93066406 64.58105469 C40.90602554 64.59373886 39.88138702 64.60642303 38.82569885 64.61949158 C37.72459274 64.61655594 36.62348663 64.6136203 35.48901367 64.6105957 C34.35233749 64.61583755 33.21566132 64.62107941 32.04454041 64.6264801 C29.64135556 64.63290184 27.23813928 64.63156138 24.83496094 64.62304688 C21.15852847 64.61454168 17.48365181 64.64329098 13.80737305 64.67504883 C11.47208705 64.67666103 9.13679831 64.67608294 6.80151367 64.6730957 C5.70243179 64.68432968 4.60334991 64.69556366 3.47096252 64.70713806 C-4.15516534 64.63753213 -4.15516534 64.63753213 -8.09130859 62.27099609 C-11.17864953 58.73795764 -11.31344316 56.07227459 -11.27661133 51.50512695 C-10.6726184 47.54930514 -8.81656453 45.87041772 -5.92114258 43.17700195 C-3.32856588 42.31280972 -1.5807655 42.00119263 1.09057617 41.8605957 C1.84790039 41.81870117 2.60522461 41.77680664 3.38549805 41.73364258 C4.17118164 41.69432617 4.95686523 41.65500977 5.76635742 41.61450195 C6.56364258 41.57131836 7.36092773 41.52813477 8.18237305 41.48364258 C10.14767189 41.37772827 12.11324239 41.27687645 14.07885742 41.17700195 C10.5314317 37.52980489 6.9352126 33.99858913 3.07885742 30.67700195 C-10.35464834 19.04332512 -10.35464834 19.04332512 -11.23364258 13.04418945 C-11.4517092 8.91455286 -11.27963673 6.7505926 -9.04614258 3.17700195 C-5.91282247 0.22799479 -4.20109319 0.04573551 0 0 Z " fill="#36464E" transform="translate(234.921142578125,-0.177001953125)"/>
<path d="M0 0 C1.0447348 -0.01591187 2.0894696 -0.03182373 3.16586304 -0.04821777 C4.29400421 -0.04841919 5.42214539 -0.04862061 6.58447266 -0.04882812 C8.32490341 -0.06024841 8.32490341 -0.06024841 10.10049438 -0.07189941 C12.55672044 -0.08271261 15.01299253 -0.0855486 17.46923828 -0.08105469 C21.22718139 -0.08008364 24.98307518 -0.12166888 28.74072266 -0.16601562 C31.12613506 -0.17122338 33.51155457 -0.17391081 35.89697266 -0.17382812 C37.02106537 -0.19022339 38.14515808 -0.20661865 39.30331421 -0.22351074 C47.1150086 -0.15434957 47.1150086 -0.15434957 51.05957031 2.83203125 C53.97153257 6.98637848 54.57881804 10.38632758 53.87353516 15.41992188 C51.71325095 18.96896022 49.74294001 20.97110729 45.87353516 22.41992188 C43.22641914 22.5880329 40.68921981 22.65297783 38.04541016 22.61523438 C37.29640442 22.61240448 36.54739868 22.60957458 35.7756958 22.60665894 C33.3914774 22.59549448 31.00763936 22.57039718 28.62353516 22.54492188 C27.00374893 22.53488723 25.38395679 22.52576222 23.76416016 22.51757812 C19.80035527 22.49727175 15.83736927 22.45811728 11.87353516 22.41992188 C11.87353516 29.01992188 11.87353516 35.61992188 11.87353516 42.41992188 C15.45068359 42.3503125 15.45068359 42.3503125 19.10009766 42.27929688 C21.42348098 42.24805419 23.74684043 42.22379344 26.0703125 42.20019531 C27.6784929 42.18014561 29.28660099 42.15289824 30.89453125 42.11816406 C33.21323536 42.06934924 35.53097141 42.04688759 37.85009766 42.02929688 C38.56283844 42.00865173 39.27557922 41.98800659 40.00991821 41.96673584 C45.11394126 41.96446896 47.95987567 43.19313767 51.87353516 46.41992188 C54.34136675 50.12166927 54.55426248 53.12485663 53.87353516 57.41992188 C50.87353516 62.91992188 50.87353516 62.91992188 47.87353516 64.41992188 C46.24126449 64.53545876 44.60444972 64.58944497 42.96826172 64.61279297 C41.94669983 64.6288559 40.92513794 64.64491882 39.87261963 64.66146851 C35.19356918 64.70589929 30.51466132 64.74699069 25.83544922 64.77001953 C23.36790533 64.78657369 20.90040928 64.81385621 18.43310547 64.85205078 C14.8765371 64.90683318 11.32109372 64.92869763 7.76416016 64.94335938 C6.1138681 64.97736343 6.1138681 64.97736343 4.43023682 65.01205444 C-4.12287454 64.9884832 -4.12287454 64.9884832 -7.80712891 62.07470703 C-10.84255689 58.6002603 -11.25100298 56.20603496 -11.28759766 51.75244141 C-11.30200897 50.33549484 -11.30200897 50.33549484 -11.31671143 48.8899231 C-11.3209613 47.87115082 -11.32521118 46.85237854 -11.32958984 45.80273438 C-11.33528992 44.75342743 -11.34098999 43.70412048 -11.34686279 42.62301636 C-11.35631171 40.4021709 -11.36284634 38.18131143 -11.36669922 35.96044922 C-11.37640692 32.56518075 -11.40743269 29.17051706 -11.43896484 25.77539062 C-11.4454948 23.61784214 -11.4507453 21.46028932 -11.45458984 19.30273438 C-11.46693665 18.28801056 -11.47928345 17.27328674 -11.49200439 16.22781372 C-11.46426792 7.43916864 -11.46426792 7.43916864 -8.12646484 3.41992188 C-7.70281647 2.8921817 -7.27916809 2.36444153 -6.84268188 1.82070923 C-4.50599322 -0.08651105 -2.99508147 0.02741493 0 0 Z " fill="#36474E" transform="translate(149.12646484375,-0.419921875)"/>
</svg>
