<?xml version="1.0" encoding="UTF-8"?>
<svg version="1.1" xmlns="http://www.w3.org/2000/svg" width="512" height="512">
<path d="M0 0 C1.45108658 0.00273422 1.45108658 0.00273422 2.93148804 0.00552368 C17.26440977 0.05095174 31.21023917 0.55983928 45.3125 3.3125 C46.65803955 3.55395752 46.65803955 3.55395752 48.03076172 3.80029297 C107.84088904 14.62287989 165.35495829 48.68064457 202.3125 97.3125 C202.72918945 97.85277832 203.14587891 98.39305664 203.57519531 98.94970703 C211.2584873 108.9447116 218.00092968 119.40459036 224.3125 130.3125 C224.70679199 130.98974121 225.10108398 131.66698242 225.50732422 132.36474609 C238.68961173 155.2833756 247.29510918 180.85822563 252.625 206.6875 C252.77243652 207.39817627 252.91987305 208.10885254 253.07177734 208.84106445 C256.06629595 224.53156964 256.72086894 240.25618826 256.6875 256.1875 C256.68668427 257.6625148 256.68668427 257.6625148 256.68585205 259.16732788 C256.57058322 304.6906775 244.86888848 350.59632388 220.3125 389.3125 C219.87325195 390.00504883 219.43400391 390.69759766 218.98144531 391.41113281 C209.33068475 406.48513729 198.73842929 420.41106052 186.3125 433.3125 C185.68037598 433.97185547 185.04825195 434.63121094 184.39697266 435.31054688 C175.25290932 444.79840451 165.97143212 453.56080721 155.3125 461.3125 C154.65282227 461.80057129 153.99314453 462.28864258 153.31347656 462.79150391 C143.39300193 470.11464323 133.23771919 476.59690505 122.3125 482.3125 C121.64331543 482.66296387 120.97413086 483.01342773 120.28466797 483.37451172 C96.46911135 495.74719251 71.74062322 504.49890608 45.3125 509.3125 C44.47686523 509.47621094 43.64123047 509.63992188 42.78027344 509.80859375 C15.05918188 515.1012992 -17.02559037 514.71190744 -44.6875 509.3125 C-45.58452637 509.15152832 -46.48155273 508.99055664 -47.40576172 508.82470703 C-99.88753288 499.32817935 -145.99044744 472.95594661 -183.5625 435.6875 C-184.44268799 434.81673828 -185.32287598 433.94597656 -186.22973633 433.04882812 C-191.81506212 427.43543537 -196.87764318 421.60035787 -201.6875 415.3125 C-202.17412109 414.68520996 -202.66074219 414.05791992 -203.16210938 413.41162109 C-210.77529221 403.51392279 -217.43698019 393.11489968 -223.6875 382.3125 C-224.08179199 381.63525879 -224.47608398 380.95801758 -224.88232422 380.26025391 C-239.82272847 354.28497538 -249.21535612 324.8747806 -253.6875 295.3125 C-253.86482666 294.18787354 -254.04215332 293.06324707 -254.22485352 291.90454102 C-255.87625708 280.35059556 -256.04420897 268.90784453 -256 257.25 C-255.99817719 256.25393738 -255.99635437 255.25787476 -255.99447632 254.23162842 C-255.94973255 239.71919713 -255.49219043 225.58940481 -252.6875 211.3125 C-252.52652832 210.41692383 -252.36555664 209.52134766 -252.19970703 208.59863281 C-241.37865541 148.78659535 -207.32070506 91.27106736 -158.6875 54.3125 C-158.14722168 53.89581055 -157.60694336 53.47912109 -157.05029297 53.04980469 C-147.0552884 45.3665127 -136.59540964 38.62407032 -125.6875 32.3125 C-125.01025879 31.91820801 -124.33301758 31.52391602 -123.63525391 31.11767578 C-100.7166244 17.93538827 -75.14177437 9.32989082 -49.3125 4 C-48.60182373 3.85256348 -47.89114746 3.70512695 -47.15893555 3.55322266 C-31.51641634 0.56786213 -15.88080394 -0.0623098 0 0 Z " fill="#6851C0" transform="translate(255.6875,-0.3125)"/>
<path d="M0 0 C21.09359743 0.23002833 42.97207902 12.06747015 59.7421875 24.02734375 C66.37132454 27.26322815 73.91575259 24.45628067 80.75 22.9375 C112.93065341 16.16400108 147.49756379 16.14078377 179.54736328 23.63549805 C189.19952833 26.05337092 189.19952833 26.05337092 198.3984375 23.1875 C199.85690075 22.24129791 201.30708997 21.28225466 202.75 20.3125 C218.34780711 10.33234941 237.2259309 0.058469 256.1875 0.25 C257.34894531 0.25902344 258.51039063 0.26804687 259.70703125 0.27734375 C260.58746094 0.28894531 261.46789062 0.30054687 262.375 0.3125 C270.68266354 18.61466231 273.86111264 42.61459384 267.48046875 62.03515625 C266.63260075 64.67064744 266.1586521 66.54504979 266.375 69.3125 C268.22420355 72.22499559 270.39735478 74.60490254 272.72265625 77.15234375 C286.56268856 92.84853282 291.81237314 116.92561959 291.625 137.25 C291.61750732 138.33756592 291.61001465 139.42513184 291.60229492 140.5456543 C291.13204743 176.4552243 282.11292331 207.52883888 256.34765625 233.34375 C234.9491788 253.24931042 205.04049972 258.55734889 177.375 263.3125 C177.375 266.20345638 178.82531708 267.39841889 180.5625 269.6875 C190.50090321 283.66966646 191.66192662 298.17548777 191.67996025 314.75690079 C191.68366658 317.49919743 191.70050536 320.241146 191.72071838 322.98336792 C191.77574308 330.77188635 191.80682641 338.56045281 191.83129883 346.34912109 C191.84723009 351.13408912 191.87749538 355.91880376 191.91606331 360.70363998 C191.92765142 362.51596248 191.93364311 364.32833031 191.93374443 366.14068985 C191.82174069 379.03227187 191.82174069 379.03227187 195.375 391.3125 C199.995 391.9725 204.615 392.6325 209.375 393.3125 C205.22764084 396.07740611 200.92029828 396.94922941 196.125 398.1875 C195.11026611 398.45071045 194.09553223 398.7139209 193.05004883 398.98510742 C175.86462109 403.32082585 158.33670071 406.42247365 140.58203125 406.515625 C139.68149017 406.52263931 138.7809491 406.52965363 137.8531189 406.53688049 C134.96452774 406.55427902 132.07614163 406.5607324 129.1875 406.5625 C128.20012848 406.56317474 127.21275696 406.56384949 126.19546509 406.56454468 C111.71714259 406.54881073 97.61632131 406.14729092 83.375 403.3125 C82.40353027 403.12494141 81.43206055 402.93738281 80.43115234 402.74414062 C69.22928757 400.54609254 58.18225724 398.02554999 47.375 394.3125 C47.375 393.9825 47.375 393.6525 47.375 393.3125 C48.03886719 393.28671875 48.70273438 393.2609375 49.38671875 393.234375 C53.58826866 392.96449442 56.6636197 392.71265142 60.375 390.625 C65.25240592 384.98549941 64.71067974 378.07066596 64.7890625 371.0078125 C64.80842865 369.92869598 64.8277948 368.84957947 64.8477478 367.73776245 C64.90733942 364.30442105 64.95384761 360.87104576 65 357.4375 C65.03819853 355.10415236 65.07725135 352.77081854 65.1171875 350.4375 C65.21302417 344.72928968 65.29813112 339.02099556 65.375 333.3125 C63.46340088 333.63190552 63.46340088 333.63190552 61.51318359 333.95776367 C59.80831201 334.23643332 58.10339414 334.51481992 56.3984375 334.79296875 C55.1443811 335.00367004 55.1443811 335.00367004 53.86499023 335.21862793 C32.67215068 338.64793991 11.24108644 335.71247501 -6.625 323.3125 C-14.70163397 316.64995683 -19.68621934 308.57898107 -23.9375 299.125 C-30.73090631 284.06862435 -39.32173389 272.62543058 -53.109375 263.26953125 C-55.78848996 261.18531294 -57.68378004 259.09084279 -59.625 256.3125 C-59.6875 254.125 -59.6875 254.125 -58.625 252.3125 C-54.17300769 249.4402469 -48.71582987 249.73878308 -43.625 250.3125 C-26.12752489 254.52906327 -15.21942154 266.30140199 -5.921875 280.82421875 C1.65374526 292.48227401 12.77132773 300.29103294 26.375 303.3125 C35.83862646 303.71224061 45.20108808 303.90478983 54.375 301.3125 C55.33277344 301.14878906 56.29054688 300.98507812 57.27734375 300.81640625 C60.55343113 300.05442535 62.68363122 299.34787572 65.375 297.3125 C66.93243112 293.70511681 67.73693142 290.11739865 68.4921875 286.28515625 C70.15947174 277.96279649 74.5874403 270.44050439 80.375 264.3125 C75.57801622 263.22070452 70.78300437 262.1852351 65.94921875 261.26953125 C41.65361959 256.60260325 17.89624129 249.48945765 -0.625 232.3125 C-1.82382813 231.21615234 -1.82382813 231.21615234 -3.046875 230.09765625 C-20.05588202 213.8591915 -28.53576378 192.05887649 -32.625 169.3125 C-32.934375 167.71535156 -32.934375 167.71535156 -33.25 166.0859375 C-38.25828834 135.82752877 -34.53881547 105.22237032 -17.625 79.3125 C-16.10617984 77.54263519 -14.56598979 75.79076852 -13 74.0625 C-10.30122505 70.89882844 -10.30122505 70.89882844 -9.5 66.96875 C-10.04437058 64.34896656 -10.82904489 61.86679231 -11.625 59.3125 C-15.30835574 39.24293346 -13.66705509 20.37757597 -6.625 1.3125 C-4.85062154 -0.46187846 -2.40898554 0.05568215 0 0 Z " fill="#FEFEFE" transform="translate(127.625,105.6875)"/>
</svg>
