<?xml version="1.0" encoding="UTF-8"?>
<svg version="1.1" xmlns="http://www.w3.org/2000/svg" width="512" height="512">
<path d="M0 0 C1.21648566 -0.00644889 2.43297132 -0.01289778 3.68632019 -0.0195421 C5.03814477 -0.01659975 6.38996894 -0.01346431 7.74179268 -0.01015663 C9.17640171 -0.01389226 10.6110087 -0.01849343 12.04561245 -0.02388728 C15.99276234 -0.03614351 19.93982763 -0.03585374 23.88699222 -0.03349853 C28.14203183 -0.03309102 32.39704408 -0.04412311 36.652071 -0.05361366 C44.9901953 -0.07023881 53.32829133 -0.07572388 61.66643082 -0.07683842 C68.44260458 -0.07778814 75.218769 -0.08189462 81.9949398 -0.08823967 C101.19837786 -0.1058559 120.40179354 -0.1150779 139.60523973 -0.11357872 C141.1586945 -0.11345885 141.1586945 -0.11345885 142.74353218 -0.11333656 C143.78043025 -0.1132548 144.81732832 -0.11317304 145.88564755 -0.1130888 C162.69434714 -0.1122757 179.50295716 -0.13141835 196.31163083 -0.1596133 C213.56256214 -0.18832222 230.81344974 -0.2021547 248.06440556 -0.20042574 C257.75278322 -0.19976117 267.44106697 -0.20528288 277.12942314 -0.22678185 C285.37760896 -0.24496743 293.6256583 -0.24936259 301.87385546 -0.235763 C306.08322601 -0.22922015 310.29233454 -0.22916338 314.50168037 -0.2464695 C318.35457615 -0.26214741 322.207001 -0.25939121 326.05988492 -0.24190123 C327.4542122 -0.23881963 328.84857416 -0.24250732 330.24286054 -0.25362138 C343.40447913 -0.351592 343.40447913 -0.351592 348.08972359 4.25726891 C350.87136499 7.79269985 350.19668426 11.78221613 349.89294624 16.0454464 C349.84156816 16.86802102 349.79019009 17.69059565 349.7372551 18.53809679 C348.89575273 31.17283733 347.64661547 43.77907733 346.45202732 56.384341 C346.08381423 60.2789737 345.72015475 64.17403214 345.3558979 68.06903648 C344.64432194 75.67046637 343.92868021 83.27150806 343.21164846 90.87242503 C342.37562671 99.73660595 341.54391121 108.60118938 340.71239638 117.46579401 C339.22863709 133.28248229 337.74131905 149.09883382 336.25183296 164.91498375 C334.80820929 180.24420301 333.36665605 195.57361491 331.92761421 210.903265 C331.83883247 211.84902321 331.75005073 212.79478142 331.65857863 213.76919897 C331.3016599 217.57137431 330.94474696 221.37355019 330.58784378 225.17572699 C329.0475348 241.58445418 327.50552471 257.99302157 325.96329021 274.40156788 C325.71418328 277.05208034 325.46511618 279.70259654 325.21605873 282.35311365 C324.34439807 291.62909981 323.47222014 300.90503691 322.59861803 310.18084045 C322.23762328 314.01385748 321.87685117 317.84689507 321.51673317 321.67999458 C321.12605489 325.83820759 320.73417412 329.99630639 320.34216499 334.15439415 C320.22903151 335.36032176 320.11589802 336.56624936 319.99933624 337.80872023 C319.70178679 340.95881233 319.39614918 344.1080309 319.08972359 347.25726891 C319.0099919 348.14450437 318.93026021 349.03173983 318.8481124 349.94586122 C318.34545115 355.1501571 317.65262574 358.29648472 314.08972359 362.25726891 C311.11714363 363.84287071 311.11714363 363.84287071 307.47180367 365.07611656 C306.78302793 365.31552279 306.09425219 365.55492901 305.38460445 365.80158997 C303.82468301 366.34025804 302.26131888 366.8690232 300.6952877 367.38966179 C297.89800551 368.32110766 295.1115891 369.28111022 292.32541084 370.24524498 C285.55301212 372.58031483 278.76603339 374.87118212 271.97644234 377.15570641 C270.74713305 377.56944134 269.51782375 377.98317627 268.25126266 378.40944862 C263.08651615 380.14695185 257.92116584 381.88264222 252.75429249 383.61381149 C245.41446536 386.07316971 238.07860354 388.54367961 230.74763077 391.02931154 C224.92285786 393.00309792 219.09209653 394.95862672 213.25910568 396.90798378 C210.79617026 397.73403897 208.33510981 398.56570753 205.87604523 399.40321541 C202.4388574 400.57250554 198.99527223 401.72068009 195.54944038 402.8642025 C194.04749123 403.38305519 194.04749123 403.38305519 192.51519966 403.91238976 C180.25619679 407.92134749 170.62000869 406.0182654 158.44201851 402.46527672 C157.0022172 402.05676615 155.56206135 401.64950349 154.12158394 401.24338341 C150.23994923 400.1449392 146.3637157 399.0284887 142.48840308 397.90797329 C138.41928523 396.73415801 134.34591496 395.57527204 130.27314949 394.41419029 C123.4405943 392.46382323 116.61146231 390.50182786 109.78430367 388.53265953 C101.90127382 386.25908514 94.01329154 384.00341213 86.12238234 381.75735021 C78.51255381 379.59090844 70.90620214 377.41250081 63.3014183 375.22842216 C60.07257946 374.30129029 56.84262047 373.37822173 53.61168671 372.45841789 C49.80766936 371.37482892 46.00682803 370.2807318 42.20815468 369.17856026 C40.81685511 368.77666775 39.42452534 368.37832143 38.03110123 367.98385811 C36.12390268 367.44329348 34.22079889 366.88834447 32.31791878 366.33276939 C30.7216026 365.87371649 30.7216026 365.87371649 29.09303761 365.40538979 C24.98821169 363.83617781 21.33484735 362.02914831 18.76099014 358.36640835 C17.92237897 355.73146714 17.6069731 353.26664557 17.34945869 350.51103783 C17.23524071 349.33104934 17.12102272 348.15106085 17.00334358 346.93531513 C16.88602379 345.63769025 16.76870399 344.34006536 16.64782906 343.00311852 C16.51622783 341.61145718 16.38391921 340.21986259 16.25096321 338.82833004 C15.88725894 335.00011416 15.53361394 331.1710249 15.18156004 327.34172249 C14.80011253 323.2120694 14.40933814 319.08329797 14.01968575 314.95441246 C13.25730035 306.86040506 12.50340656 298.76562807 11.7522918 290.67056787 C10.8770324 281.24126586 9.99330794 271.81276334 9.10897207 262.38430893 C7.6245684 246.55644382 6.14576273 230.72806241 4.67048502 214.89934433 C2.57099247 192.37504707 0.45348414 169.8524802 -1.67159688 147.33058399 C-2.88256179 134.49586097 -4.09049262 121.66085232 -5.29801178 108.82580471 C-5.47815154 106.91112369 -5.65829361 104.99644289 -5.83843803 103.08176231 C-5.92708087 102.13958278 -6.0157237 101.19740325 -6.10705268 100.22667283 C-6.73176947 93.58799265 -7.35793496 86.94944998 -7.9845562 80.31094933 C-8.74866344 72.21506306 -9.50999869 64.11892142 -10.26791036 56.02245271 C-10.65479164 51.89026228 -11.04287197 47.75819395 -11.4342289 43.62642479 C-11.79273239 39.84119848 -12.14777925 36.05566427 -12.50009894 32.26985753 C-12.68849706 30.25502599 -12.88054816 28.24053706 -13.07273865 26.22606373 C-14.60985694 9.60645992 -14.60985694 9.60645992 -12.16027641 4.88226891 C-8.45214283 0.55611306 -5.60712425 0.00750648 0 0 Z " fill="#FE5722" transform="translate(87.91027641296387,105.74273109436035)"/>
<path d="M0 0 C1.27768848 -0.00573832 1.27768848 -0.00573832 2.58118886 -0.01159257 C5.44621172 -0.02194245 8.31103492 -0.01792663 11.17607117 -0.01396179 C13.22586758 -0.01830723 15.27566236 -0.02348981 17.32545471 -0.02944946 C22.90196658 -0.04287039 28.47841081 -0.04341458 34.05493569 -0.04088616 C38.70706073 -0.03981832 43.35917198 -0.04469515 48.01129407 -0.04949158 C58.98631484 -0.06059796 69.96130139 -0.06101815 80.93632507 -0.05497742 C92.26354721 -0.04893871 103.59064509 -0.0612435 114.91784602 -0.08254749 C124.63682387 -0.10015558 134.35576215 -0.106166 144.07475537 -0.10290974 C149.88204809 -0.10109512 155.68925223 -0.10375074 161.49653053 -0.11762428 C166.95891772 -0.13018469 172.42111117 -0.12827536 177.88349533 -0.11521339 C179.88861214 -0.11284399 181.8937425 -0.11559529 183.89884377 -0.12383652 C186.63591322 -0.13427502 189.37232917 -0.12622648 192.109375 -0.11352539 C192.90305979 -0.12089968 193.69674457 -0.12827396 194.51448041 -0.13587171 C199.3040014 -0.08911019 202.60572911 0.59617938 206.74516296 3.26069641 C209.42422026 7.27928236 209.4412699 10.53711363 208.74516296 15.26069641 C206.95122629 18.1309951 205.7625302 19.75201279 202.74516296 21.26069641 C200.18827186 21.35628248 197.6587618 21.39084364 195.10169983 21.38095093 C193.90469749 21.38223256 193.90469749 21.38223256 192.68351328 21.38354009 C189.9948936 21.3851944 187.30633555 21.37967432 184.61772156 21.3742218 C182.69626873 21.37393989 180.7748158 21.37409774 178.85336304 21.37466431 C173.62430002 21.37495214 168.39525978 21.3690577 163.16620207 21.36209035 C157.70624627 21.35585445 152.24628999 21.35525282 146.78633118 21.35406494 C136.44138868 21.35095233 126.0964567 21.34273987 115.75151885 21.33271545 C103.97660722 21.32155216 92.2016951 21.31604332 80.42677951 21.31102002 C56.19956815 21.3005572 31.97236615 21.2829591 7.74516296 21.26069641 C7.88091736 22.24014221 8.01667175 23.21958801 8.15653992 24.22871399 C10.96640202 44.5467556 13.63022035 64.85663607 15.74516296 85.26069641 C16.5848443 85.25700924 17.42452564 85.25332207 18.28965187 85.24952316 C38.72077002 85.16118652 59.15185524 85.09499378 79.58312416 85.05344772 C89.46354149 85.03282234 99.34383135 85.00470215 109.22416687 84.9589386 C117.83585456 84.91907016 126.44744993 84.89326343 135.05922735 84.88434243 C139.61915158 84.8791277 144.17881169 84.86687167 148.73865128 84.83777618 C153.03142585 84.81060696 157.32382775 84.80225444 161.61668015 84.80826569 C163.19126155 84.80716612 164.76585555 84.79922103 166.34036255 84.78387451 C168.4932178 84.76392188 170.64467284 84.76877495 172.79756165 84.77967834 C174.00142328 84.77599117 175.20528492 84.772304 176.44562721 84.7685051 C180.4570523 85.36688885 182.60140977 86.7400666 185.74516296 89.26069641 C191.75391547 98.27382517 186.69929965 116.69213177 185.66313171 127.09663391 C185.44594509 129.30711719 185.22893242 131.51761757 185.01208496 133.72813416 C184.55809869 138.33951404 184.09927152 142.95038322 183.63749695 147.56098938 C183.04703988 153.46433522 182.47301245 159.36915426 181.9030714 165.27451134 C181.46079545 169.83066801 181.00772874 174.3857043 180.55161476 178.94049454 C180.3352999 181.11778327 180.12282879 183.29545751 179.91431236 185.47350693 C179.62205883 188.51368369 179.31477068 191.55198435 179.00370789 194.59028625 C178.87962555 195.93226074 178.87962555 195.93226074 178.7530365 197.30134583 C178.14784465 203.00815066 177.26423213 207.82880298 172.95677185 211.98719788 C170.17402994 213.58956879 167.40145095 214.6030183 164.35942078 215.63667297 C163.41221664 215.96160736 163.41221664 215.96160736 162.44587708 216.29310608 C160.36597873 217.00387712 158.28249832 217.70330389 156.19828796 218.40132141 C154.74337441 218.89249937 153.28852099 219.38385548 151.83372498 219.87538147 C148.78582013 220.90282029 145.73586678 221.923904 142.68461609 222.94136047 C138.78766987 224.24203455 134.89855383 225.56461109 131.01095963 226.89293289 C128.00856875 227.91483085 125.00127302 228.92163464 121.99243927 229.92438507 C120.55701917 230.40542991 119.12338207 230.89183132 117.69167328 231.38381195 C115.68219395 232.07252716 113.66670475 232.73971242 111.64848328 233.40229797 C110.50583008 233.78629761 109.36317688 234.17029724 108.18589783 234.56593323 C101.68213881 235.87919115 95.77478456 234.14450051 89.50639343 232.35884094 C88.83211304 232.16844238 88.15783264 231.97804382 87.46311951 231.78187561 C85.26113033 231.15833981 83.06170745 230.52626084 80.86235046 229.89350891 C79.3188397 229.45337325 77.77522832 229.01359034 76.23152161 228.57414246 C73.00789988 227.65499609 69.7855364 226.73159477 66.56401062 225.80513 C62.44633462 224.62131852 58.32569502 223.44822778 54.20405388 222.27830696 C51.02000379 221.37323574 47.83760055 220.46248241 44.65565872 219.55002975 C43.13719062 219.11532764 41.61822119 218.68237259 40.09873581 218.25123978 C37.97250355 217.64702972 35.84861314 217.03517882 33.72514343 216.42134094 C32.51905426 216.07572113 31.31296509 215.73010132 30.07032776 215.37400818 C20.36072001 212.12309545 20.36072001 212.12309545 17.74516296 207.26069641 C16.67275259 204.14237006 15.85284068 200.97621193 15.04594421 197.78022766 C14.68607674 196.38909004 14.68607674 196.38909004 14.31893921 194.96984863 C13.81438649 193.00832849 13.3145612 191.04558709 12.81913757 189.08174133 C12.06385267 186.0976516 11.28742945 183.11963703 10.50883484 180.14155579 C10.01991116 178.22977674 9.53224061 176.31767669 9.04594421 174.40522766 C8.6991436 173.08286858 8.6991436 173.08286858 8.34533691 171.73379517 C5.03212267 158.40035226 5.03212267 158.40035226 7.96000671 153.03413391 C11.39763222 150.24349914 13.85022604 148.81384824 18.37016296 149.01069641 C22.34500707 149.44118494 24.09777331 151.39512589 26.55787659 154.44178772 C28.62430414 157.60753029 29.34915248 160.99727552 30.16703796 164.65132141 C30.45251495 165.83005829 30.45251495 165.83005829 30.74375916 167.03260803 C31.34333928 169.52185279 31.91988491 172.01573526 32.49516296 174.51069641 C33.08968244 177.01854007 33.68882939 179.52523396 34.28941345 182.03163147 C34.66019667 183.58640611 35.02652114 185.14225225 35.38792419 186.69923401 C36.26625399 190.58228126 36.26625399 190.58228126 37.74516296 194.26069641 C40.34191495 195.27244981 40.34191495 195.27244981 43.56254578 196.15596008 C45.43018585 196.70113533 45.43018585 196.70113533 47.33555603 197.25732422 C48.70632344 197.64827375 50.07723788 198.03870809 51.44828796 198.42866516 C52.8474626 198.83139715 54.24652946 199.23450376 55.64549255 199.63796997 C58.58296696 200.48300815 61.52210796 201.32192707 64.46244812 202.15693665 C68.22677107 203.22670286 71.98585589 204.31371963 75.74377823 205.40572643 C78.63434535 206.24317324 81.52782631 207.0701624 84.42224884 207.89417458 C85.80909275 208.29059174 87.19493863 208.6905181 88.5797348 209.09403038 C90.52012783 209.65798938 92.4650929 210.20614457 94.41020203 210.75361633 C95.515271 211.0695726 96.62033997 211.38552887 97.75889587 211.71105957 C102.49200232 212.58221061 106.20140824 211.19257138 110.6714325 209.67842102 C111.62236786 209.35816452 112.57330322 209.03790802 113.55305481 208.70794678 C114.56777863 208.36312759 115.58250244 208.01830841 116.62797546 207.66304016 C118.78550448 206.93706016 120.94305728 206.21115082 123.10063171 205.48530579 C126.49615769 204.33892773 129.8911787 203.1910805 133.28569031 202.04170227 C136.56517929 200.93249821 139.84646498 199.82874662 143.12797546 198.72554016 C144.14674774 198.37869675 145.16552002 198.03185333 146.21516418 197.67449951 C147.15979523 197.35739517 148.10442627 197.04029083 149.0776825 196.71357727 C150.32414047 196.29174416 150.32414047 196.29174416 151.59577942 195.86138916 C153.74516296 195.26069641 153.74516296 195.26069641 156.74516296 195.26069641 C156.79845261 194.30654846 156.85174225 193.35240051 156.90664673 192.36933899 C157.49585156 182.20201965 158.36896663 172.08193903 159.37406921 161.94819641 C159.52982526 160.35683026 159.68533283 158.76543976 159.84060669 157.17402649 C160.24419905 153.04430628 160.65109883 148.91491887 161.0587616 144.78559875 C161.47646541 140.54833259 161.89093926 136.31075053 162.30570984 132.07319641 C163.11575467 123.802056 163.92930459 115.5312654 164.74516296 107.26069641 C163.92094282 107.26438358 163.09672268 107.26807076 162.24752617 107.27186966 C142.19194282 107.36020907 122.13639301 107.42640039 102.08065605 107.4679451 C92.38183988 107.48856986 82.68315359 107.51668883 72.98442078 107.56245422 C64.53094621 107.6023246 56.0775657 107.62812985 47.62399971 107.63705039 C43.14791033 107.6422648 38.67209003 107.65451872 34.19608688 107.68361664 C29.98210495 107.71078895 25.76850267 107.71913778 21.55444145 107.71312714 C20.00888569 107.71422657 18.46331709 107.72216985 16.91783714 107.73751831 C14.80438516 107.75747591 12.69235894 107.75261622 10.57887268 107.74171448 C9.39713408 107.74540165 8.21539547 107.74908882 6.9978466 107.75288773 C3.01671228 107.15046832 0.86938237 105.75905503 -2.25483704 103.26069641 C-4.60421712 99.73662629 -4.90834898 96.74959795 -5.38398743 92.65571594 C-5.48020889 91.88302368 -5.57643036 91.11033142 -5.67556763 90.31422424 C-5.99202844 87.75817757 -6.29721058 85.20091264 -6.60249329 82.64350891 C-6.82068974 80.86606252 -7.03964871 79.08870959 -7.25933838 77.31144714 C-7.83632895 72.62885377 -8.40403297 67.94518215 -8.96949768 63.26118469 C-9.87561309 55.77058825 -10.79687779 48.28183468 -11.71601677 40.79282761 C-12.03577567 38.17799847 -12.35230321 35.56279486 -12.66818237 32.94749451 C-12.86378374 31.33981448 -13.05941508 29.73213809 -13.25508118 28.12446594 C-13.38523621 27.03641159 -13.38523621 27.03641159 -13.51802063 25.92637634 C-13.95761108 22.33164144 -14.52589192 18.80673829 -15.25483704 15.26069641 C-15.77497414 9.53918824 -14.88876278 6.72523376 -11.25483704 2.26069641 C-7.45095274 -0.27522645 -4.40707472 -0.0208099 0 0 Z " fill="#FAF7F7" transform="translate(164.2548370361328,191.7393035888672)"/>
<path d="M0 0 C1.24716797 -0.04640625 1.24716797 -0.04640625 2.51953125 -0.09375 C9.86499632 1.54096551 14.03618769 9.00137279 18.125 14.75 C19.29954668 16.38109805 20.47532601 18.01130919 21.65234375 19.640625 C22.22710449 20.43791016 22.80186523 21.23519531 23.39404297 22.05664062 C26.24168997 25.93620109 29.20670831 29.72225069 32.1875 33.5 C36.83005794 29.19906425 40.38130174 24.31802035 44.0625 19.1875 C55.96982759 2.60883621 55.96982759 2.60883621 60.1875 0.5 C64.66360345 -0.0364289 68.13310061 -0.08328477 72.125 2.125 C76.79054152 7.49744176 76.49504288 13.7172195 76.48828125 20.46484375 C76.49256638 21.41637833 76.4968515 22.3679129 76.50126648 23.34828186 C76.50699238 25.35449429 76.50752291 27.36072747 76.50317383 29.36694336 C76.50001393 32.42402802 76.52349484 35.48014416 76.54882812 38.53710938 C76.55110141 40.49218629 76.55180448 42.44726578 76.55078125 44.40234375 C76.559991 45.30983871 76.56920074 46.21733368 76.57868958 47.15232849 C76.53347453 53.40249556 75.90055506 58.74746181 71.30859375 63.40625 C67.37835348 65.43289323 63.47593137 65.1950456 59.1875 64.5 C56.1875 62.75 56.1875 62.75 54.1875 59.5 C53.21073593 55.52575889 52.6220629 51.5667304 52.1875 47.5 C51.43984375 48.47582031 50.6921875 49.45164063 49.921875 50.45703125 C48.92735679 51.74239913 47.93254991 53.02754369 46.9375 54.3125 C46.44636719 54.95509766 45.95523438 55.59769531 45.44921875 56.25976562 C39.46740807 63.95636203 39.46740807 63.95636203 35.07421875 65.00390625 C30.88113179 65.1156226 27.97283066 64.84426469 24.625 62.1875 C20.16803801 57.84562388 16.6915147 52.61495133 13.1875 47.5 C13.08953125 48.23605469 12.9915625 48.97210938 12.890625 49.73046875 C11.38341207 59.56633243 11.38341207 59.56633243 7.1875 63.5 C3.47039437 65.35855282 -0.76527281 65.07908439 -4.8125 64.5 C-8.15875024 61.97323961 -9.49227847 60.46066458 -10.8125 56.5 C-10.91400269 54.94655893 -10.96084158 53.38922064 -10.97363281 51.83251953 C-10.98804413 50.41557297 -10.98804413 50.41557297 -11.00274658 48.97000122 C-11.00699646 47.95122894 -11.01124634 46.93245667 -11.015625 45.8828125 C-11.02132507 44.83350555 -11.02702515 43.78419861 -11.03289795 42.70309448 C-11.04234686 40.48224903 -11.0488815 38.26138956 -11.05273438 36.04052734 C-11.06244208 32.64525888 -11.09346784 29.25059518 -11.125 25.85546875 C-11.13152995 23.69792026 -11.13678045 21.54036744 -11.140625 19.3828125 C-11.1529718 18.36808868 -11.1653186 17.35336487 -11.17803955 16.30789185 C-11.15060857 7.61604658 -11.15060857 7.61604658 -7.8125 3.5 C-7.35488281 2.9121875 -6.89726562 2.324375 -6.42578125 1.71875 C-4.23504701 0.06376433 -2.72692701 0.03351062 0 0 Z " fill="#36464F" transform="translate(276.8125,-0.49999999999999994)"/>
<path d="M0 0 C3.34625024 2.52676039 4.67977847 4.03933542 6 8 C6.13501597 12.33671303 6.04296914 16.66011734 6 21 C12.6 21 19.2 21 26 21 C25.938125 18.958125 25.87625 16.91625 25.8125 14.8125 C25.63063277 8.81088128 26.76170053 5.88955609 30.3828125 1.21484375 C33.21929874 -0.91594664 36.13523345 -0.46230267 39.5546875 -0.34765625 C43.09024766 0.15500326 44.71290746 1.2840776 47 4 C49.32333141 9.30453839 49.30647665 14.28124814 49.30078125 19.96484375 C49.30506638 20.91637833 49.3093515 21.8679129 49.31376648 22.84828186 C49.31949238 24.85449429 49.32002291 26.86072747 49.31567383 28.86694336 C49.31251393 31.92402802 49.33599484 34.98014416 49.36132812 38.03710938 C49.36360141 39.99218629 49.36430448 41.94726578 49.36328125 43.90234375 C49.372491 44.80983871 49.38170074 45.71733368 49.39118958 46.65232849 C49.34597453 52.90249556 48.71305506 58.24746181 44.12109375 62.90625 C40.21718921 64.91931311 36.25935027 64.75124463 32 64 C28.65374976 61.47323961 27.32022153 59.96066458 26 56 C25.86498403 51.66328697 25.95703086 47.33988266 26 43 C19.4 43 12.8 43 6 43 C6.061875 45.02125 6.12375 47.0425 6.1875 49.125 C6.1875 54.17356822 6.06972684 57.7933373 3 62 C-1.23552856 64.82368571 -5.02477314 64.66653757 -10 64 C-12.93423195 62.20353146 -14.47205355 61.0558929 -16 58 C-16.11051179 56.36228281 -16.15913334 54.72020173 -16.17700195 53.07885742 C-16.18983719 52.05406784 -16.20267242 51.02927826 -16.21589661 49.97343445 C-16.22328354 48.86200577 -16.23067047 47.75057709 -16.23828125 46.60546875 C-16.246353 45.46596268 -16.25442474 44.3264566 -16.26274109 43.15242004 C-16.27658987 40.73728969 -16.28730846 38.3221397 -16.29516602 35.90698242 C-16.31238115 32.21300176 -16.35626194 28.51991529 -16.40039062 24.82617188 C-16.41051706 22.48177743 -16.41903331 20.13737536 -16.42578125 17.79296875 C-16.45204338 16.13493477 -16.45204338 16.13493477 -16.47883606 14.44340515 C-16.45711082 6.76310335 -16.45711082 6.76310335 -14.09838867 2.82543945 C-9.88280469 -0.84179981 -5.39411808 -0.77179991 0 0 Z " fill="#36474E" transform="translate(112,0)"/>
<path d="M0 0 C1.5672155 -0.02409439 1.5672155 -0.02409439 3.16609192 -0.04867554 C7.94649661 -0.09306697 12.72676171 -0.13418771 17.50732422 -0.15722656 C20.03020446 -0.17379347 22.55303764 -0.20109274 25.07568359 -0.23925781 C28.70915124 -0.2939608 32.34151808 -0.3158914 35.9753418 -0.33056641 C37.10257156 -0.35323578 38.22980133 -0.37590515 39.39118958 -0.39926147 C47.22387958 -0.37808709 47.22387958 -0.37808709 51.18481445 2.58520508 C53.84316618 6.43156851 54.41074692 9.56491224 53.98706055 14.19287109 C51.97929275 18.28276846 50.24954779 20.60631924 45.98706055 22.19287109 C42.75268555 22.38818359 42.75268555 22.38818359 39.23706055 22.31787109 C38.0665918 22.29982422 36.89612305 22.28177734 35.69018555 22.26318359 C34.7981543 22.23998047 33.90612305 22.21677734 32.98706055 22.19287109 C33.002771 23.12558838 33.01848145 24.05830566 33.03466797 25.01928711 C33.08604036 28.50632373 33.12352824 31.99295349 33.15185547 35.48022461 C33.16686777 36.98452126 33.18728408 38.4887747 33.21337891 39.99291992 C33.25009871 42.16514805 33.26686216 44.3367936 33.2800293 46.50927734 C33.29573975 47.81324463 33.3114502 49.11721191 33.32763672 50.46069336 C32.87706346 55.39826567 31.6802563 59.47503424 28.1081543 63.09912109 C24.20424976 65.11218421 20.24641081 64.94411572 15.98706055 64.19287109 C12.64081031 61.66611071 11.30728207 60.15353567 9.98706055 56.19287109 C9.90224282 53.60656885 9.87107826 51.04809053 9.8894043 48.46240234 C9.89081924 47.71198166 9.89223419 46.96156097 9.89369202 46.18840027 C9.89928495 43.79401649 9.91183611 41.39972656 9.92456055 39.00537109 C9.92957646 37.38102349 9.93413921 35.75667441 9.93823242 34.13232422 C9.94925206 30.1524704 9.96651181 26.17268666 9.98706055 22.19287109 C9.09140381 22.21389893 8.19574707 22.23492676 7.27294922 22.2565918 C6.09966064 22.27294678 4.92637207 22.28930176 3.7175293 22.30615234 C1.97185669 22.33769409 1.97185669 22.33769409 0.19091797 22.36987305 C-4.20104521 22.12723239 -5.85893745 21.1763865 -9.01293945 18.19287109 C-11.48077105 14.4911237 -11.69366678 11.48793634 -11.01293945 7.19287109 C-7.92873252 1.53849172 -6.27632295 0.08754296 0 0 Z " fill="#36474E" transform="translate(192.012939453125,-0.19287109375)"/>
<path d="M0 0 C2.82424288 2.19022918 4.41508603 3.83017207 6 7 C6.08667255 9.62627133 6.11560135 12.22562483 6.09765625 14.8515625 C6.0962413 15.62559418 6.09482635 16.39962585 6.09336853 17.19711304 C6.08776403 19.67311442 6.07521083 22.14902588 6.0625 24.625 C6.05748558 26.30208203 6.05292257 27.97916547 6.04882812 29.65625 C6.03779315 33.77086806 6.02052554 37.88541878 6 42 C6.69561035 41.97905273 7.3912207 41.95810547 8.10791016 41.93652344 C11.28012458 41.8530302 14.45210731 41.80123471 17.625 41.75 C19.26662109 41.69972656 19.26662109 41.69972656 20.94140625 41.6484375 C27.27515938 41.57166473 31.25338428 41.61608249 36 46 C38.4678316 49.70174739 38.68072732 52.70493475 38 57 C35 62.5 35 62.5 32 64 C30.66891009 64.11372327 29.33255609 64.16922953 27.99682617 64.19287109 C27.17224411 64.20893402 26.34766205 64.22499695 25.49809265 64.24154663 C21.72521801 64.28602528 17.95251891 64.32706263 14.17944336 64.35009766 C12.19006653 64.36665551 10.20074915 64.39394328 8.21166992 64.43212891 C5.34262245 64.48692264 2.47496913 64.50877517 -0.39453125 64.5234375 C-1.28114944 64.54610687 -2.16776764 64.56877625 -3.08125305 64.59213257 C-7.58202448 64.57675275 -9.39880701 64.47649002 -13.0378418 61.59228516 C-15.64560831 58.14706121 -16.12875477 56.52120984 -16.17700195 52.27832031 C-16.18983719 51.29679993 -16.20267242 50.31527954 -16.21589661 49.30401611 C-16.22328354 48.23947205 -16.23067047 47.17492798 -16.23828125 46.078125 C-16.246353 44.98538269 -16.25442474 43.89264038 -16.26274109 42.76678467 C-16.27659019 40.45000804 -16.28730864 38.13321094 -16.29516602 35.81640625 C-16.31236269 32.2782504 -16.35624077 28.74103264 -16.40039062 25.203125 C-16.41051878 22.95313188 -16.4190345 20.7031308 -16.42578125 18.453125 C-16.44328934 17.39667786 -16.46079742 16.34023071 -16.47883606 15.25177002 C-16.46101942 9.19754622 -16.09836929 5.58330722 -12 1 C-8.28546768 -0.85726616 -4.04420575 -0.58501089 0 0 Z " fill="#37474E" transform="translate(389,0)"/>
</svg>
