<?xml version="1.0" encoding="UTF-8"?>
<svg version="1.1" xmlns="http://www.w3.org/2000/svg" width="512" height="512">
<path d="M0 0 C10.20156602 10.56905759 17.46328641 23.06855867 22.375 36.875 C22.59945801 37.5050293 22.82391602 38.13505859 23.05517578 38.78417969 C30.91906477 62.21289576 27.77512859 89.12417975 17.2890625 111.15234375 C4.95191653 135.79500199 -16.57543442 152.33788735 -42.3046875 161.1328125 C-66.91528794 168.49984231 -94.16075944 164.74267334 -116.625 152.875 C-139.65196288 139.58499787 -155.8502281 118.68865095 -163.46191406 93.26074219 C-170.31337584 67.65791135 -165.80956417 40.25396934 -152.7109375 17.55859375 C-138.09661135 -5.23626159 -116.35978877 -21.0482923 -89.86328125 -26.92529297 C-56.56593554 -33.78460629 -24.44432856 -23.07681367 0 0 Z " fill="#4E8EF7" transform="translate(325.625,188.125)"/>
<path d="M0 0 C2.72616873 1.29533663 4.09849584 0.78114685 6.96484375 -0.06640625 C7.898125 -0.40929687 8.83140625 -0.7521875 9.79296875 -1.10546875 C18.28777705 -3.67901905 28.84415704 -3.16857303 36.85546875 0.67578125 C45.19045705 5.6459039 50.40738421 12.54115386 52.96484375 21.93359375 C53.17628394 24.60817491 53.29723805 27.13928441 53.27734375 29.80859375 C53.2764978 30.86977417 53.2764978 30.86977417 53.27563477 31.95239258 C53.18097093 37.31976992 52.07165393 41.07877029 49.96484375 45.93359375 C50.22714488 50.72058939 52.83184354 53.9753719 55.52734375 57.74609375 C60.83689774 65.46251891 65.08124751 73.4207508 68.96484375 81.93359375 C69.30257813 82.6709375 69.6403125 83.40828125 69.98828125 84.16796875 C80.52839569 107.46716909 87.9507318 133.04168137 88.203125 158.76953125 C88.21296417 159.59793015 88.22280334 160.42632904 88.23294067 161.27983093 C88.76546325 217.82257692 72.70284599 268.12108425 34.96484375 310.93359375 C34.24425781 311.77664063 33.52367187 312.6196875 32.78125 313.48828125 C28.50393475 318.44096207 23.96930761 322.73052615 18.96484375 326.93359375 C18.05347656 327.74441406 17.14210938 328.55523437 16.203125 329.390625 C-10.79646536 353.25163796 -44.04822119 368.23983757 -79.03515625 375.93359375 C-79.83163574 376.11293457 -80.62811523 376.29227539 -81.44873047 376.47705078 C-131.84471614 387.24487543 -189.32222489 375.30365379 -232.25 347.49902344 C-242.07285006 340.96052702 -251.19071295 333.72971748 -260.03515625 325.93359375 C-261.29972656 324.85271484 -261.29972656 324.85271484 -262.58984375 323.75 C-267.54252457 319.47268475 -271.83208865 314.93805761 -276.03515625 309.93359375 C-276.84597656 309.02222656 -277.65679687 308.11085938 -278.4921875 307.171875 C-286.27332021 298.36213661 -292.79599104 288.88277105 -299.03515625 278.93359375 C-299.65003906 277.96196289 -299.65003906 277.96196289 -300.27734375 276.97070312 C-311.63988925 258.76393977 -319.19500019 237.77613286 -324.03515625 216.93359375 C-324.24398437 216.05525879 -324.4528125 215.17692383 -324.66796875 214.27197266 C-336.26848136 163.05167134 -325.86217616 105.24847356 -298.03515625 60.93359375 C-291.13744453 50.28416544 -283.41692469 40.44243152 -275.03515625 30.93359375 C-274.31457031 30.09054688 -273.59398437 29.2475 -272.8515625 28.37890625 C-268.57424725 23.42622543 -264.03962011 19.13666135 -259.03515625 14.93359375 C-258.12378906 14.12277344 -257.21242188 13.31195313 -256.2734375 12.4765625 C-247.46369911 4.69542979 -237.98433355 -1.82724104 -228.03515625 -8.06640625 C-227.38740234 -8.47632812 -226.73964844 -8.88625 -226.07226562 -9.30859375 C-207.86550227 -20.67113925 -186.87769536 -28.22625019 -166.03515625 -33.06640625 C-165.15682129 -33.27523437 -164.27848633 -33.4840625 -163.37353516 -33.69921875 C-109.05170912 -46.00217308 -44.62126395 -34.01819133 0 0 Z M-250.03515625 29.93359375 C-250.65084473 30.51222168 -251.2665332 31.09084961 -251.90087891 31.68701172 C-290.36804896 68.19345294 -309.44318494 116.01013525 -312.22265625 168.47265625 C-313.15839165 213.7388564 -296.59475728 259.71941341 -267.03515625 293.93359375 C-266.35324219 294.72507812 -265.67132813 295.5165625 -264.96875 296.33203125 C-262.69844116 298.90694325 -260.38090334 301.42723022 -258.03515625 303.93359375 C-256.72804688 305.33931641 -256.72804688 305.33931641 -255.39453125 306.7734375 C-220.54123975 343.4052059 -172.24771211 360.29287627 -122.75390625 363.12109375 C-119.82613326 363.18839888 -116.95982442 363.09801887 -114.03515625 362.93359375 C-113.29458984 362.89250488 -112.55402344 362.85141602 -111.79101562 362.80908203 C-69.61895265 360.25295196 -29.23527198 345.75312836 2.96484375 317.93359375 C3.75632812 317.25167969 4.5478125 316.56976563 5.36328125 315.8671875 C7.93819325 313.59687866 10.45848022 311.27934084 12.96484375 308.93359375 C14.37056641 307.62648438 14.37056641 307.62648438 15.8046875 306.29296875 C52.342408 271.52915912 69.33046061 223.03529866 72.15234375 173.65234375 C72.21964888 170.72457076 72.12926887 167.85826192 71.96484375 164.93359375 C71.92375488 164.19302734 71.88266602 163.45246094 71.84033203 162.68945312 C69.54450021 124.81189549 57.61157628 90.12666093 35.96484375 58.93359375 C34.97097656 59.25585938 33.97710937 59.578125 32.953125 59.91015625 C24.02914262 62.44448651 13.39405197 62.17195692 5.00390625 58.1171875 C-2.67927135 53.657412 -7.51063457 47.32959812 -9.92578125 38.78125 C-11.49263174 30.33431882 -10.73761873 23.0409812 -8.03515625 14.93359375 C-82.64037921 -35.21263241 -182.94715192 -33.33404105 -250.03515625 29.93359375 Z " fill="#4E8FF7" transform="translate(376.03515625,85.06640625)"/>
</svg>
