<?xml version="1.0" encoding="UTF-8"?>
<svg version="1.1" xmlns="http://www.w3.org/2000/svg" width="200" height="200">
<path d="M0 0 C2.55535371 2.22955593 5.00056483 4.52808965 7.41796875 6.90625 C8.19140625 7.66679688 8.96484375 8.42734375 9.76171875 9.2109375 C25.1940864 25.33036262 32.04779001 46.81977885 31.6640625 68.91796875 C30.0026387 95.84358296 18.08738582 115.04159973 -1.3203125 133.38671875 C-3.58203125 134.90625 -3.58203125 134.90625 -5.52148438 134.76782227 C-8.30545973 133.60376432 -9.1552016 132.15279329 -10.8125 129.640625 C-11.43737305 128.70718262 -12.06224609 127.77374023 -12.70605469 126.81201172 C-13.38700195 125.77061035 -14.06794922 124.72920898 -14.76953125 123.65625 C-15.89695547 121.96511367 -17.0244173 120.2740021 -18.15292358 118.58358765 C-19.40078806 116.71130168 -20.64366148 114.83576475 -21.88623047 112.95996094 C-24.74136153 108.65759329 -27.62966193 104.37800292 -30.5234375 100.1015625 C-31.29252441 98.96489639 -31.29252441 98.96489639 -32.07714844 97.80526733 C-33.12992987 96.24974515 -34.18284863 94.69431591 -35.23590088 93.13897705 C-37.90384188 89.19802287 -40.56959132 85.25558964 -43.234375 81.3125 C-43.76184326 80.53210358 -44.28931152 79.75170715 -44.83276367 78.94766235 C-47.97012546 74.30264263 -51.09602396 69.6501611 -54.21188354 64.99069214 C-56.14545202 62.10051487 -58.08394439 59.21365942 -60.02307129 56.32720947 C-60.92960851 54.97482699 -61.83370732 53.62080644 -62.73522949 52.26507568 C-63.97624927 50.39911422 -65.22543537 48.5388812 -66.4765625 46.6796875 C-67.52614136 45.10840088 -67.52614136 45.10840088 -68.59692383 43.50537109 C-70.45233054 41.07606844 -71.93696823 39.42321678 -74.58203125 37.90625 C-77.2967823 38.47536789 -77.2967823 38.47536789 -79.58203125 39.90625 C-80.86971487 42.48161723 -80.70908084 44.32691364 -80.71142578 47.21044922 C-80.71615402 48.87259964 -80.71615402 48.87259964 -80.72097778 50.56832886 C-80.71895355 51.77038971 -80.71692932 52.97245056 -80.71484375 54.2109375 C-80.71580048 55.44159943 -80.7167572 56.67226135 -80.71774292 57.94021606 C-80.71859939 61.21679432 -80.71456525 64.49332547 -80.70898438 67.76989746 C-80.70703621 69.77613848 -80.7089735 71.78233563 -80.71240234 73.78857422 C-80.71857617 77.63771602 -80.71783146 81.486793 -80.71484375 85.3359375 C-80.71686798 86.53394989 -80.71889221 87.73196228 -80.72097778 88.96627808 C-80.71782562 90.08068268 -80.71467346 91.19508728 -80.71142578 92.34326172 C-80.71063019 93.32318085 -80.70983459 94.30309998 -80.70901489 95.31271362 C-80.59383451 97.66517812 -80.25176037 99.65665983 -79.58203125 101.90625 C-75.57498392 102.2600571 -75.57498392 102.2600571 -71.91479492 100.9050293 C-69.81644292 97.75807787 -70.10062984 94.40094621 -70.0703125 90.73828125 C-70.0433857 89.54606209 -70.0433857 89.54606209 -70.01591492 88.32975769 C-69.96176155 85.79280899 -69.92790097 83.25604893 -69.89453125 80.71875 C-69.86136251 78.99802059 -69.82687326 77.2773161 -69.79101562 75.55664062 C-69.70603252 71.33997978 -69.63924583 67.12337536 -69.58203125 62.90625 C-67.18322917 65.22447054 -65.05344042 67.45256249 -63.234375 70.25 C-62.80431152 70.90411865 -62.37424805 71.5582373 -61.93115234 72.23217773 C-61.46531738 72.94962158 -60.99948242 73.66706543 -60.51953125 74.40625 C-59.44920318 76.03339907 -58.37749373 77.65964 -57.3046875 79.28515625 C-56.71445801 80.17992676 -56.12422852 81.07469727 -55.51611328 81.99658203 C-52.26983942 86.8803351 -48.96449142 91.72385 -45.66375732 96.57086182 C-38.94851923 106.43670173 -32.2520767 116.31571519 -25.60528564 126.22781372 C-24.80137022 127.42525744 -23.99583994 128.62161866 -23.18865967 129.81686401 C-22.07189327 131.4713015 -20.9615586 133.13007509 -19.8515625 134.7890625 C-18.90180542 136.20276123 -18.90180542 136.20276123 -17.93286133 137.64501953 C-16.58203125 139.90625 -16.58203125 139.90625 -16.58203125 141.90625 C-38.44831603 151.37914392 -62.01664789 152.99247486 -84.45703125 144.15625 C-95.35243782 139.60110024 -104.19540174 133.15673293 -112.58203125 124.90625 C-113.35546875 124.14570313 -114.12890625 123.38515625 -114.92578125 122.6015625 C-130.70914044 106.11551951 -137.22219885 84.34790149 -136.828125 61.79296875 C-135.44977221 40.02374619 -126.91720873 21.49448321 -111.58203125 5.90625 C-110.82148437 5.1328125 -110.0609375 4.359375 -109.27734375 3.5625 C-79.91605657 -24.54732248 -31.26323324 -25.35112408 0 0 Z M-33.72875977 30.41113281 C-36.22525225 33.77223848 -36.28099758 36.78600693 -36.359375 40.828125 C-36.38383698 41.6016481 -36.40829895 42.3751712 -36.4335022 43.1721344 C-36.49390393 45.66751427 -36.5126146 48.16017696 -36.51953125 50.65625 C-36.52693329 51.49650726 -36.53433533 52.33676453 -36.54196167 53.20248413 C-36.5734695 65.28944115 -35.64910452 74.48923907 -27.0859375 83.70703125 C-25.01223825 86.01623569 -25.01223825 86.01623569 -23.58203125 85.90625 C-23.53135332 78.57392322 -23.49630697 71.24164156 -23.47216797 63.90917969 C-23.46210564 61.41437085 -23.44845446 58.91957382 -23.43115234 56.42480469 C-23.40691457 52.84046516 -23.39555043 49.25628147 -23.38671875 45.671875 C-23.37639618 44.55508362 -23.36607361 43.43829224 -23.35543823 42.28765869 C-23.35528717 41.24688171 -23.35513611 40.20610474 -23.35498047 39.13378906 C-23.35053925 38.21889709 -23.34609802 37.30400513 -23.34152222 36.36138916 C-23.60119743 33.71059984 -24.09990011 32.11359349 -25.58203125 29.90625 C-29.04094878 28.70314825 -30.66258475 28.26170681 -33.72875977 30.41113281 Z " fill="#FFFFFF" transform="translate(152.58203125,34.09375)"/>
</svg>
