<?xml version="1.0" encoding="UTF-8"?>
<svg version="1.1" xmlns="http://www.w3.org/2000/svg" width="1985" height="2047">
<path d="M0 0 C2.53348908 -0.00736144 5.06692394 -0.01921689 7.60039139 -0.03188324 C38.68730706 -0.1652278 69.70120307 1.45129117 100.52907181 5.61746979 C101.30639664 5.71973877 102.08372147 5.82200775 102.88460159 5.92737579 C173.92047304 15.32738349 241.82139237 36.40643418 305.90407181 68.36746979 C306.86684036 68.8468399 307.82960892 69.32621002 308.82155228 69.82010651 C337.13331265 84.01944885 363.63206487 101.32328629 388.90407181 120.36746979 C389.45852982 120.78303131 390.01298782 121.19859283 390.58424759 121.62674713 C398.9503853 127.91053725 406.98247949 134.53377615 414.90407181 141.36746979 C415.64399368 142.00555573 416.38391556 142.64364166 417.14625931 143.30106354 C422.45999322 147.9212378 427.689958 152.63545754 432.90407181 157.36746979 C433.88247025 158.25176666 434.86086868 159.13606354 435.86891556 160.04715729 C442.15026588 165.76006851 448.26360603 171.62505981 454.27907181 177.61746979 C455.25964554 178.59115509 455.25964554 178.59115509 456.26002884 179.5845108 C460.10223215 183.43894419 463.75344252 187.40887011 467.30983353 191.52811432 C469.41642869 193.95860252 471.59667334 196.31754182 473.77907181 198.67996979 C477.81317924 203.10838847 481.67117555 207.63551119 485.42750931 212.30106354 C487.26911499 214.58128508 489.12718273 216.84067169 491.00563431 219.09012604 C508.38784283 239.99502605 521.10700377 262.58782655 529.90407181 288.36746979 C530.35991653 289.68424713 530.35991653 289.68424713 530.82497025 291.02762604 C539.2281222 315.67208877 543.41281835 341.50997705 545.90407181 367.36746979 C546.02395462 368.5907901 546.14383743 369.81411041 546.26735306 371.07450104 C546.9177164 378.94680958 547.15461718 386.85077334 547.46657181 394.74246979 C547.51056107 395.84187897 547.55455032 396.94128815 547.59987259 398.07401276 C549.62471357 453.76123867 543.10530176 509.54144843 533.90407181 564.36746979 C533.6984462 565.59995453 533.6984462 565.59995453 533.48866653 566.85733795 C518.05774571 659.05580748 491.52182674 749.7374085 453.90407181 853.36746979 C453.61183731 854.14835968 453.31960281 854.92924957 453.01851273 855.7338028 C431.15628716 914.06554475 406.59674635 971.35388583 379.35084915 1027.3723526 C378.01331212 1030.1413206 376.69722146 1032.91892525 375.39235306 1035.70340729 C362.9991427 1062.09962223 349.62725165 1088.14345109 335.43092728 1113.61405182 C333.66812703 1116.79295511 331.92818528 1119.98408812 330.18922806 1123.17606354 C321.53644788 1139.03048111 312.54447893 1154.64555728 303.23244095 1170.12210846 C302.41064441 1171.51120288 301.6258658 1172.9238818 300.90407181 1174.36746979 C336.17055158 1173.50097151 371.03424389 1167.0577286 405.61671829 1160.55399323 C442.66840942 1153.60913704 481.93239341 1153.18349274 514.45900345 1174.88553619 C534.37879462 1188.84792906 549.28777626 1209.52881387 554.90407181 1233.36746979 C555.32895848 1236.87878669 555.41799682 1240.35221288 555.44313431 1243.88700104 C555.45549118 1244.86626053 555.46784805 1245.84552002 555.48057938 1246.85445404 C555.50003479 1248.91919817 555.511358 1250.98403354 555.51491165 1253.04886627 C555.5288696 1256.13525717 555.59616345 1259.21744951 555.66579056 1262.30301666 C555.95803557 1288.91703524 545.04298211 1311.68813781 528.90407181 1332.36746979 C528.10872025 1333.38711823 527.31336868 1334.40676666 526.49391556 1335.45731354 C515.15360155 1349.3566474 502.20367966 1362.51880752 487.90407181 1373.36746979 C486.70358794 1374.31769658 485.50447688 1375.26965918 484.30641556 1376.22293854 C467.81537588 1389.22455813 450.18931024 1401.03080247 431.90407181 1411.36746979 C431.11419876 1411.81509674 430.32432571 1412.26272369 429.51051712 1412.7239151 C355.57272891 1454.37470222 271.10537073 1471.64935915 186.65724564 1471.49784088 C183.08127531 1471.49245428 179.50542909 1471.49782952 175.92946243 1471.50418854 C173.62282153 1471.50352809 171.31618071 1471.50224761 169.00954056 1471.50028229 C167.43102562 1471.50331863 167.43102562 1471.50331863 165.82062149 1471.50641632 C148.07102268 1471.45094522 148.07102268 1471.45094522 143.90407181 1469.36746979 C143.94532181 1470.50184479 143.98657181 1471.63621979 144.02907181 1472.80496979 C144.03387571 1477.01799345 143.56844026 1481.02589702 142.98219681 1485.19559479 C141.92264037 1493.53949918 141.52386983 1501.89324819 141.19313431 1510.29325104 C141.16623268 1510.97576368 141.13933105 1511.65827633 141.11161423 1512.36147118 C140.9711456 1515.96279101 140.83509813 1519.56426547 140.70051956 1523.16580963 C137.40439799 1610.7848042 130.16420567 1700.21412979 43.90407181 1914.36746979 C43.20435257 1915.30260406 43.20435257 1915.30260406 42.49049759 1916.25662994 C36.86596446 1923.71204015 30.90806259 1930.75874752 24.51735306 1937.56668854 C22.11198449 1940.14463961 19.78661864 1942.7755018 17.46657181 1945.42996979 C8.30307999 1955.60079581 -2.21690293 1964.11943404 -13.09592819 1972.36746979 C-14.00713425 1973.06404694 -14.00713425 1973.06404694 -14.9367485 1973.77469635 C-67.8321495 2014.07993344 -135.37746991 2032.69711043 -200.09592819 2043.36746979 C-201.61524948 2043.62995514 -201.61524948 2043.62995514 -203.16526413 2043.89774323 C-218.64760487 2046.48239846 -234.12588817 2046.67131035 -249.78342819 2046.74246979 C-250.76609665 2046.75050629 -251.74876511 2046.75854279 -252.7612114 2046.76682281 C-271.67058398 2046.884108 -290.40739907 2045.28773614 -308.78342819 2040.61746979 C-309.81902878 2040.35925446 -310.85462936 2040.10103912 -311.92161179 2039.83499908 C-344.14501136 2031.5699867 -373.34701515 2016.71120677 -398.09592819 1994.36746979 C-398.94928757 1993.63399323 -399.80264694 1992.90051666 -400.68186569 1992.14481354 C-422.76405335 1972.95351165 -439.17112717 1948.4144705 -452.34592819 1922.49246979 C-452.79266891 1921.62227203 -453.23940964 1920.75207428 -453.69968796 1919.8555069 C-462.54215115 1901.9641977 -468.85710301 1882.80607866 -475.22092819 1863.92996979 C-475.56798813 1862.90398682 -475.91504807 1861.87800385 -476.27262497 1860.82093048 C-492.67897444 1812.2676675 -501.56142124 1763.34053883 -506.09592819 1712.36746979 C-506.16404709 1711.60400238 -506.23216599 1710.84053497 -506.30234909 1710.05393219 C-511.69837666 1648.99370566 -513.12106135 1587.60956665 -515.09592819 1526.36746979 C-515.63632736 1526.58821167 -516.17672653 1526.80895355 -516.73350143 1527.03638458 C-526.91794548 1531.18495633 -537.05854469 1535.31232003 -547.59592819 1538.49246979 C-548.67140915 1538.8188443 -549.74689011 1539.14521881 -550.8549614 1539.48148346 C-578.26540189 1547.57198126 -606.97075486 1552.44241742 -635.58811569 1552.57059479 C-637.17280151 1552.58104828 -637.17280151 1552.58104828 -638.78950119 1552.59171295 C-642.18335123 1552.60901185 -645.57703589 1552.61543372 -648.97092819 1552.61746979 C-650.13176926 1552.61847687 -651.29261032 1552.61948395 -652.48862839 1552.62052155 C-670.55663397 1552.60992374 -688.19402539 1551.97465212 -706.09592819 1549.36746979 C-707.61283249 1549.15864166 -707.61283249 1549.15864166 -709.16038132 1548.94559479 C-726.36957151 1546.53653122 -743.25360737 1542.58373059 -760.09592819 1538.36746979 C-760.95299362 1538.15509674 -761.81005905 1537.94272369 -762.69309616 1537.7239151 C-797.00859163 1529.04231141 -829.11980173 1511.34359625 -854.09592819 1486.36746979 C-855.30315963 1485.31053422 -856.51850088 1484.26281247 -857.74045944 1483.22293854 C-858.68369064 1482.41892609 -858.68369064 1482.41892609 -859.64597702 1481.59867096 C-860.12446091 1481.19237457 -860.60294479 1480.78607819 -861.09592819 1480.36746979 C-861.56152145 1480.72872955 -862.02711472 1481.08998932 -862.50681686 1481.46219635 C-880.0492491 1494.97377413 -898.4869167 1506.1734657 -919.09592819 1514.36746979 C-920.86516647 1515.07129791 -920.86516647 1515.07129791 -922.67014694 1515.78934479 C-967.73926937 1532.1414116 -1015.71518124 1526.9605854 -1058.59592819 1507.17996979 C-1073.54144858 1500.05474392 -1087.30445464 1490.84212033 -1100.09592819 1480.36746979 C-1101.10655319 1479.56051666 -1102.11717819 1478.75356354 -1103.15842819 1477.92215729 C-1111.37831512 1471.21652609 -1118.89492569 1463.77902644 -1126.40842819 1456.30496979 C-1126.92039749 1455.79826752 -1127.43236679 1455.29156525 -1127.95985031 1454.76950836 C-1134.81159202 1447.97230583 -1141.08517259 1440.93330568 -1147.09592819 1433.36746979 C-1148.18011629 1432.06175921 -1149.26822153 1430.75928367 -1150.36155319 1429.46121979 C-1158.02325245 1420.27322044 -1164.89028114 1410.69663482 -1171.51389694 1400.73905182 C-1173.04889069 1398.43798248 -1174.60084564 1396.149386 -1176.15842819 1393.86356354 C-1183.56749787 1382.94638888 -1190.43179255 1371.75230841 -1197.09592819 1360.36746979 C-1197.57497604 1359.55503815 -1198.0540239 1358.74260651 -1198.54758835 1357.90555573 C-1207.31724467 1343.00159157 -1215.34438515 1327.72328925 -1223.12778854 1312.28690338 C-1223.76561213 1311.02235439 -1224.40450228 1309.7583427 -1225.04453659 1308.49491119 C-1243.13291024 1272.78275048 -1258.7213698 1235.71636092 -1273.09592819 1198.36746979 C-1273.36348923 1197.67482025 -1273.63105026 1196.98217072 -1273.90671921 1196.2685318 C-1309.08590475 1105.16599534 -1337.47780062 1011.35113337 -1371.23972702 876.86325836 C-1372.03366675 873.62167739 -1372.83217647 870.38127245 -1373.63303757 867.14139557 C-1382.21783271 832.3856701 -1389.75810721 797.40406705 -1397.09592819 762.36746979 C-1397.48228439 760.52393921 -1397.48228439 760.52393921 -1397.87644577 758.64316559 C-1414.2316061 680.430964 -1428.32551891 601.93962528 -1428.34592819 521.86746979 C-1428.34637005 521.07187653 -1428.3468119 520.27628326 -1428.34726715 519.45658112 C-1428.35495536 492.99516597 -1427.82994372 466.71018435 -1425.09592819 440.36746979 C-1425.00871506 439.52234833 -1424.92150192 438.67722687 -1424.83164597 437.80649567 C-1416.09165684 354.19576446 -1393.55085118 271.13362459 -1272.80881882 121.73709869 C-1256.84495316 108.97237715 -1239.85927869 97.47813016 -1222.09592819 87.36746979 C-1221.24321335 86.88165436 -1220.3904985 86.39583893 -1219.51194382 85.89530182 C-1134.2028488 37.67518183 -1036.10093526 24.96653437 -906.09592819 29.36746979 C-905.33717392 29.42827728 -904.57841965 29.48908478 -903.79667282 29.55173492 C-845.07504411 34.32014229 -787.16808383 44.90556003 -730.09592819 59.36746979 C-728.92308273 59.66430664 -728.92308273 59.66430664 -727.72654343 59.9671402 C-705.80052676 65.53617337 -684.1921487 71.98340273 -662.65330124 78.89774323 C-661.72039764 79.19455994 -660.78749405 79.49137665 -659.82632065 79.79718781 C-658.07516709 80.35471456 -656.32585532 80.9180726 -654.57879257 81.48828888 C-648.95072686 83.27461429 -645.2035942 84.41646869 -639.68967819 81.67215729 C-638.32109604 80.86903722 -636.95684033 80.05851948 -635.59592819 79.24246979 C-614.7194317 67.24287012 -592.80801014 57.33787903 -570.09592819 49.36746979 C-568.90837936 48.9501358 -567.72083054 48.53280182 -566.49729538 48.10282135 C-516.85256298 30.89455803 -464.58581546 22.46846375 -412.09592819 21.36746979 C-411.16506393 21.34555573 -410.23419968 21.32364166 -409.27512741 21.30106354 C-367.10980765 20.44966889 -324.61905979 23.34904779 -282.78724289 28.54160309 C-281.04010533 28.75817748 -279.29268793 28.97250664 -277.54499435 29.18454742 C-261.71005899 31.10946775 -261.71005899 31.10946775 -255.20530319 32.70731354 C-239.60149232 36.42742739 -225.61330018 30.96431023 -210.69158554 26.5344162 C-201.38025395 23.80441742 -191.95224697 21.66571641 -182.47092819 19.61746979 C-181.60803177 19.43086792 -180.74513535 19.24426605 -179.85609055 19.05200958 C-146.52884343 11.89125554 -112.97605077 7.07319983 -79.09592819 3.36746979 C-78.25272018 3.27338837 -77.40951218 3.17930695 -76.54075241 3.08237457 C-51.08666498 0.26494233 -25.58131033 0.06402736 0 0 Z " fill="#FEFEFE" transform="translate(1430.0959281921387,-0.36746978759765625)"/>
<path d="M0 0 C3.15448627 0.02179973 6.30880458 0.02083856 9.46335316 0.01999855 C32.94221219 0.0214202 56.06056828 1.15552315 79.2868042 4.76623535 C80.74892102 4.9885942 82.21108012 5.21067525 83.67327881 5.43249512 C87.85920572 6.07148245 92.04188571 6.72967736 96.2243042 7.39123535 C97.33289795 7.56413086 98.4414917 7.73702637 99.5836792 7.91516113 C114.66285727 10.29061499 129.43288045 13.63304144 144.2243042 17.39123535 C144.98243408 17.58217773 145.74056396 17.77312012 146.52166748 17.96984863 C156.20112368 20.42025634 165.74221057 23.27108983 175.2243042 26.39123535 C176.25362061 26.72896973 177.28293701 27.0667041 178.34344482 27.41467285 C235.88974175 46.43282226 289.02738808 74.66923657 337.2243042 111.39123535 C337.86545166 111.87930664 338.50659912 112.36737793 339.16717529 112.87023926 C350.79557133 121.76723585 361.90445176 131.27691385 372.72991943 141.13220215 C374.26998972 142.52696288 375.81751594 143.91360078 377.37689209 145.28674316 C384.36666482 151.46392741 390.97432336 157.98820535 397.55706787 164.59362793 C399.41572528 166.45766779 401.27970034 168.31627047 403.14422607 170.17443848 C409.05169275 176.07860538 414.82702397 182.01067272 420.2243042 188.39123535 C421.67875937 189.99891908 423.13651315 191.6036325 424.5993042 193.20373535 C429.33001922 198.45299418 433.79514114 203.88682531 438.2243042 209.39123535 C439.13804862 210.51258837 440.05212559 211.63367046 440.9664917 212.7545166 C449.05938516 222.71992081 456.69842674 232.99306844 464.2243042 243.39123535 C464.7399292 244.10005859 465.2555542 244.80888184 465.7868042 245.53918457 C474.45953985 257.48960449 482.42978532 269.85351162 490.2243042 282.39123535 C490.64276611 283.06332031 491.06122803 283.73540527 491.49237061 284.42785645 C494.14274794 288.70729103 496.70438873 293.03384067 499.2243042 297.39123535 C499.7183374 298.2439502 500.21237061 299.09666504 500.72137451 299.97521973 C546.2243042 378.91940699 546.2243042 378.91940699 546.2243042 399.39123535 C544.09938075 399.418792 541.97434715 399.43787682 539.8493042 399.45373535 C538.66594482 399.46533691 537.48258545 399.47693848 536.2633667 399.4888916 C533.38871153 399.46557073 530.59886605 399.23205233 527.74407959 398.90002441 C521.78404698 398.28893358 515.85649611 398.19432319 509.86883545 398.1529541 C508.70107574 398.14316025 507.53331604 398.13336639 506.33016968 398.12327576 C453.39593213 397.77059153 391.98687853 401.40773387 351.3102417 440.3951416 C349.53251385 442.09630064 347.72992562 443.57806177 345.7868042 445.07873535 C321.06747765 466.1834434 308.22824102 503.70272367 305.4118042 535.24499512 C303.79904677 562.30698077 305.10280153 588.78956905 310.2243042 615.39123535 C310.42717041 616.46695801 310.63003662 617.54268066 310.83905029 618.65100098 C312.1147936 625.28017674 313.61459366 631.83608463 315.2243042 638.39123535 C315.44215576 639.31484863 315.66000732 640.23846191 315.88446045 641.19006348 C325.61979129 682.10626825 341.85798723 722.19238796 359.2243042 760.39123535 C359.71092529 761.46212402 360.19754639 762.5330127 360.69891357 763.63635254 C372.40520927 789.29782479 384.40858485 814.94760162 397.81610107 839.77062988 C399.5344977 842.96849211 401.23097799 846.17779638 402.9274292 849.3873291 C409.62170223 862.03687054 416.40686489 874.61565329 423.49871826 887.04821777 C428.4761391 895.78644219 433.26327966 904.62213988 438.0289917 913.47717285 C440.11461456 917.35010977 442.22314417 921.20879564 444.3571167 925.05529785 C452.04265487 938.93003152 458.9921828 953.0523176 465.54071045 967.4967041 C474.9489593 988.03961157 486.7056629 1007.2971898 500.2243042 1025.39123535 C500.74202393 1026.08620117 501.25974365 1026.78116699 501.79315186 1027.49719238 C508.19857592 1036.05916761 514.83108421 1044.41783478 521.60174561 1052.69274902 C524.98177544 1056.83331156 528.3070804 1061.00715132 531.5368042 1065.26623535 C532.25481201 1066.21240723 532.97281982 1067.1585791 533.71258545 1068.13342285 C535.2243042 1070.39123535 535.2243042 1070.39123535 535.2243042 1072.39123535 C534.26653076 1072.65936035 533.30875732 1072.92748535 532.32196045 1073.20373535 C504.22524358 1081.35014183 480.81713373 1096.52894329 466.2243042 1122.39123535 C455.21502212 1142.45216308 451.28053682 1164.80835822 451.06016541 1187.45184326 C450.82699091 1211.39615962 448.7852584 1234.83891841 445.91375732 1258.59777832 C445.22139149 1264.3592858 444.58293792 1270.12590319 443.9586792 1275.8951416 C441.95198874 1294.40895193 439.83284084 1312.90206904 437.47817993 1331.37496948 C435.76503266 1344.81988654 434.19273246 1358.27761665 432.66513062 1371.74481201 C430.43184327 1391.4251951 428.00566054 1411.06635753 425.33612061 1430.69226074 C423.8502983 1441.62383245 422.45161976 1452.55987352 421.1618042 1463.51623535 C419.64556365 1476.35157227 417.87179304 1489.1361151 416.01141357 1501.9251709 C414.80733779 1510.21647049 413.67045947 1518.51102476 412.6618042 1526.82873535 C411.60219938 1535.5289257 410.44886785 1544.21265484 409.2243042 1552.89123535 C409.07018066 1554.00039307 408.91605713 1555.10955078 408.75726318 1556.25231934 C407.90341905 1562.23277304 406.91332983 1568.17034947 405.7711792 1574.10217285 C404.67647632 1579.78945747 403.71608192 1585.48275184 402.8649292 1591.21154785 C397.66820477 1626.11389178 390.84600379 1660.45011099 375.2243042 1692.39123535 C374.87255127 1693.11391602 374.52079834 1693.83659668 374.15838623 1694.58117676 C366.54567317 1710.02899675 357.1501924 1723.01531364 345.2243042 1735.39123535 C344.47020264 1736.22010254 343.71610107 1737.04896973 342.93914795 1737.9029541 C324.53289293 1757.50893072 299.78122191 1768.67364276 275.2243042 1778.39123535 C273.82169209 1778.96219113 272.41931517 1779.53372533 271.01727295 1780.1060791 C244.09837193 1790.87433401 214.8604441 1796.59706384 186.2243042 1800.39123535 C185.44836914 1800.49726074 184.67243408 1800.60328613 183.87298584 1800.71252441 C176.14399494 1801.6339595 168.3686666 1801.61270752 160.59564209 1801.63146973 C158.19090407 1801.64111859 155.78704391 1801.67220368 153.38250732 1801.70373535 C118.15800021 1801.94433744 87.31685811 1788.65364452 61.2243042 1765.39123535 C60.16469482 1764.45924316 60.16469482 1764.45924316 59.0836792 1763.50842285 C22.63132092 1729.35348211 7.90484806 1676.90731539 1.2243042 1629.39123535 C1.06542725 1628.27168457 0.90655029 1627.15213379 0.74285889 1625.99865723 C-1.0923257 1612.88309423 -2.29746707 1599.78151717 -3.12994385 1586.56384277 C-3.20124512 1585.44082764 -3.27254639 1584.3178125 -3.3460083 1583.1607666 C-3.40546631 1582.16665771 -3.46492432 1581.17254883 -3.52618408 1580.14831543 C-3.71673787 1577.44907447 -3.71673787 1577.44907447 -4.26202393 1575.06945801 C-4.97997953 1571.32612485 -5.18766972 1567.56769104 -5.4241333 1563.7701416 C-5.4776766 1562.92291818 -5.5312199 1562.07569475 -5.58638573 1561.20279789 C-10.30163705 1485.2493202 -11.22870984 1409.33078475 -11.04831898 1333.24835652 C-11.02293391 1322.14738071 -11.01723223 1311.04643331 -11.0132637 1299.94543266 C-11.00925075 1289.11306794 -10.99679731 1278.28071498 -10.98291683 1267.44835901 C-10.97889362 1264.06957559 -10.97593192 1260.69079253 -10.97312164 1257.3120079 C-10.96700683 1250.97755774 -10.95457347 1244.64314383 -10.93682861 1238.30871582 C-10.93424435 1237.31434438 -10.93166009 1236.31997295 -10.92899752 1235.29546905 C-10.89726965 1225.11535225 -10.80191525 1214.9436066 -10.48480225 1204.76800537 C-10.45894035 1203.93311887 -10.43307846 1203.09823238 -10.40643287 1202.23804629 C-10.28340147 1198.39015197 -10.14581753 1194.54355771 -9.9837532 1190.69711113 C-9.55882229 1179.75829266 -10.55125768 1169.84821677 -13.7756958 1159.39123535 C-13.98081787 1158.68128418 -14.18593994 1157.97133301 -14.39727783 1157.23986816 C-19.296759 1140.55514849 -27.56804019 1124.68973092 -38.7756958 1111.39123535 C-39.59425049 1110.39865723 -40.41280518 1109.4060791 -41.25616455 1108.38342285 C-57.24991225 1089.59954472 -82.99546698 1075.54069758 -107.7756958 1073.39123535 C-116.8474752 1073.02326926 -125.78154987 1073.10635736 -134.7756958 1074.39123535 C-129.67193059 1050.67332918 -121.15395972 1028.10436109 -112.7756958 1005.39123535 C-112.31147168 1004.12757502 -111.84727638 1002.86390409 -111.38311768 1001.60021973 C-103.80052163 981.05957223 -94.95877184 961.07081727 -85.94895935 941.12512207 C-79.0470574 925.83576784 -72.47893934 910.50110953 -66.6506958 894.76623535 C-66.38642792 894.05478363 -66.12216003 893.34333191 -65.84988403 892.61032104 C-62.16047748 882.63404379 -58.85816402 872.57036169 -55.7756958 862.39123535 C-55.30583252 860.85644531 -55.30583252 860.85644531 -54.82647705 859.29064941 C-46.85800351 832.94941131 -41.97139095 805.83969322 -39.00454712 778.49710083 C-38.84485727 777.02765183 -38.68008864 775.55874975 -38.51144409 774.09030151 C-36.57749246 756.89104202 -36.43262073 739.72765675 -36.46002197 722.44470215 C-36.46461913 719.30718515 -36.45784221 716.17005907 -36.43951416 713.03259277 C-36.25525508 681.10345672 -38.71226247 649.7163578 -43.0256958 618.07873535 C-43.17498535 616.9660025 -43.3242749 615.85326965 -43.47808838 614.70681763 C-46.28982586 593.81256545 -49.66735704 573.06862272 -53.7756958 552.39123535 C-53.91771423 551.66867554 -54.05973267 550.94611572 -54.20605469 550.20166016 C-58.97084447 525.9779874 -64.53242801 502.0576924 -76.7756958 480.39123535 C-77.31130127 479.42733887 -77.31130127 479.42733887 -77.85772705 478.44396973 C-95.03142245 447.7679873 -123.29434586 424.84365086 -157.07843018 414.6998291 C-210.5231425 399.67521118 -268.324025 408.98376028 -319.7756958 427.39123535 C-320.66144287 427.7052832 -321.54718994 428.01933105 -322.45977783 428.34289551 C-343.02089883 435.7076747 -362.91899929 444.71072258 -382.33746338 454.68322754 C-383.28516602 455.1682373 -384.23286865 455.65324707 -385.20928955 456.1529541 C-386.04516602 456.58567627 -386.88104248 457.01839844 -387.74224854 457.4642334 C-389.7756958 458.39123535 -389.7756958 458.39123535 -391.7756958 458.39123535 C-391.98083557 452.13447251 -391.61527162 446.0750101 -390.9397583 439.8638916 C-390.85111511 439.03858948 -390.76247192 438.21328735 -390.67114258 437.36297607 C-380.82741408 347.25370073 -358.49000208 258.17079746 -274.7756958 122.39123535 C-273.91683773 121.35933625 -273.05880348 120.32675108 -272.20147705 119.2935791 C-261.96881939 107.01402143 -251.31690631 94.87785776 -239.17022705 84.4498291 C-237.36215962 82.89542203 -235.57068272 81.3216878 -233.78741455 79.7388916 C-206.37973912 55.56160915 -173.94154401 36.31115232 -139.7756958 23.39123535 C-138.91653564 23.06461914 -138.05737549 22.73800293 -137.17218018 22.40148926 C-92.9220995 5.80374395 -47.0091542 -0.4095109 0 0 Z " fill="#336791" transform="translate(1029.7756958007813,133.6087646484375)"/>
<path d="M0 0 C1.1117157 0.00188324 2.2234314 0.00376648 3.36883545 0.00570679 C35.83024351 0.07028015 35.83024351 0.07028015 50.5 1.125 C52.18899414 1.24633301 52.18899414 1.24633301 53.91210938 1.37011719 C113.24532282 5.87463659 173.91012928 15.99177789 230.93920898 33.18481445 C235.75682443 34.63385191 240.59698344 35.96561342 245.45898438 37.25756836 C257.30899032 40.40976116 268.91603826 44.10841444 280.5 48.125 C279.12877687 51.18310537 277.55406365 53.34012403 275.2265625 55.7421875 C274.57268555 56.42418213 273.91880859 57.10617676 273.24511719 57.80883789 C272.54547852 58.53192139 271.84583984 59.25500488 271.125 60 C259.31070632 72.39972233 248.56407693 85.26794581 238.5 99.125 C237.77345215 100.12007568 237.77345215 100.12007568 237.03222656 101.13525391 C193.56461572 160.87781189 162.92355565 231.06029822 146.01757812 302.94189453 C145.19107376 306.42802756 144.31201717 309.90067002 143.4375 313.375 C143.11066128 314.69140233 142.78383813 316.00780852 142.45703125 317.32421875 C141.84674757 319.74791679 141.22075483 322.16775093 140.57421875 324.58203125 C134.27670116 348.50223179 130.59695665 372.93372127 127.39657593 397.42578125 C126.76836099 402.20706439 126.08564823 406.97827385 125.38110352 411.74887085 C123.70305024 423.18093797 122.32906699 434.61487417 121.3125 446.125 C121.1821788 447.59024109 121.1821788 447.59024109 121.04922485 449.08508301 C119.3161994 469.34053482 119.14520777 489.56188997 119.1875 509.875 C119.18868961 510.63598999 119.18987923 511.39697998 119.19110489 512.18103027 C119.20032052 517.30311013 119.22572226 522.42491835 119.26171875 527.546875 C119.26928192 528.84195984 119.27684509 530.13704468 119.28463745 531.47137451 C119.36301636 539.07020063 119.7902284 546.56112614 120.5 554.125 C125.95594041 624.4231757 124.26752422 696.42166026 115.83010864 766.37832642 C115.14959133 772.04058027 114.51354852 777.70788188 113.875 783.375 C113.75382812 784.42816406 113.63265625 785.48132813 113.5078125 786.56640625 C112.03136837 799.70996864 111.28989824 812.77545809 111.3125 826 C111.31343658 826.71665833 111.31437317 827.43331665 111.31533813 828.17169189 C111.4055403 860.28810694 116.49390338 890.57583243 126.5 921.125 C126.81308105 922.08744629 127.12616211 923.04989258 127.44873047 924.04150391 C140.38068384 963.16596844 161.92712039 998.76697915 190.15576172 1028.67919922 C192.07278771 1030.74106408 193.9087565 1032.8704992 195.75 1035 C198.84658487 1038.51591407 202.16094062 1041.59243005 205.734375 1044.6171875 C207.76547513 1046.35171106 209.65070823 1048.19865441 211.5 1050.125 C209.89688442 1053.95266361 207.44515468 1056.55024783 204.625 1059.5625 C204.1403125 1060.08328125 203.655625 1060.6040625 203.15625 1061.140625 C202.12836298 1062.24494464 201.09869721 1063.34761095 200.06738281 1064.44873047 C197.5310055 1067.16131094 195.01682891 1069.89429606 192.5 1072.625 C191.49355053 1073.71490003 190.48704017 1074.80474384 189.48046875 1075.89453125 C181.76417191 1084.25448139 174.09640809 1092.65575507 166.5 1101.125 C165.02127322 1102.77122857 163.54210209 1104.4170581 162.0625 1106.0625 C161.32128906 1106.8875 160.58007812 1107.7125 159.81640625 1108.5625 C158.2279704 1110.31969042 156.63115773 1112.0693341 155.02734375 1113.8125 C150.96257337 1118.23537225 147.00312037 1122.68359954 143.25 1127.375 C138.96899053 1132.68830962 134.34667142 1137.61497018 129.66210938 1142.56835938 C125.43790672 1147.05800488 121.48914767 1151.69784477 117.640625 1156.515625 C115.34879535 1159.30931516 112.94768188 1161.96708778 110.5 1164.625 C107.20668301 1168.20292463 104.05348679 1171.84039666 101 1175.625 C97.94651321 1179.40960334 94.79331699 1183.04707537 91.5 1186.625 C87.46366945 1191.01528569 83.65969471 1195.5367562 79.9140625 1200.17578125 C76.65811001 1204.15352256 73.29991587 1208.03910565 69.94189453 1211.93066406 C66.89737566 1215.46792064 63.92362075 1219.04886331 61 1222.6875 C44.22571717 1243.27687243 22.32619323 1266.05011431 -5.5 1269.125 C-27.76013737 1270.63710287 -46.16688138 1260.72057307 -62.59765625 1246.4921875 C-65.6231952 1243.75764241 -68.57200235 1240.96267382 -71.5 1238.125 C-72.02980469 1237.62097656 -72.55960937 1237.11695313 -73.10546875 1236.59765625 C-80.88854774 1229.18431973 -87.75367672 1221.4032143 -94.21337891 1212.81738281 C-95.43449793 1211.21115946 -96.69097969 1209.63200154 -97.94921875 1208.0546875 C-130.63716576 1166.89208757 -153.71393199 1117.08239756 -174.59631348 1069.19152832 C-175.91638252 1066.1728266 -177.25231679 1063.16117196 -178.5859375 1060.1484375 C-204.76974369 1000.54927655 -225.98342954 938.14317233 -244.67480469 875.83105469 C-246.14336605 871.01521619 -247.70416905 866.22896334 -249.25 861.4375 C-251.529521 854.33729091 -253.61535693 847.23773893 -255.4765625 840.015625 C-256.71008197 835.25669188 -258.07828595 830.53675856 -259.4375 825.8125 C-262.17952804 816.26465727 -264.86471574 806.70282715 -267.5 797.125 C-267.73187012 796.28388672 -267.96374023 795.44277344 -268.20263672 794.57617188 C-271.30324665 783.31704322 -274.32404099 772.04031896 -277.24755859 760.73388672 C-278.71497816 755.07575425 -280.23525946 749.4356213 -281.80102539 743.80395508 C-284.34896248 734.63089141 -286.62575988 725.43774146 -288.68041992 716.1418457 C-289.94196712 710.46764877 -291.34116773 704.85607947 -292.875 699.25 C-295.53089463 689.46067866 -297.63854618 679.55509651 -299.77294922 669.64257812 C-301.74740997 660.48627443 -303.834857 651.36351553 -306 642.25 C-309.51480218 627.36458708 -312.61746671 612.40905975 -315.63378906 597.41650391 C-316.33440159 593.93731908 -317.04570049 590.46043966 -317.76116943 586.98428345 C-327.78822669 538.227224 -337.77676602 488.71895678 -342.5 439.125 C-342.60151367 438.14547363 -342.70302734 437.16594727 -342.80761719 436.15673828 C-348.06356176 383.68848406 -345.6957114 329.18882942 -337.5 277.125 C-337.32774902 275.99626465 -337.15549805 274.8675293 -336.97802734 273.70458984 C-327.98299061 215.67289859 -308.11303275 156.0636805 -270.5 110.125 C-270.06864746 109.59745117 -269.63729492 109.06990234 -269.19287109 108.52636719 C-259.42822264 96.64051909 -249.26972271 85.07008693 -237.5 75.125 C-236.65791992 74.40642822 -236.65791992 74.40642822 -235.79882812 73.67333984 C-201.92720471 44.90038144 -161.39817614 25.26632021 -118.5 14.125 C-117.50419922 13.86444824 -116.50839844 13.60389648 -115.48242188 13.33544922 C-102.2484474 9.91108591 -89.11842341 7.17279037 -75.55175781 5.5078125 C-71.99699008 5.06190244 -68.44812823 4.57839736 -64.8984375 4.09375 C-62.85514607 3.81834144 -60.81169143 3.54419155 -58.76812744 3.27081299 C-56.82797636 3.01046367 -54.88834116 2.74627874 -52.94873047 2.48193359 C-35.29300106 0.17340842 -17.78068661 -0.04551512 0 0 Z " fill="#336791" transform="translate(459.5,137.875)"/>
<path d="M0 0 C2.53348908 -0.00736144 5.06692394 -0.01921689 7.60039139 -0.03188324 C38.68730706 -0.1652278 69.70120307 1.45129117 100.52907181 5.61746979 C101.30639664 5.71973877 102.08372147 5.82200775 102.88460159 5.92737579 C173.92047304 15.32738349 241.82139237 36.40643418 305.90407181 68.36746979 C306.86684036 68.8468399 307.82960892 69.32621002 308.82155228 69.82010651 C337.13331265 84.01944885 363.63206487 101.32328629 388.90407181 120.36746979 C389.45852982 120.78303131 390.01298782 121.19859283 390.58424759 121.62674713 C398.9503853 127.91053725 406.98247949 134.53377615 414.90407181 141.36746979 C415.64399368 142.00555573 416.38391556 142.64364166 417.14625931 143.30106354 C422.45999322 147.9212378 427.689958 152.63545754 432.90407181 157.36746979 C433.88247025 158.25176666 434.86086868 159.13606354 435.86891556 160.04715729 C442.15026588 165.76006851 448.26360603 171.62505981 454.27907181 177.61746979 C455.25964554 178.59115509 455.25964554 178.59115509 456.26002884 179.5845108 C460.10223215 183.43894419 463.75344252 187.40887011 467.30983353 191.52811432 C469.41642869 193.95860252 471.59667334 196.31754182 473.77907181 198.67996979 C477.81317924 203.10838847 481.67117555 207.63551119 485.42750931 212.30106354 C487.26911499 214.58128508 489.12718273 216.84067169 491.00563431 219.09012604 C508.38784283 239.99502605 521.10700377 262.58782655 529.90407181 288.36746979 C530.35991653 289.68424713 530.35991653 289.68424713 530.82497025 291.02762604 C539.2281222 315.67208877 543.41281835 341.50997705 545.90407181 367.36746979 C546.02395462 368.5907901 546.14383743 369.81411041 546.26735306 371.07450104 C546.9177164 378.94680958 547.15461718 386.85077334 547.46657181 394.74246979 C547.51056107 395.84187897 547.55455032 396.94128815 547.59987259 398.07401276 C549.62471357 453.76123867 543.10530176 509.54144843 533.90407181 564.36746979 C533.6984462 565.59995453 533.6984462 565.59995453 533.48866653 566.85733795 C518.05774571 659.05580748 491.52182674 749.7374085 453.90407181 853.36746979 C453.61183731 854.14835968 453.31960281 854.92924957 453.01851273 855.7338028 C431.15628716 914.06554475 406.59674635 971.35388583 379.35084915 1027.3723526 C378.01331212 1030.1413206 376.69722146 1032.91892525 375.39235306 1035.70340729 C362.9991427 1062.09962223 349.62725165 1088.14345109 335.43092728 1113.61405182 C333.66812703 1116.79295511 331.92818528 1119.98408812 330.18922806 1123.17606354 C321.53644788 1139.03048111 312.54447893 1154.64555728 303.23244095 1170.12210846 C302.41064441 1171.51120288 301.6258658 1172.9238818 300.90407181 1174.36746979 C336.17055158 1173.50097151 371.03424389 1167.0577286 405.61671829 1160.55399323 C442.66840942 1153.60913704 481.93239341 1153.18349274 514.45900345 1174.88553619 C534.37879462 1188.84792906 549.28777626 1209.52881387 554.90407181 1233.36746979 C555.32895848 1236.87878669 555.41799682 1240.35221288 555.44313431 1243.88700104 C555.45549118 1244.86626053 555.46784805 1245.84552002 555.48057938 1246.85445404 C555.50003479 1248.91919817 555.511358 1250.98403354 555.51491165 1253.04886627 C555.5288696 1256.13525717 555.59616345 1259.21744951 555.66579056 1262.30301666 C555.95803557 1288.91703524 545.04298211 1311.68813781 528.90407181 1332.36746979 C528.10872025 1333.38711823 527.31336868 1334.40676666 526.49391556 1335.45731354 C515.15360155 1349.3566474 502.20367966 1362.51880752 487.90407181 1373.36746979 C486.70358794 1374.31769658 485.50447688 1375.26965918 484.30641556 1376.22293854 C467.81537588 1389.22455813 450.18931024 1401.03080247 431.90407181 1411.36746979 C431.11419876 1411.81509674 430.32432571 1412.26272369 429.51051712 1412.7239151 C355.57272891 1454.37470222 271.10537073 1471.64935915 186.65724564 1471.49784088 C183.08127531 1471.49245428 179.50542909 1471.49782952 175.92946243 1471.50418854 C173.62282153 1471.50352809 171.31618071 1471.50224761 169.00954056 1471.50028229 C167.43102562 1471.50331863 167.43102562 1471.50331863 165.82062149 1471.50641632 C148.07102268 1471.45094522 148.07102268 1471.45094522 143.90407181 1469.36746979 C143.94532181 1470.50184479 143.98657181 1471.63621979 144.02907181 1472.80496979 C144.03387571 1477.01799345 143.56844026 1481.02589702 142.98219681 1485.19559479 C141.92264037 1493.53949918 141.52386983 1501.89324819 141.19313431 1510.29325104 C141.16623268 1510.97576368 141.13933105 1511.65827633 141.11161423 1512.36147118 C140.9711456 1515.96279101 140.83509813 1519.56426547 140.70051956 1523.16580963 C137.40439799 1610.7848042 130.16420567 1700.21412979 43.90407181 1914.36746979 C43.20435257 1915.30260406 43.20435257 1915.30260406 42.49049759 1916.25662994 C36.86596446 1923.71204015 30.90806259 1930.75874752 24.51735306 1937.56668854 C22.11198449 1940.14463961 19.78661864 1942.7755018 17.46657181 1945.42996979 C8.30307999 1955.60079581 -2.21690293 1964.11943404 -13.09592819 1972.36746979 C-14.00713425 1973.06404694 -14.00713425 1973.06404694 -14.9367485 1973.77469635 C-67.8321495 2014.07993344 -135.37746991 2032.69711043 -200.09592819 2043.36746979 C-201.61524948 2043.62995514 -201.61524948 2043.62995514 -203.16526413 2043.89774323 C-218.64760487 2046.48239846 -234.12588817 2046.67131035 -249.78342819 2046.74246979 C-250.76609665 2046.75050629 -251.74876511 2046.75854279 -252.7612114 2046.76682281 C-271.67058398 2046.884108 -290.40739907 2045.28773614 -308.78342819 2040.61746979 C-309.81902878 2040.35925446 -310.85462936 2040.10103912 -311.92161179 2039.83499908 C-344.14501136 2031.5699867 -373.34701515 2016.71120677 -398.09592819 1994.36746979 C-398.94928757 1993.63399323 -399.80264694 1992.90051666 -400.68186569 1992.14481354 C-422.76405335 1972.95351165 -439.17112717 1948.4144705 -452.34592819 1922.49246979 C-452.79266891 1921.62227203 -453.23940964 1920.75207428 -453.69968796 1919.8555069 C-462.54215115 1901.9641977 -468.85710301 1882.80607866 -475.22092819 1863.92996979 C-475.56798813 1862.90398682 -475.91504807 1861.87800385 -476.27262497 1860.82093048 C-492.67897444 1812.2676675 -501.56142124 1763.34053883 -506.09592819 1712.36746979 C-506.16404709 1711.60400238 -506.23216599 1710.84053497 -506.30234909 1710.05393219 C-511.69837666 1648.99370566 -513.12106135 1587.60956665 -515.09592819 1526.36746979 C-515.63632736 1526.58821167 -516.17672653 1526.80895355 -516.73350143 1527.03638458 C-526.91794548 1531.18495633 -537.05854469 1535.31232003 -547.59592819 1538.49246979 C-548.67140915 1538.8188443 -549.74689011 1539.14521881 -550.8549614 1539.48148346 C-578.26540189 1547.57198126 -606.97075486 1552.44241742 -635.58811569 1552.57059479 C-637.17280151 1552.58104828 -637.17280151 1552.58104828 -638.78950119 1552.59171295 C-642.18335123 1552.60901185 -645.57703589 1552.61543372 -648.97092819 1552.61746979 C-650.13176926 1552.61847687 -651.29261032 1552.61948395 -652.48862839 1552.62052155 C-670.55663397 1552.60992374 -688.19402539 1551.97465212 -706.09592819 1549.36746979 C-707.61283249 1549.15864166 -707.61283249 1549.15864166 -709.16038132 1548.94559479 C-726.36957151 1546.53653122 -743.25360737 1542.58373059 -760.09592819 1538.36746979 C-760.95299362 1538.15509674 -761.81005905 1537.94272369 -762.69309616 1537.7239151 C-797.00859163 1529.04231141 -829.11980173 1511.34359625 -854.09592819 1486.36746979 C-855.30315963 1485.31053422 -856.51850088 1484.26281247 -857.74045944 1483.22293854 C-858.68369064 1482.41892609 -858.68369064 1482.41892609 -859.64597702 1481.59867096 C-860.12446091 1481.19237457 -860.60294479 1480.78607819 -861.09592819 1480.36746979 C-861.56152145 1480.72872955 -862.02711472 1481.08998932 -862.50681686 1481.46219635 C-880.0492491 1494.97377413 -898.4869167 1506.1734657 -919.09592819 1514.36746979 C-920.86516647 1515.07129791 -920.86516647 1515.07129791 -922.67014694 1515.78934479 C-967.73926937 1532.1414116 -1015.71518124 1526.9605854 -1058.59592819 1507.17996979 C-1073.54144858 1500.05474392 -1087.30445464 1490.84212033 -1100.09592819 1480.36746979 C-1101.10655319 1479.56051666 -1102.11717819 1478.75356354 -1103.15842819 1477.92215729 C-1111.37831512 1471.21652609 -1118.89492569 1463.77902644 -1126.40842819 1456.30496979 C-1126.92039749 1455.79826752 -1127.43236679 1455.29156525 -1127.95985031 1454.76950836 C-1134.81159202 1447.97230583 -1141.08517259 1440.93330568 -1147.09592819 1433.36746979 C-1148.18011629 1432.06175921 -1149.26822153 1430.75928367 -1150.36155319 1429.46121979 C-1158.02325245 1420.27322044 -1164.89028114 1410.69663482 -1171.51389694 1400.73905182 C-1173.04889069 1398.43798248 -1174.60084564 1396.149386 -1176.15842819 1393.86356354 C-1183.56749787 1382.94638888 -1190.43179255 1371.75230841 -1197.09592819 1360.36746979 C-1197.57497604 1359.55503815 -1198.0540239 1358.74260651 -1198.54758835 1357.90555573 C-1207.31724467 1343.00159157 -1215.34438515 1327.72328925 -1223.12778854 1312.28690338 C-1223.76561213 1311.02235439 -1224.40450228 1309.7583427 -1225.04453659 1308.49491119 C-1243.13291024 1272.78275048 -1258.7213698 1235.71636092 -1273.09592819 1198.36746979 C-1273.36348923 1197.67482025 -1273.63105026 1196.98217072 -1273.90671921 1196.2685318 C-1309.08590475 1105.16599534 -1337.47780062 1011.35113337 -1371.23972702 876.86325836 C-1372.03366675 873.62167739 -1372.83217647 870.38127245 -1373.63303757 867.14139557 C-1382.21783271 832.3856701 -1389.75810721 797.40406705 -1397.09592819 762.36746979 C-1397.48228439 760.52393921 -1397.48228439 760.52393921 -1397.87644577 758.64316559 C-1414.2316061 680.430964 -1428.32551891 601.93962528 -1428.34592819 521.86746979 C-1428.34637005 521.07187653 -1428.3468119 520.27628326 -1428.34726715 519.45658112 C-1428.35495536 492.99516597 -1427.82994372 466.71018435 -1425.09592819 440.36746979 C-1425.00871506 439.52234833 -1424.92150192 438.67722687 -1424.83164597 437.80649567 C-1416.09165684 354.19576446 -1393.55085118 271.13362459 -1272.80881882 121.73709869 C-1256.84495316 108.97237715 -1239.85927869 97.47813016 -1222.09592819 87.36746979 C-1221.24321335 86.88165436 -1220.3904985 86.39583893 -1219.51194382 85.89530182 C-1134.2028488 37.67518183 -1036.10093526 24.96653437 -906.09592819 29.36746979 C-905.33717392 29.42827728 -904.57841965 29.48908478 -903.79667282 29.55173492 C-845.07504411 34.32014229 -787.16808383 44.90556003 -730.09592819 59.36746979 C-728.92308273 59.66430664 -728.92308273 59.66430664 -727.72654343 59.9671402 C-705.80052676 65.53617337 -684.1921487 71.98340273 -662.65330124 78.89774323 C-661.72039764 79.19455994 -660.78749405 79.49137665 -659.82632065 79.79718781 C-658.07516709 80.35471456 -656.32585532 80.9180726 -654.57879257 81.48828888 C-648.95072686 83.27461429 -645.2035942 84.41646869 -639.68967819 81.67215729 C-638.32109604 80.86903722 -636.95684033 80.05851948 -635.59592819 79.24246979 C-614.7194317 67.24287012 -592.80801014 57.33787903 -570.09592819 49.36746979 C-568.90837936 48.9501358 -567.72083054 48.53280182 -566.49729538 48.10282135 C-516.85256298 30.89455803 -464.58581546 22.46846375 -412.09592819 21.36746979 C-411.16506393 21.34555573 -410.23419968 21.32364166 -409.27512741 21.30106354 C-367.10980765 20.44966889 -324.61905979 23.34904779 -282.78724289 28.54160309 C-281.04010533 28.75817748 -279.29268793 28.97250664 -277.54499435 29.18454742 C-261.71005899 31.10946775 -261.71005899 31.10946775 -255.20530319 32.70731354 C-239.60149232 36.42742739 -225.61330018 30.96431023 -210.69158554 26.5344162 C-201.38025395 23.80441742 -191.95224697 21.66571641 -182.47092819 19.61746979 C-181.60803177 19.43086792 -180.74513535 19.24426605 -179.85609055 19.05200958 C-146.52884343 11.89125554 -112.97605077 7.07319983 -79.09592819 3.36746979 C-78.25272018 3.27338837 -77.40951218 3.17930695 -76.54075241 3.08237457 C-51.08666498 0.26494233 -25.58131033 0.06402736 0 0 Z M-172.93088913 73.63065338 C-176.09772752 74.36788867 -179.27058925 75.06952436 -182.44749069 75.76200104 C-194.60027375 78.43704272 -206.58595132 81.52615813 -218.53342819 84.99246979 C-219.18428391 85.18056213 -219.83513962 85.36865448 -220.50571823 85.56244659 C-226.78462266 87.38484331 -232.97032326 89.27888277 -239.06858444 91.64090729 C-247.72247348 94.8093919 -254.99661035 92.6773937 -263.72092819 90.67996979 C-286.63658072 85.61652696 -309.72347281 81.58516079 -333.09592819 79.36746979 C-334.14342239 79.26725525 -334.14342239 79.26725525 -335.21207809 79.16501617 C-357.39614531 77.06522499 -379.49957525 76.0786318 -401.78342819 76.05496979 C-402.83286606 76.05147522 -403.88230392 76.04798065 -404.96354294 76.04438019 C-419.77406289 76.01689891 -434.36644976 76.83953733 -449.09592819 78.36746979 C-450.3420488 78.49307281 -451.5881694 78.61867584 -452.87205124 78.74808502 C-499.39210525 83.65734585 -544.82714274 95.11242413 -587.09592819 115.36746979 C-587.99182663 115.79269928 -588.88772507 116.21792877 -589.81077194 116.65604401 C-602.71874869 122.81860779 -615.97931975 129.29021226 -627.50217819 137.84403229 C-628.52311569 138.59426666 -629.54405319 139.34450104 -630.59592819 140.11746979 C-631.87983444 141.13067291 -631.87983444 141.13067291 -633.18967819 142.16434479 C-641.37932005 145.5546804 -654.11471564 138.38718886 -662.22092819 135.55496979 C-665.24382358 134.50522769 -668.26754068 133.45786042 -671.29124069 132.41043854 C-672.03074966 132.15402084 -672.77025864 131.89760315 -673.53217697 131.63341522 C-678.42680326 129.93837603 -683.32635917 128.25909122 -688.23655319 126.60965729 C-689.95020065 126.03320465 -689.95020065 126.03320465 -691.69846725 125.44510651 C-696.44759687 123.93873556 -701.24203753 122.67900157 -706.07249069 121.45731354 C-709.2658512 120.62592078 -712.3940025 119.64034195 -715.53733444 118.63700104 C-771.04254738 101.4452964 -830.80115427 89.73516012 -888.69016647 84.67508698 C-891.78892882 84.39519876 -894.88197292 84.07726383 -897.97610092 83.75072479 C-959.4139726 77.38625237 -1025.12690749 78.55677319 -1085.36106491 92.72635651 C-1088.12470179 93.37421496 -1090.89277339 93.9993798 -1093.66233444 94.62137604 C-1102.86283441 96.71474592 -1111.82317314 99.08167071 -1120.72874069 102.20340729 C-1123.79055655 103.26190047 -1126.85548831 104.1707468 -1129.97092819 105.05496979 C-1184.51620417 121.76614503 -1237.95880044 155.73305449 -1275.09592819 199.36746979 C-1275.92995163 200.31364166 -1276.76397507 201.25981354 -1277.62327194 202.23465729 C-1319.48919968 250.10750164 -1344.47780403 310.87541587 -1358.09592819 372.36746979 C-1358.35116257 373.50555084 -1358.60639694 374.6436319 -1358.86936569 375.81620026 C-1362.88832547 393.88411039 -1366.11483295 411.96234615 -1368.09592819 430.36746979 C-1368.18571945 431.19684052 -1368.27551071 432.02621124 -1368.36802292 432.88071442 C-1371.19210626 459.34357883 -1372.46176538 485.70366156 -1372.40842819 512.30496979 C-1372.40597092 513.56269196 -1372.40351364 514.82041412 -1372.4009819 516.11624908 C-1372.3186257 539.60854908 -1371.98487284 563.16804392 -1369.59592819 586.55496979 C-1369.51523087 587.36064392 -1369.43453354 588.16631805 -1369.35139084 588.99640656 C-1365.17279729 629.93331287 -1357.2011068 670.53840819 -1349.55363083 710.94217682 C-1348.9059106 714.37434256 -1348.26882071 717.80843523 -1347.63108444 721.24246979 C-1345.48873544 732.69098394 -1343.10464598 744.06801961 -1340.53440475 755.42801666 C-1339.02700849 762.10770199 -1337.57457029 768.79591815 -1336.18186569 775.50028229 C-1336.0171376 776.29322189 -1335.85240952 777.0861615 -1335.68268967 777.90312958 C-1335.34499749 779.52947006 -1335.00734115 781.15581799 -1334.6697197 782.78217316 C-1331.36070642 798.70489857 -1327.76193681 814.51881693 -1323.85129929 830.30594635 C-1322.78361706 834.63326863 -1321.7493185 838.96817153 -1320.72092819 843.30496979 C-1320.43826096 844.49098785 -1320.43826096 844.49098785 -1320.14988327 845.70096588 C-1318.93420297 850.80848111 -1317.73169025 855.91899236 -1316.53571701 861.03115082 C-1315.75463851 864.36729223 -1314.97062095 867.70274048 -1314.18644333 871.0381546 C-1313.8006887 872.68226674 -1313.41623218 874.32668415 -1313.03324509 875.97144318 C-1310.83829196 885.3959094 -1308.48958231 894.75000776 -1305.86021042 904.06317902 C-1304.14131535 910.15533395 -1302.58703847 916.27807175 -1301.09592819 922.42996979 C-1299.23415559 929.99611312 -1297.24717304 937.49080745 -1294.98386765 944.94608307 C-1293.25377382 950.69302718 -1291.7621527 956.48891565 -1290.28342819 962.30496979 C-1287.56819718 972.9226191 -1284.40597185 983.37411523 -1281.12327194 993.82840729 C-1279.62479976 998.61382683 -1278.19448467 1003.41673501 -1276.79124069 1008.23075104 C-1273.66806032 1018.92047525 -1270.35608977 1029.55084913 -1267.03342819 1040.17996979 C-1266.7061171 1041.22760498 -1266.378806 1042.27524017 -1266.04157639 1043.35462189 C-1260.41270358 1061.34958822 -1254.5980437 1079.27282075 -1248.53440475 1097.12577057 C-1247.56983899 1099.9660445 -1246.61097783 1102.8081387 -1245.65745163 1105.65213776 C-1220.51150928 1180.64665116 -1190.88487429 1255.82746225 -1151.09592819 1324.36746979 C-1150.24664901 1325.84645226 -1149.39766954 1327.32560689 -1148.54905319 1328.80496979 C-1138.79897025 1345.69904983 -1128.46010896 1362.20545862 -1116.46458054 1377.60184479 C-1115.15388289 1379.29270554 -1113.86554125 1380.99804111 -1112.58420944 1382.71121979 C-1097.34537774 1403.01231854 -1079.87055594 1422.62686771 -1059.09592819 1437.36746979 C-1058.50392624 1437.79318268 -1057.91192429 1438.21889557 -1057.30198288 1438.65750885 C-1028.99425104 1458.84725068 -996.75547772 1468.70160509 -961.85764694 1463.75418854 C-925.39876499 1457.10309238 -892.06878048 1430.70631669 -869.49827194 1402.34012604 C-866.65218635 1398.81838436 -863.69698805 1395.40438875 -860.72092819 1391.99246979 C-855.23541357 1385.6936379 -849.81596897 1379.34350213 -844.4343071 1372.95584869 C-823.07229261 1347.60355642 -823.07229261 1347.60355642 -815.40842819 1339.17996979 C-812.41674659 1335.88804774 -809.57068397 1332.52155672 -806.78342819 1329.05496979 C-802.37454712 1323.60370877 -797.66068839 1318.49033481 -792.88108444 1313.36746979 C-790.1224648 1310.40870957 -787.44981493 1307.38351894 -784.80295944 1304.32450104 C-782.75959389 1301.98187828 -780.6791196 1299.67473557 -778.59592819 1297.36746979 C-775.94478825 1294.43068514 -773.31302648 1291.48144437 -770.72092819 1288.49246979 C-767.26673515 1284.5241643 -763.70462261 1280.65734419 -760.14109421 1276.7876358 C-757.6088212 1274.03308887 -755.10572617 1271.26021903 -752.65842819 1268.42996979 C-748.10617873 1263.18238867 -743.350008 1258.12094378 -738.62913132 1253.02567291 C-736.27611411 1250.48081736 -733.93579284 1247.92441338 -731.59592819 1245.36746979 C-727.6019362 1241.00774887 -723.60290637 1236.65276021 -719.59592819 1232.30496979 C-719.09126022 1231.75647369 -718.58659225 1231.2079776 -718.06663132 1230.64286041 C-715.7869254 1228.17137462 -713.50210345 1225.71674226 -711.09592819 1223.36746979 C-705.79926729 1224.97949702 -700.91688563 1227.23069147 -695.90842819 1229.55496979 C-665.17106781 1243.57984728 -631.1196351 1253.04493298 -597.09592819 1252.36746979 C-598.66248578 1257.62004523 -602.05032009 1261.21327518 -605.53342819 1265.30496979 C-606.81080944 1266.82858728 -608.0868347 1268.35334258 -609.36155319 1269.87918854 C-610.31191452 1271.01493317 -610.31191452 1271.01493317 -611.28147507 1272.17362213 C-613.84521675 1275.27343144 -616.31873882 1278.43877066 -618.78342819 1281.61746979 C-647.94460158 1318.94590417 -684.44739098 1328.57065603 -729.54395676 1337.79514313 C-782.70603193 1348.22467411 -782.70603193 1348.22467411 -823.36936569 1381.51590729 C-830.37490774 1393.08614642 -832.59130844 1405.23611672 -829.59788132 1418.58914948 C-827.1577943 1426.90337569 -822.98409927 1434.04651244 -817.09592819 1440.36746979 C-815.92610397 1441.67264557 -815.92610397 1441.67264557 -814.73264694 1443.00418854 C-807.6641295 1450.51252485 -799.90253744 1456.08305469 -791.09592819 1461.36746979 C-790.50328171 1461.72437897 -789.91063522 1462.08128815 -789.30002975 1462.44901276 C-774.51136961 1471.19000594 -757.77646191 1477.40095794 -741.09592819 1481.36746979 C-740.16022995 1481.5914444 -739.22453171 1481.81541901 -738.26047897 1482.04618073 C-709.60106843 1488.78905566 -680.74305155 1492.58827594 -651.28342819 1492.61746979 C-650.47666641 1492.6188092 -649.66990463 1492.62014862 -648.83869553 1492.62152863 C-634.73600049 1492.61648468 -621.03675081 1491.56783387 -607.09592819 1489.36746979 C-605.4776702 1489.13538046 -603.85918953 1488.90483695 -602.24045944 1488.67606354 C-555.04370818 1481.7340342 -511.10944377 1460.1886859 -474.7648735 1429.72684479 C-472.9138011 1428.2191252 -471.00893647 1426.7954354 -469.09592819 1425.36746979 C-469.09925911 1427.24260254 -469.09925911 1427.24260254 -469.10265732 1429.15561676 C-469.12334116 1441.20665528 -469.13811032 1453.25768999 -469.14774036 1465.30874252 C-469.15285831 1471.49743413 -469.15974089 1477.68611093 -469.17136765 1483.87479401 C-469.25028494 1527.11246327 -468.94498853 1570.34857055 -467.15842819 1613.55496979 C-467.06954003 1615.77339017 -466.98075745 1617.99181478 -466.89207077 1620.21024323 C-466.67388312 1625.61715785 -466.44722481 1631.02368116 -466.21836472 1636.43015289 C-466.10449802 1639.16187515 -465.99581651 1641.89373098 -465.8898735 1644.62577057 C-464.14259198 1689.4970651 -461.44362329 1734.8910021 -455.09592819 1779.36746979 C-454.96476608 1780.28657135 -454.83360397 1781.20567291 -454.69846725 1782.15262604 C-453.94956979 1787.24901921 -453.08551592 1792.31251617 -452.09592819 1797.36746979 C-451.94655807 1798.13510651 -451.79718796 1798.90274323 -451.64329147 1799.69364166 C-439.20137856 1862.80003448 -406.18351687 1925.02554198 -352.24876022 1961.92948151 C-347.04133167 1965.40779339 -341.66760825 1968.50718799 -336.09592819 1971.36746979 C-335.03535202 1971.91612701 -335.03535202 1971.91612701 -333.95335007 1972.47586823 C-308.89477995 1985.28429759 -281.10697095 1992.42944175 -252.90061569 1992.57059479 C-251.95846207 1992.5776091 -251.01630844 1992.58462341 -250.04560471 1992.59185028 C-247.02066335 1992.60926255 -243.99591783 1992.61570306 -240.97092819 1992.61746979 C-239.93681808 1992.61814453 -238.90270798 1992.61881927 -237.8372612 1992.61951447 C-222.68332617 1992.60378852 -208.03084856 1992.12986063 -193.09592819 1989.36746979 C-192.05710495 1989.18522858 -191.01828171 1989.00298737 -189.94797897 1988.81522369 C-116.14329019 1975.81004005 -37.38596627 1948.46407411 7.43239212 1884.52811432 C19.63020448 1866.6199127 28.80974798 1847.42009004 36.90407181 1827.36746979 C37.21199661 1826.60611725 37.51992142 1825.84476471 37.83717728 1825.06034088 C49.23382101 1796.26045647 54.36045752 1765.19927567 59.19899368 1734.76346588 C59.77581077 1731.14329153 60.38293546 1727.5295225 61.01344681 1723.91825104 C65.92739026 1695.75021156 69.60689692 1667.36051456 73.07960892 1638.98416901 C74.41059997 1628.13650873 75.8653814 1617.31247359 77.40407181 1606.49246979 C79.40057945 1592.43718107 81.13776645 1578.36019265 82.78596878 1564.26007843 C84.02794374 1553.63626712 85.31837414 1543.02642766 86.77907181 1532.42996979 C90.01846579 1508.74516514 92.67449205 1484.98200226 95.45112991 1461.23960114 C95.9024194 1457.38159596 96.35460493 1453.52369658 96.80690384 1449.66580963 C97.52127876 1443.56843149 98.23259138 1437.47070379 98.94124222 1431.37265778 C99.20681276 1429.08884827 99.47304152 1426.80511521 99.73994827 1424.52146149 C100.10816209 1421.3675289 100.47336954 1418.21326323 100.83766556 1415.05887604 C101.00118263 1413.66471718 101.00118263 1413.66471718 101.16800308 1412.24239349 C101.31470695 1410.96347984 101.31470695 1410.96347984 101.46437454 1409.65872955 C101.59258842 1408.55332573 101.59258842 1408.55332573 101.72339249 1407.42559052 C101.90006958 1405.41305926 101.90407181 1403.38774127 101.90407181 1401.36746979 C103.69844681 1402.01715729 103.69844681 1402.01715729 105.52907181 1402.67996979 C129.03986712 1410.3961476 154.0965407 1410.88957162 178.59157181 1410.74246979 C179.93703964 1410.73832185 181.28250896 1410.73463369 182.62797928 1410.73139191 C204.17064802 1410.670182 225.49968148 1409.85358958 246.90407181 1407.36746979 C248.55608597 1407.18329498 248.55608597 1407.18329498 250.24147415 1406.99539948 C261.3724476 1405.72738022 272.29320023 1403.82742493 283.22438431 1401.38700104 C286.33511011 1400.69464717 289.44748349 1400.06950062 292.58375931 1399.50418854 C307.02385894 1396.87643566 320.91389333 1392.76849892 334.90407181 1388.36746979 C335.8665181 1388.07420807 336.82896439 1387.78094635 337.82057571 1387.47879791 C381.76646917 1374.00962653 426.62607045 1347.99579245 459.90407181 1316.36746979 C461.31418628 1315.13079185 462.73040781 1313.90102506 464.15407181 1312.67996979 C480.11919872 1298.68226255 496.48583512 1279.19979299 498.14235306 1257.20340729 C498.42762202 1243.90086511 494.83941989 1234.32665984 485.90407181 1224.36746979 C472.63216042 1212.15546799 455.14997284 1210.63308403 438.0110054 1211.18827057 C422.80972271 1212.06503793 407.74346932 1215.350104 392.84157181 1218.30496979 C258.5505317 1244.89617424 258.5505317 1244.89617424 209.20875931 1214.71903229 C207.06182861 1213.19884659 207.06182861 1213.19884659 204.90407181 1213.36746979 C205.31020706 1212.73582916 205.71634232 1212.10418854 206.1347847 1211.45340729 C222.88878051 1185.3796344 239.22616548 1159.1035226 254.90407181 1132.36746979 C255.24887589 1131.77947601 255.59367996 1131.19148224 255.94893265 1130.58567047 C270.47999139 1105.7827326 284.33664101 1080.65382251 297.49147415 1055.09549713 C299.11856743 1051.953233 300.77877328 1048.82975372 302.44484329 1045.70804596 C315.15255957 1021.8482738 327.0746194 997.54565025 338.27370071 972.94461823 C339.70355288 969.80742237 341.14178623 966.67431688 342.58382034 963.54271698 C376.34683167 890.19047678 404.77705821 814.73063596 429.45485306 737.87088776 C430.65420622 734.13760898 431.86876288 730.40954821 433.09157181 726.68387604 C436.81243763 715.29170593 440.02522045 703.80192203 443.08375931 692.21512604 C444.65310134 686.27478054 446.28705485 680.35408507 447.93751907 674.43582916 C460.51916585 629.27920937 469.929573 583.60156885 477.40236282 537.34061432 C477.90386778 534.36867886 478.44640263 531.40543493 478.99069595 528.44109344 C480.70332807 519.03326172 481.93178564 509.6213607 482.96657181 500.11746979 C483.13800952 498.57293336 483.30964282 497.02841864 483.48146439 495.48392487 C483.89295147 491.7649717 484.29623776 488.04519983 484.69447708 484.32480621 C484.88177469 482.57569523 485.07101472 480.82679249 485.26051712 479.07791901 C485.41278763 477.6569693 485.41278763 477.6569693 485.56813431 476.20731354 C485.65143997 475.42992828 485.73474564 474.65254303 485.82057571 473.85160065 C487.8528369 452.87903133 488.1424794 431.86308786 488.15407181 410.80496979 C488.15507889 409.5257666 488.15608597 408.24656342 488.15712357 406.9285965 C488.14734294 388.53713369 487.75623534 370.56537954 484.90407181 352.36746979 C484.76485306 351.38633209 484.62563431 350.4051944 484.48219681 349.39432526 C479.88149598 317.02434805 469.95266636 283.96912912 448.90407181 258.36746979 C448.19766556 257.48317291 447.49125931 256.59887604 446.76344681 255.68778229 C442.62491269 250.55183168 438.36542423 245.51601057 434.09157181 240.49246979 C433.65482132 239.97636139 433.21807083 239.46025299 432.76808548 238.92850494 C423.6688862 228.30233575 413.95629712 218.23298988 404.06740189 208.34549713 C402.33362237 206.60951023 400.60805643 204.86561868 398.88258743 203.12137604 C392.93398091 197.14360449 386.92099192 191.50923849 380.28956985 186.28543854 C377.85073667 184.3245877 375.56338293 182.255248 373.27907181 180.11746979 C305.97140904 118.96729036 212.80026602 80.5550641 123.90407181 65.36746979 C122.67011673 65.15493561 121.43616165 64.94240143 120.164814 64.72342682 C111.09135896 63.17477215 102.00672375 61.73342435 92.90407181 60.36746979 C91.41012894 60.13930573 91.41012894 60.13930573 89.8860054 59.90653229 C3.65019563 47.07481327 -88.30968675 53.67477988 -172.93088913 73.63065338 Z " fill="#000000" transform="translate(1430.0959281921387,-0.36746978759765625)"/>
<path d="M0 0 C2.79409727 0.0109122 5.58814733 0.01041708 8.38226223 0.010005 C29.86230367 0.01067977 51.27703875 0.36126588 72.64105225 2.75811768 C73.37747955 2.83942932 74.11390686 2.92074097 74.87265015 3.0045166 C114.48881596 7.46136796 153.24778295 16.39016598 190.95355225 29.19561768 C192.06794678 29.570896 193.18234131 29.94617432 194.33050537 30.33282471 C210.98446395 35.97982744 227.0235939 42.75792797 242.95355225 50.19561768 C243.84348877 50.60892334 244.73342529 51.022229 245.65032959 51.44805908 C282.43863317 68.69728708 317.38775753 92.44895421 347.371521 119.85968018 C348.75348077 121.10992517 350.14103328 122.35477874 351.56170654 123.56085205 C357.87933563 128.94861005 363.73133911 134.78729866 369.59832764 140.65509033 C371.37865477 142.43323539 373.16683602 144.20321329 374.95550537 145.97296143 C381.02985943 152.0182284 386.77323943 158.12021775 392.08319092 164.85772705 C393.9136024 167.14568168 395.83519103 169.2992919 397.82855225 171.44561768 C419.77875163 196.10679786 427.14874746 223.90233702 430.95355225 256.19561768 C431.072146 257.1788501 431.19073975 258.16208252 431.31292725 259.17510986 C433.71462736 280.08276709 433.2522906 301.18719312 432.95355225 322.19561768 C432.93953369 323.26763428 432.92551514 324.33965088 432.91107178 325.44415283 C432.27904426 360.75298929 427.319513 397.12715971 420.61224365 431.73712158 C419.97369286 435.08986826 419.35939365 438.44614834 418.75083923 441.8044281 C410.96964666 484.67421724 401.40914928 527.42788046 388.5927124 569.09259033 C387.67382818 572.11599319 386.81183874 575.15452851 385.95355225 578.19561768 C363.5208966 657.23529598 334.45460693 734.80383641 300.56390381 809.63946533 C299.43496409 812.13251202 298.30901816 814.62673199 297.18695068 817.12286377 C286.90537882 839.98361295 276.10583569 862.56901226 265.0133667 885.04669189 C264.02093038 887.05899884 263.03072148 889.07238189 262.04144287 891.08624268 C255.67413937 904.03285756 249.08847063 916.81803859 242.10980225 929.44561768 C239.50067985 934.17382425 236.95662897 938.93430726 234.42669678 943.70527649 C227.19889829 957.33175149 219.68841315 970.75034878 211.82513428 984.02325439 C209.81039926 987.43826442 207.81555426 990.86434577 205.824646 994.29327393 C195.62395313 1011.84223587 185.32774091 1029.37305221 173.95355225 1046.19561768 C170.35720481 1042.70202302 167.11903257 1039.08463637 163.95355225 1035.19561768 C165.28404678 1031.70759601 166.81634315 1028.46249118 168.605896 1025.18780518 C186.06523813 992.77520802 198.3537052 958.65593566 203.95355225 922.19561768 C204.2455249 920.38964111 204.2455249 920.38964111 204.543396 918.54718018 C213.00563083 864.45524769 206.9205657 809.62643204 200.10662842 755.72857666 C197.9861184 738.91024847 196.32658908 722.09093295 194.95355225 705.19561768 C194.87136444 704.31546494 194.78917664 703.43531219 194.70449829 702.52848816 C194.06270726 695.4401117 193.78103259 688.41686353 193.75042725 681.30108643 C193.74345825 680.20306198 193.73648926 679.10503754 193.72930908 677.97373962 C193.71199807 674.44349287 193.70558737 670.91340513 193.70355225 667.38311768 C193.70254517 666.17520569 193.70153809 664.9672937 193.70050049 663.72277832 C193.71104846 645.01285183 194.38980216 626.74823242 196.95355225 608.19561768 C197.11404053 606.99421143 197.27452881 605.79280518 197.43988037 604.55499268 C198.39121727 597.48152302 199.41358349 590.42096576 200.48040771 583.36407471 C201.06304142 579.46241308 201.60667829 575.5559441 202.14886475 571.64849854 C203.11010839 564.7363642 204.16939712 557.8674868 205.45355225 551.00811768 C206.79357966 543.75132669 207.72275728 536.46165248 208.57855225 529.13311768 C208.70165771 528.09324707 208.82476318 527.05337646 208.95159912 525.98199463 C210.60093047 511.36012549 211.1339141 496.73257214 211.45623779 482.03302002 C211.5158321 479.33060082 211.58100852 476.62835836 211.64691162 473.92608643 C211.77094062 468.68290153 211.86981275 463.43959191 211.95355225 458.19561768 C211.967883 457.35892548 211.98221375 456.52223328 211.99697876 455.66018677 C212.03419435 453.24620622 212.05862826 450.83245286 212.07855225 448.41827393 C212.08999771 447.71401276 212.10144318 447.00975159 212.11323547 446.28414917 C212.1400292 439.66999792 210.99055366 433.343417 209.25823975 426.96905518 C208.94258057 425.80454834 208.94258057 425.80454834 208.62054443 424.61651611 C208.40043701 423.81761963 208.18032959 423.01872314 207.95355225 422.19561768 C207.73344482 421.37093994 207.5133374 420.54626221 207.28656006 419.69659424 C199.85087312 392.22499772 188.34886412 365.74749197 175.95355225 340.19561768 C175.40054443 339.0525415 174.84753662 337.90946533 174.277771 336.73175049 C160.19215899 307.75767838 144.39231065 279.56563454 126.16888428 252.97149658 C124.90036003 251.11789165 123.64338414 249.25678609 122.387146 247.39483643 C111.8683068 231.87254571 100.6995452 216.8103615 88.95355225 202.19561768 C88.20847412 201.26749268 87.463396 200.33936768 86.69573975 199.38311768 C78.00346327 188.66575886 69.01538067 178.2171819 59.621521 168.10968018 C58.26039325 166.62300184 56.90093695 165.13348594 55.59832764 163.59527588 C49.79377816 156.75330971 43.39726591 150.4889805 37.04754639 144.15924072 C35.02092245 142.137975 32.99969677 140.11142194 30.97894287 138.08428955 C24.80666294 131.90882492 18.6370568 125.82289075 11.95355225 120.19561768 C10.34586852 118.7411625 8.7411551 117.28340873 7.14105225 115.82061768 C2.87745207 111.9775547 -1.49197048 108.30239034 -5.956604 104.69561768 C-8.20605441 102.87558195 -10.44118567 101.04342886 -12.6675415 99.19561768 C-27.21539399 87.16354543 -42.55553521 76.43802641 -58.23394775 65.94561768 C-58.85698792 65.52754852 -59.48002808 65.10947937 -60.12194824 64.67874146 C-87.86116511 46.09561365 -117.39075623 29.44297932 -148.04644775 16.19561768 C-144.9495497 14.13101897 -143.18782782 13.67212364 -139.58551025 13.01202393 C-138.48585938 12.80827148 -137.3862085 12.60451904 -136.25323486 12.39459229 C-135.07124512 12.18455566 -133.88925537 11.97451904 -132.67144775 11.75811768 C-131.44627441 11.53712402 -130.22110107 11.31613037 -128.95880127 11.08843994 C-118.3490633 9.20058867 -107.73547247 7.55787824 -97.04644775 6.19561768 C-95.8263501 6.03706299 -94.60625244 5.8785083 -93.34918213 5.71514893 C-89.85289748 5.26272086 -86.35491707 4.82533779 -82.85580444 4.39535522 C-80.86326991 4.14910044 -78.87168961 3.89515919 -76.88018799 3.64068604 C-51.3437454 0.50779834 -25.69439614 -0.12652859 0 0 Z " fill="#336791" transform="translate(1428.0464477539063,111.80438232421875)"/>
<path d="M0 0 C2.59759517 0.00316127 5.19404826 -0.02040057 7.79150391 -0.0456543 C21.74169055 -0.10020995 35.08860468 1.19938065 48.10791016 6.62817383 C48.86265625 6.9344873 49.61740234 7.24080078 50.39501953 7.55639648 C60.74773513 11.86111092 68.71146853 17.47477912 76.73291016 25.31567383 C77.84279297 26.33661133 77.84279297 26.33661133 78.97509766 27.37817383 C84.4071699 32.79091486 87.95105873 38.83413936 91.54541016 45.56567383 C92.00165771 46.41033203 92.45790527 47.25499023 92.92797852 48.12524414 C98.7687037 59.50739099 101.29345469 72.11616758 104.17041016 84.50317383 C104.39393661 85.4643663 104.39393661 85.4643663 104.62197876 86.44497681 C109.81733187 108.87564748 113.60435431 131.51163029 116.73291016 154.31567383 C116.90177734 155.52755371 117.07064453 156.73943359 117.24462891 157.98803711 C118.54427998 167.41661476 119.69966568 176.8547179 120.73291016 186.31567383 C120.81023376 187.01724609 120.88755737 187.71881836 120.96722412 188.44165039 C125.52615607 230.3344089 127.05271349 274.56867006 120.73291016 316.31567383 C120.62638123 317.03009644 120.51985229 317.74451904 120.41009521 318.48059082 C112.63986749 370.4559766 95.55873372 417.52406478 73.95458984 465.24633789 C63.79735926 487.69881588 55.03505618 510.56119771 46.66503906 533.73608398 C45.76444758 536.22839661 44.86042836 538.71944022 43.95556641 541.21020508 C38.18090338 557.12841664 32.63495591 573.02595852 28.26708984 589.3996582 C27.52183677 592.07275971 26.64274108 594.69469301 25.73291016 597.31567383 C-2.04529941 598.75523555 -30.3255449 591.09283273 -55.26708984 579.31567383 C-56.30567139 578.83445068 -56.30567139 578.83445068 -57.36523438 578.34350586 C-76.51655244 569.41408477 -93.43539821 557.73806842 -108.96240234 543.43286133 C-111.2555739 541.32625288 -113.60000714 539.29064102 -115.95458984 537.25317383 C-120.11262034 533.55310823 -123.70764254 529.58551502 -127.26708984 525.31567383 C-128.37310547 524.04143555 -128.37310547 524.04143555 -129.50146484 522.74145508 C-141.24078466 509.0393509 -150.98860554 494.33732117 -159.26708984 478.31567383 C-159.83290771 477.23890381 -159.83290771 477.23890381 -160.41015625 476.14038086 C-185.02156821 428.8484913 -190.55292151 375.81826354 -183.44610596 323.56661987 C-182.59447205 317.28406169 -181.80900313 310.99319765 -181.02099609 304.70239258 C-180.86491882 303.46362869 -180.70884155 302.22486481 -180.54803467 300.94856262 C-179.21639335 290.23535231 -178.18521717 279.51877868 -177.39208984 268.75317383 C-177.30947403 267.66434906 -177.30947403 267.66434906 -177.22518921 266.55352783 C-176.84559627 261.47713902 -176.54114716 256.39876253 -176.26708984 251.31567383 C-176.22116699 250.50963715 -176.17524414 249.70360046 -176.12792969 248.87313843 C-174.92699179 227.08215121 -175.0294693 205.25107125 -175.01870728 183.43425369 C-175.01762431 181.30433739 -175.01588942 179.17442133 -175.01351929 177.04450607 C-174.97875604 145.0951581 -175.41494578 113.29437645 -177.80975342 81.42227173 C-178.10583045 77.40665873 -178.34275999 73.39496071 -178.4375 69.36914062 C-178.45559723 68.65211472 -178.47369446 67.93508881 -178.49234009 67.19633484 C-178.26708984 65.31567383 -178.26708984 65.31567383 -176.19677734 62.70629883 C-175.18873047 61.99989258 -174.18068359 61.29348633 -173.14208984 60.56567383 C-172.57079346 60.1613916 -171.99949707 59.75710938 -171.41088867 59.34057617 C-169.39228939 57.9480595 -167.33959007 56.6265954 -165.26708984 55.31567383 C-164.47898926 54.81519531 -163.69088867 54.3147168 -162.87890625 53.79907227 C-143.71524983 41.79265869 -123.62799597 31.89216896 -102.70458984 23.37817383 C-102.04380432 23.1086792 -101.3830188 22.83918457 -100.70220947 22.56152344 C-87.14731324 17.06030001 -73.4165234 12.4440541 -59.26708984 8.69067383 C-57.5795459 8.24075073 -57.5795459 8.24075073 -55.85791016 7.78173828 C-47.70148313 5.63447481 -39.57996402 3.75676378 -31.26708984 2.31567383 C-30.2695166 2.13665527 -29.27194336 1.95763672 -28.24414062 1.77319336 C-18.80394484 0.24144311 -9.54735537 -0.02421366 0 0 Z " fill="#336791" transform="translate(813.26708984375,597.684326171875)"/>
<path d="M0 0 C0.85209045 -0.00200409 1.70418091 -0.00400818 2.58209229 -0.006073 C15.07344821 -0.01318768 27.43939105 0.50551673 39.875 1.6875 C40.58640137 1.7548938 41.29780273 1.8222876 42.03076172 1.89172363 C53.51380182 3.00690091 53.51380182 3.00690091 56 4.25 C56.17720271 14.68245818 55.69490933 24.9270892 54.6875 35.3125 C54.58671143 36.38309158 54.58671143 36.38309158 54.48388672 37.47531128 C53.08762119 52.29639759 51.46886601 67.07711954 48.5625 81.6875 C46.21840146 93.61772781 44.92613078 105.73493875 43.43017578 117.79541016 C43.08510159 120.56657918 42.73275139 123.33643185 42.37109375 126.10546875 C41.89047615 129.81795585 41.43670512 133.53210507 41 137.25 C40.91508301 137.95398926 40.83016602 138.65797852 40.74267578 139.38330078 C37.97113786 162.75342972 37.43418143 186.43271609 38.375 209.9375 C38.42140625 211.31131836 38.42140625 211.31131836 38.46875 212.71289062 C39.29566443 233.78542657 41.49026183 254.75195836 43.9375 275.6875 C44.20724143 278.02858417 44.47644216 280.3697307 44.74511719 282.7109375 C45.26466034 287.23445818 45.78622107 291.75773635 46.31005859 296.28076172 C54.26519454 365.01762266 59.49492724 432.93891778 31.80224609 498.34912109 C30.83664151 500.63706915 29.91189596 502.94017215 29 505.25 C28.34 505.25 27.68 505.25 27 505.25 C22.86180646 497.18704411 18.88847088 489.07353129 15.16381836 480.81030273 C6.67382771 461.97586819 -2.88202029 443.78355475 -13.12231445 425.84570312 C-18.71939529 416.03671586 -24.0714304 406.10055565 -29.42675781 396.15820312 C-30.93777715 393.3650215 -32.46168603 390.57942151 -33.9921875 387.796875 C-40.70226617 375.59450972 -47.18162433 363.28589992 -53.55859375 350.90625 C-55.71317101 346.72578081 -57.88885408 342.55831528 -60.09765625 338.40625 C-67.33871111 324.7713591 -73.97046672 310.90972209 -80.35888672 296.85595703 C-81.98014323 293.29363053 -83.61647084 289.73850687 -85.25390625 286.18359375 C-105.20570233 242.5951158 -123.30481957 196.86554046 -131.57714844 149.51098633 C-132.00693064 147.21294188 -132.51014842 144.94209971 -133.03515625 142.6640625 C-139.35675716 114.65015717 -139.33380306 79.5452341 -127 53.25 C-126.57074219 52.32316406 -126.14148437 51.39632812 -125.69921875 50.44140625 C-114.74270182 28.68268953 -95.23854822 16.4759858 -72.8125 8.9375 C-49.03467716 1.28023502 -24.79425969 0.02872436 0 0 Z " fill="#336791" transform="translate(1527,587.75)"/>
<path d="M0 0 C2.4097738 0.85345103 4.74157206 1.80138017 7.08251953 2.82861328 C8.33137939 3.37267822 8.33137939 3.37267822 9.60546875 3.92773438 C24.94533982 10.92713184 33.81116526 24.24873334 39.71533203 39.66064453 C43.52108652 50.83804953 44.75271006 63.71602678 39.56298828 74.67626953 C32.61404911 86.99211274 22.78877054 97.75152203 13.05761719 107.91552734 C11.74910804 109.28238342 10.45239224 110.66050308 9.15673828 112.03955078 C3.05406027 118.37195317 -3.57318671 123.78550783 -10.58886719 129.05615234 C-12.23603911 130.30120848 -13.8609408 131.57557646 -15.48388672 132.85205078 C-50.96309491 159.75530313 -95.44942249 170.63122791 -139.24975586 170.52148438 C-141.78554276 170.51612794 -144.32115204 170.52146257 -146.85693359 170.52783203 C-159.62861013 170.53396752 -172.41362082 170.30438715 -185.04248047 168.20361328 C-185.80882812 168.07760742 -186.57517578 167.95160156 -187.36474609 167.82177734 C-211.89916433 163.63694488 -235.08818346 158.74791075 -256.35498047 145.39111328 C-256.35498047 144.73111328 -256.35498047 144.07111328 -256.35498047 143.39111328 C-233.54904424 133.58635645 -208.21393329 129.33126959 -183.95263672 124.51220703 C-134.00806061 114.3654144 -94.83700566 93.75299765 -63.70947266 53.15722656 C-53.16348205 39.40638012 -42.12769232 26.11537891 -30.35498047 13.39111328 C-29.68982422 12.66021484 -29.02466797 11.92931641 -28.33935547 11.17626953 C-23.83226299 6.4118824 -19.25198136 3.24173819 -13.35498047 0.39111328 C-9.27667011 -1.6480419 -4.32169705 -1.11738673 0 0 Z " fill="#336791" transform="translate(920.35498046875,1263.60888671875)"/>
<path d="M0 0 C2.2109375 1.25 2.2109375 1.25 4.375 3 C36.10621804 26.51340259 79.03686467 30.20890938 117.125 30.3125 C118.11834351 30.31578308 119.11168701 30.31906616 120.13513184 30.32244873 C141.11147524 30.34460125 161.79002767 28.62612851 182.61752319 26.26757812 C185.06370239 25.99284553 187.51077077 25.72770899 189.95825195 25.46484375 C191.55681119 25.29173875 193.15536292 25.11856437 194.75390625 24.9453125 C195.47205505 24.86862335 196.19020386 24.7919342 196.93011475 24.71292114 C206.62628537 23.64774778 216.17092945 21.77113409 225.72947693 19.855896 C228.54677128 19.29212872 231.36517285 18.73398179 234.1835022 18.17541504 C236.28682326 17.75513071 238.38787402 17.32459268 240.48901367 16.89355469 C241.80118523 16.63173862 243.11343777 16.37032798 244.42578125 16.109375 C245.59536377 15.87186523 246.76494629 15.63435547 247.9699707 15.38964844 C250.75595781 15.03138275 252.39111132 15.06530521 255 16 C227.28988252 41.04921216 193.75899521 60.50037678 159 74 C158.00202393 74.39711182 158.00202393 74.39711182 156.98388672 74.80224609 C132.4501394 84.48226968 106.18016515 88.84383687 80.20733643 92.66998291 C78.10871163 92.98374661 76.01299539 93.31216851 73.91748047 93.64599609 C53.82045964 96.81290352 33.82949848 97.41072875 13.5 97.5 C12.28681091 97.51053406 11.07362183 97.52106812 9.82366943 97.53192139 C-45.11622793 97.90115738 -45.11622793 97.90115738 -62 85 C-62.61523438 82.23535156 -62.61523438 82.23535156 -62.59375 78.890625 C-62.5935083 77.66794922 -62.5932666 76.44527344 -62.59301758 75.18554688 C-62.56232178 73.88681641 -62.53162598 72.58808594 -62.5 71.25 C-62.47232544 69.2709668 -62.47232544 69.2709668 -62.4440918 67.25195312 C-62.00915048 47.84134891 -58.2708277 29.78907131 -43.9375 15.875 C-33.99559195 7.42189681 -21.30787331 4.39480901 -9 1 C-5.70381548 -0.09872817 -3.45604224 -0.27998317 0 0 Z " fill="#346791" transform="translate(1599,1256)"/>
<path d="M0 0 C2.11785384 -0.0095625 4.23467461 -0.04053726 6.35229492 -0.07226562 C25.80797334 -0.22557865 47.85935581 4.3637863 62.2878418 18.30273438 C66.31102918 22.40719827 68.14386575 25.55537752 68.2878418 31.36523438 C68.06634453 40.14352082 64.27426506 46.04030482 58.4128418 52.36523438 C46.36757508 63.76425727 32.80993174 68.79035069 16.38061523 68.65600586 C-1.09959974 68.12339029 -14.91845992 59.54269673 -26.7355957 47.15039062 C-33.95746199 38.44441913 -38.82699068 29.60006764 -38.1496582 18.24023438 C-37.89534861 15.88248271 -37.54788453 13.57981406 -37.1496582 11.24023438 C-36.4277832 10.99273438 -35.7059082 10.74523437 -34.9621582 10.49023438 C-32.10032925 9.37904375 -32.10032925 9.37904375 -29.9621582 7.36523438 C-20.91676328 0.53093599 -10.88750224 0.02959566 0 0 Z " fill="#FDFEFE" transform="translate(821.149658203125,629.759765625)"/>
<path d="M0 0 C2.93823088 2.74601017 3.60762446 5.11274623 4.171875 9.0625 C3.83574216 19.70011585 -4.15957487 28.49231762 -11.328125 35.5625 C-11.96621094 36.21089844 -12.60429688 36.85929688 -13.26171875 37.52734375 C-22.60998529 46.40916871 -34.33393792 50.95816334 -47.078125 50.875 C-47.97265381 50.86936035 -48.86718262 50.8637207 -49.78881836 50.85791016 C-63.22965157 50.61020937 -74.70350974 45.55087237 -84.609375 36.35546875 C-89.23444579 31.53067899 -92.72466112 26.44191068 -93.765625 19.75 C-92.93308716 13.68436716 -89.52770296 9.240972 -84.828125 5.4375 C-76.24780765 -0.49277584 -66.46617071 -4.22209493 -56.328125 -6.4375 C-55.48894531 -6.64246094 -54.64976563 -6.84742188 -53.78515625 -7.05859375 C-35.99709101 -10.7804833 -15.33827166 -10.60993227 0 0 Z " fill="#FDFDFE" transform="translate(1526.328125,623.4375)"/>
</svg>
