<?xml version="1.0" encoding="UTF-8"?>
<svg version="1.1" xmlns="http://www.w3.org/2000/svg" width="2300" height="2000">
<path d="M0 0 C1.19946259 -0.01467567 1.19946259 -0.01467567 2.42315674 -0.02964783 C5.06602378 -0.05950019 7.70883907 -0.0809914 10.35180664 -0.09985352 C11.26744448 -0.10642534 12.18308231 -0.11299717 13.12646675 -0.11976814 C17.99917173 -0.15236016 22.87185534 -0.17677954 27.74462891 -0.19628906 C31.71176786 -0.21387831 35.6781656 -0.24832707 39.64501953 -0.29882813 C126.11746039 -1.37323958 205.60193922 36.43033166 277.82446289 81.20874023 C278.74163086 81.77512207 279.65879883 82.34150391 280.60375977 82.92504883 C292.5875389 90.33800339 304.26510594 98.15184369 315.82446289 106.20874023 C316.9029248 106.95873291 316.9029248 106.95873291 318.00317383 107.72387695 C333.71409723 118.66811919 349.17353948 129.95079903 364.15063477 141.88208008 C365.87283616 143.24708043 367.60481113 144.59869039 369.34008789 145.94702148 C375.75014894 150.93331021 382.04209252 156.02252312 388.21582031 161.29907227 C391.33025892 163.95800582 394.48177903 166.55100888 397.69946289 169.08374023 C403.27147825 173.50168121 408.60863524 178.17895161 413.96508789 182.85327148 C416.41917445 184.99353466 418.88547333 187.11719536 421.37133789 189.22045898 C428.25435054 195.04745575 434.95044058 201.02525016 441.50024414 207.22607422 C444.53070469 210.0915974 447.59277713 212.90005748 450.74243164 215.63452148 C455.01472469 219.34778922 459.14733605 223.19726132 463.26196289 227.08374023 C464.00115967 227.78047852 464.74035645 228.4772168 465.50195312 229.19506836 C470.70177493 234.11080624 475.82863822 239.0848175 480.82446289 244.20874023 C483.9632567 242.82115843 486.04701084 241.21350616 488.43383789 238.75952148 C489.44317383 237.73375 489.44317383 237.73375 490.47290039 236.68725586 C491.16641602 235.9724707 491.85993164 235.25768555 492.57446289 234.52124023 C497.17979287 229.79771262 501.83042161 225.24625724 506.83325195 220.94384766 C510.25421414 217.96287925 513.53073724 214.82877332 516.82446289 211.70874023 C521.47852569 207.30010653 526.18363904 202.97863183 531.02514648 198.77612305 C533.26033702 196.8290507 535.44916292 194.83379555 537.63696289 192.83374023 C542.00596972 188.88624555 546.52439131 185.16449433 551.10180664 181.46264648 C553.76583642 179.2572732 556.33234731 176.97697714 558.88696289 174.64624023 C562.76954254 171.11551936 566.76046827 167.80156386 570.88305664 164.55639648 C573.16809533 162.73261394 575.42570253 160.88779958 577.67211914 159.01733398 C585.22469024 152.72937536 592.83656918 146.58933311 600.73974609 140.74658203 C605.01382676 137.58343866 609.21491543 134.34358559 613.38696289 131.04711914 C621.76468991 124.43475083 630.3614696 118.28214153 639.22680664 112.34155273 C642.61474612 110.0626283 645.92057125 107.6923988 649.21118164 105.27514648 C654.59304048 101.33877604 660.10318403 97.64440011 665.69946289 94.02124023 C666.69486084 93.37541992 667.69025879 92.72959961 668.71582031 92.06420898 C730.24340863 52.28407107 795.67298334 18.5255652 867.82446289 3.20874023 C869.65855965 2.81916641 869.65855965 2.81916641 871.52970886 2.42172241 C882.63322239 0.20023729 893.40752029 -0.26535692 904.70727539 -0.26000977 C906.57844256 -0.26714166 908.44960763 -0.27484484 910.32077026 -0.28308105 C914.2185475 -0.29641888 918.11612257 -0.29814418 922.01391602 -0.29223633 C925.96051522 -0.28752765 929.90631108 -0.30137085 933.8527832 -0.33325195 C975.74638091 -0.66779222 975.74638091 -0.66779222 994.82446289 5.20874023 C996.02506348 5.5385791 997.22566406 5.86841797 998.46264648 6.20825195 C1001.32826297 7.02321911 1004.13464021 7.92191863 1006.94946289 8.89624023 C1007.93188965 9.23163818 1008.91431641 9.56703613 1009.92651367 9.91259766 C1032.08176533 17.71126048 1052.72752193 29.23653038 1070.82446289 44.20874023 C1071.39648438 44.67924805 1071.96850586 45.14975586 1072.55786133 45.63452148 C1084.48954912 55.50273681 1095.2503111 65.98998008 1104.82446289 78.20874023 C1105.60305664 79.17038086 1106.38165039 80.13202148 1107.18383789 81.12280273 C1171.91486516 162.55196124 1180.10103371 278.13047078 1169.82446289 442.20874023 C1162.72637452 503.21341407 1150.99483026 563.71520887 1135.82446289 623.20874023 C1137.07485352 623.41756836 1138.32524414 623.62639648 1139.61352539 623.84155273 C1148.31609651 625.58938773 1156.7392608 628.43388901 1165.19946289 631.08374023 C1166.12285461 631.37152344 1167.04624634 631.65930664 1167.99761963 631.95581055 C1249.7142548 657.43267929 1332.05904895 687.30516482 1405.52807617 731.83227539 C1408.56872099 733.65485199 1411.66026337 735.36719344 1414.76196289 737.08374023 C1421.48227377 740.90736539 1427.99283967 745.05325628 1434.51196289 749.20874023 C1435.55795654 749.87373535 1436.6039502 750.53873047 1437.68164062 751.22387695 C1444.58035186 755.65234299 1451.23634832 760.33275241 1457.82446289 765.20874023 C1459.37953039 766.33891632 1460.9354803 767.46787952 1462.49243164 768.59545898 C1472.87046078 776.15770874 1482.97704158 783.96740157 1492.82446289 792.20874023 C1493.45787598 792.73773926 1494.09128906 793.26673828 1494.74389648 793.81176758 C1501.0333707 799.08228571 1507.20330454 804.37263988 1512.90185547 810.28857422 C1514.73187938 812.11627429 1516.62224808 813.79035545 1518.59399414 815.46264648 C1522.70014616 819.03142571 1526.44362164 822.8437135 1530.13696289 826.83374023 C1531.11234009 827.88404419 1531.11234009 827.88404419 1532.10742188 828.95556641 C1564.87781906 864.45380358 1591.23405812 906.64581982 1601.82446289 954.20874023 C1602.03474121 955.14862793 1602.24501953 956.08851563 1602.46166992 957.05688477 C1610.14306018 993.25003872 1607.40137644 1032.2190239 1595.82446289 1067.20874023 C1595.44016113 1068.38412354 1595.44016113 1068.38412354 1595.0480957 1069.58325195 C1584.56880557 1101.09343866 1567.33852806 1130.00034064 1545.82446289 1155.20874023 C1544.92555494 1156.28126278 1544.02714359 1157.35420168 1543.12915039 1158.42749023 C1531.83181298 1171.85264594 1519.94413106 1184.5528367 1506.82446289 1196.20874023 C1504.94877633 1197.93716214 1503.07376501 1199.66631713 1501.19946289 1201.39624023 C1496.23575166 1205.8952636 1491.1079466 1210.0931845 1485.82446289 1214.20874023 C1484.48040323 1215.27084848 1483.13668187 1216.33338492 1481.79321289 1217.39624023 C1471.70227144 1225.34842515 1461.42113849 1232.94474373 1450.82446289 1240.20874023 C1450.21070801 1240.63074707 1449.59695312 1241.05275391 1448.96459961 1241.48754883 C1421.6391366 1260.20108127 1392.78777345 1276.5193645 1363.26098633 1291.46704102 C1360.06101346 1293.08885165 1356.86797651 1294.72356009 1353.67602539 1296.36108398 C1302.61556723 1322.40619776 1248.34371223 1342.70729476 1193.82446289 1360.20874023 C1192.60614777 1360.59993042 1192.60614777 1360.59993042 1191.36322021 1360.99902344 C1185.45806724 1362.89280844 1179.5490583 1364.77424522 1173.63696289 1366.64624023 C1172.86084656 1366.89199799 1172.08473022 1367.13775574 1171.28509521 1367.39096069 C1163.00803787 1370.00659916 1154.71595924 1372.5714101 1146.39868164 1375.05639648 C1145.68162552 1375.27347763 1144.9645694 1375.49055878 1144.2257843 1375.71421814 C1141.31771397 1376.57449486 1138.87523769 1377.20874023 1135.82446289 1377.20874023 C1136.09484375 1378.28800781 1136.36522461 1379.36727539 1136.64379883 1380.47924805 C1159.5954584 1472.52278949 1176.11610324 1567.20828042 1176.01196289 1662.33374023 C1176.01135864 1663.36888763 1176.01075439 1664.40403503 1176.01013184 1665.47055054 C1175.89858281 1736.57148871 1166.84854936 1808.43955567 1135.82446289 1873.20874023 C1135.21417236 1874.48515381 1135.21417236 1874.48515381 1134.59155273 1875.78735352 C1126.38277646 1892.69212365 1116.09250363 1908.95065472 1103.82446289 1923.20874023 C1102.89133027 1924.32392252 1101.95911357 1925.43987155 1101.02758789 1926.55639648 C1091.81713382 1937.52960981 1082.11005252 1947.3382364 1070.82446289 1956.20874023 C1069.31045898 1957.43077148 1069.31045898 1957.43077148 1067.76586914 1958.67749023 C1059.87688286 1964.97917005 1051.60725305 1970.24588469 1042.82446289 1975.20874023 C1042.18589355 1975.57854004 1041.54732422 1975.94833984 1040.8894043 1976.3293457 C1018.26970057 1989.37373327 990.05062225 2000.24982366 963.67724609 2000.40161133 C962.88093277 2000.40978882 962.08461945 2000.41796631 961.26417542 2000.4263916 C958.63453885 2000.45113986 956.00495681 2000.46775478 953.37524414 2000.48217773 C952.01084733 2000.49016325 952.01084733 2000.49016325 950.61888695 2000.49831009 C945.78320538 2000.52502473 940.94754918 2000.54438568 936.11181641 2000.55883789 C932.16593528 2000.57203939 928.22058835 2000.59963337 924.27490234 2000.64086914 C901.87616629 2000.86950489 880.69655191 2000.65037636 858.82446289 1995.20874023 C857.35841394 1994.87248744 855.89175606 1994.53887097 854.42431641 1994.20874023 C850.90837054 1993.38386359 847.4306251 1992.48129515 843.94946289 1991.52124023 C842.71953613 1991.18656738 841.48960938 1990.85189453 840.22241211 1990.50708008 C818.16542177 1984.36594222 796.75561086 1976.46175588 775.82446289 1967.20874023 C774.80352539 1966.75805176 773.78258789 1966.30736328 772.73071289 1965.84301758 C745.41668847 1953.69453054 719.30782629 1939.81150864 693.82446289 1924.20874023 C692.78418945 1923.57436035 691.74391602 1922.93998047 690.67211914 1922.28637695 C676.08215569 1913.36543304 661.85588075 1903.98238642 647.82446289 1894.20874023 C646.68654297 1893.41838379 646.68654297 1893.41838379 645.52563477 1892.61206055 C629.84877164 1881.70550296 614.43642594 1870.43564424 599.49829102 1858.53540039 C597.77608962 1857.17040004 596.04411465 1855.81879007 594.30883789 1854.47045898 C587.89877684 1849.48417026 581.60683326 1844.39495735 575.43310547 1839.1184082 C572.31866686 1836.45947465 569.16714675 1833.86647159 565.94946289 1831.33374023 C560.37744754 1826.91579926 555.04029054 1822.23852886 549.68383789 1817.56420898 C547.22975133 1815.42394581 544.76345245 1813.3002851 542.27758789 1811.19702148 C535.35241064 1805.33432916 528.63027842 1799.30618624 522.02563477 1793.08374023 C518.25971586 1789.5365389 514.43497594 1786.08609951 510.51196289 1782.71264648 C508.09706086 1780.56047685 505.85608348 1778.24993957 503.59008789 1775.94311523 C501.81222205 1774.19671604 499.96960894 1772.57654784 498.07446289 1770.95874023 C492.70385429 1766.33874819 487.78912947 1761.25554284 482.82446289 1756.20874023 C479.7946886 1757.56105211 477.73973676 1759.06354566 475.43383789 1761.43920898 C474.81057617 1762.07407227 474.18731445 1762.70893555 473.54516602 1763.36303711 C472.89483398 1764.03399414 472.24450195 1764.70495117 471.57446289 1765.39624023 C467.022723 1770.02668456 462.47540405 1774.54673822 457.51196289 1778.73999023 C455.69505856 1780.32136993 454.01235009 1781.99071219 452.32446289 1783.70874023 C449.37846074 1786.70108399 446.29463282 1789.46198196 443.11352539 1792.20092773 C440.88881817 1794.15229208 438.71293024 1796.1504248 436.54370117 1798.16308594 C431.35972208 1802.971115 426.04996164 1807.52724124 420.53930664 1811.96264648 C417.71772794 1814.29704613 415.01855577 1816.72864622 412.32446289 1819.20874023 C407.90456266 1823.27179299 403.35619136 1827.10846911 398.68383789 1830.87670898 C396.18644399 1832.91351795 393.73229824 1834.99204079 391.28930664 1837.09350586 C385.11499691 1842.39552368 378.75131306 1847.39213512 372.26123047 1852.30151367 C367.56718789 1855.85682698 362.95773856 1859.4968241 358.38696289 1863.20874023 C350.81582729 1869.32598372 342.95802901 1875.01265163 335.02270508 1880.64575195 C332.99516735 1882.08736641 330.97522816 1883.53891199 328.95727539 1884.99389648 C301.60523226 1904.61994319 273.23199604 1922.82581557 243.82446289 1939.20874023 C242.42719971 1939.98967041 242.42719971 1939.98967041 241.00170898 1940.78637695 C193.59407021 1967.18280897 143.25756006 1987.91197278 89.82446289 1998.20874023 C89.03699173 1998.37719955 88.24952057 1998.54565887 87.43818665 1998.71922302 C77.86076661 2000.58077116 68.36563321 2000.55518165 58.64868164 2000.57983398 C56.79279013 2000.58883001 54.93689922 2000.59795223 53.08100891 2000.60719299 C49.20047258 2000.62360454 45.32002163 2000.63136769 41.43945312 2000.63427734 C37.50721076 2000.63856798 33.57562863 2000.65931449 29.64355469 2000.69580078 C-12.38346091 2001.07882437 -12.38346091 2001.07882437 -31.17553711 1995.20874023 C-32.5471122 1994.79862198 -32.5471122 1994.79862198 -33.94639587 1994.38021851 C-76.10929862 1981.74692 -113.9470858 1956.95833719 -141.17553711 1922.20874023 C-141.95413086 1921.24709961 -142.73272461 1920.28545898 -143.53491211 1919.29467773 C-186.12073203 1865.72334376 -202.64977703 1796.41276673 -209.42553711 1729.64624023 C-209.50871185 1728.83568176 -209.5918866 1728.02512329 -209.67758179 1727.19000244 C-211.79820664 1706.2246795 -212.38509908 1685.27220582 -212.36303711 1664.20874023 C-212.36243286 1663.12713623 -212.36182861 1662.04553223 -212.36120605 1660.93115234 C-212.22084458 1567.43671571 -196.48152954 1473.92719811 -172.17553711 1377.20874023 C-173.41561523 1376.94963867 -174.65569336 1376.69053711 -175.93334961 1376.42358398 C-181.71876412 1375.13430808 -187.37416945 1373.47058636 -193.05053711 1371.77124023 C-194.21472168 1371.42343506 -195.37890625 1371.07562988 -196.57836914 1370.71728516 C-200.44648843 1369.55553006 -204.31170887 1368.38466758 -208.17553711 1367.20874023 C-208.84488281 1367.00531006 -209.51422852 1366.80187988 -210.20385742 1366.59228516 C-256.772456 1352.42092149 -302.61809703 1335.84657813 -347.17553711 1316.20874023 C-347.76971436 1315.94764465 -348.3638916 1315.68654907 -348.97607422 1315.4175415 C-380.45323267 1301.57541093 -411.52072997 1286.64916984 -441.17553711 1269.20874023 C-443.09181448 1268.09739162 -445.00849062 1266.98673036 -446.92553711 1265.87670898 C-456.9613505 1260.03787513 -466.82008385 1254.02599281 -476.38354492 1247.44018555 C-478.24239851 1246.16279352 -480.11045924 1244.89978491 -481.98022461 1243.63842773 C-496.51495434 1233.7929627 -510.71760985 1223.48776498 -524.17553711 1212.20874023 C-525.96717378 1210.77120285 -527.7588413 1209.33370392 -529.55053711 1207.89624023 C-535.43182003 1203.08428148 -540.97133207 1197.94529723 -546.51391602 1192.75268555 C-548.15214601 1191.23047478 -549.80668039 1189.72856144 -551.46850586 1188.23217773 C-559.16800665 1181.27886384 -566.29048123 1173.96667807 -573.17553711 1166.20874023 C-573.65845215 1165.67055664 -574.14136719 1165.13237305 -574.63891602 1164.57788086 C-604.71599206 1130.95582724 -628.32070513 1090.46810515 -638.17553711 1046.20874023 C-638.38581543 1045.26885254 -638.59609375 1044.32896484 -638.81274414 1043.3605957 C-644.89615067 1014.69681721 -644.54221347 982.77527037 -638.17553711 954.20874023 C-637.97186523 953.28077637 -637.76819336 952.3528125 -637.55834961 951.39672852 C-624.44169941 893.81908731 -586.75708749 842.90035509 -543.17553711 804.20874023 C-541.84329102 802.96930664 -541.84329102 802.96930664 -540.48413086 801.70483398 C-533.98323621 795.65815031 -527.18080037 790.15320089 -520.15454102 784.74194336 C-518.03998078 783.10372004 -515.94091332 781.44698434 -513.84350586 779.78686523 C-504.80952011 772.6567279 -495.63492846 765.86828687 -486.06518555 759.47485352 C-484.25292647 758.2605931 -482.4514247 757.03190289 -480.65209961 755.79858398 C-455.02221965 738.33095008 -427.77323602 723.30199928 -400.17553711 709.20874023 C-399.05856445 708.63397949 -397.9415918 708.05921875 -396.79077148 707.46704102 C-367.32338662 692.33063308 -337.08553523 679.12137352 -306.17553711 667.20874023 C-305.05598633 666.77658203 -305.05598633 666.77658203 -303.91381836 666.33569336 C-279.55220188 656.94253278 -255.03550932 648.1891408 -230.17553711 640.20874023 C-228.95722198 639.81755005 -228.95722198 639.81755005 -227.71429443 639.41845703 C-221.80914146 637.52467203 -215.90013252 635.64323525 -209.98803711 633.77124023 C-209.21192078 633.52548248 -208.43580444 633.27972473 -207.63616943 633.02651978 C-199.35911209 630.41088131 -191.06703346 627.84607037 -182.74975586 625.36108398 C-182.03269974 625.14400284 -181.31564362 624.92692169 -180.57685852 624.70326233 C-177.66878819 623.84298561 -175.2263119 623.20874023 -172.17553711 623.20874023 C-172.44591797 622.12947266 -172.71629883 621.05020508 -172.99487305 619.93823242 C-195.95442506 527.86303976 -212.46225282 433.17370077 -212.36303711 338.02124023 C-212.36243286 336.9371286 -212.36182861 335.85301697 -212.36120605 334.73605347 C-212.23381014 249.86629524 -199.61350534 160.64470093 -121.54272461 56.57543945 C-108.86500639 44.12020582 -94.63907806 33.90698202 -79.17553711 25.20874023 C-78.54131836 24.84184082 -77.90709961 24.47494141 -77.25366211 24.09692383 C-54.59868767 11.03066732 -26.40829279 0.2071828 0 0 Z M-47.17553711 123.20874023 C-47.9837793 123.88420898 -48.79202148 124.55967773 -49.62475586 125.25561523 C-88.69864312 158.87019956 -102.71129417 215.46052438 -109.42553711 264.27124023 C-109.57659912 265.35477783 -109.72766113 266.43831543 -109.88330078 267.5546875 C-112.78348336 290.17872882 -113.55683249 312.92220246 -113.48803711 335.70874023 C-113.48621429 336.97911133 -113.48439148 338.24948242 -113.48251343 339.55834961 C-113.29904529 416.24444467 -110.77195183 529.01591079 -76.17553711 598.20874023 C-69.93863124 597.52822653 -63.89817997 596.38434844 -57.76928711 595.05639648 C-55.67158313 594.60964835 -53.5737583 594.16346736 -51.47583008 593.71777344 C-50.37059998 593.48224762 -49.26536987 593.2467218 -48.12664795 593.00405884 C33.51575403 575.66788107 116.32994721 563.16450961 199.39916992 555.05981445 C200.5285347 554.94777176 201.65789948 554.83572906 202.82148743 554.72029114 C204.90602356 554.51439782 206.99111207 554.31398396 209.076828 554.1204071 C217.85014594 553.5274579 217.85014594 553.5274579 225.53027344 549.78271484 C225.91997314 549.23107666 226.30967285 548.67943848 226.71118164 548.11108398 C227.16799316 547.48355225 227.62480469 546.85602051 228.09545898 546.20947266 C228.56290527 545.52860596 229.03035156 544.84773926 229.51196289 544.14624023 C230.0232373 543.4337915 230.53451172 542.72134277 231.0612793 541.98730469 C232.66748737 539.74023581 234.24729352 537.47625804 235.82446289 535.20874023 C236.8062994 533.81724201 237.78934426 532.42659549 238.77368164 531.03686523 C240.24950841 528.95016421 241.72335069 526.86219689 243.19140625 524.77001953 C254.30942331 508.93548501 266.05436075 493.56090515 277.82446289 478.20874023 C278.30367187 477.58273926 278.78288086 476.95673828 279.27661133 476.31176758 C281.67545137 473.17838493 284.08109191 470.05035515 286.49487305 466.9284668 C287.46138721 465.67835189 288.42710153 464.42761847 289.39233398 463.17651367 C296.20207502 454.35466985 303.07906856 445.59976128 310.13574219 436.97387695 C313.62964847 432.69838986 317.05796909 428.3782666 320.44946289 424.02124023 C324.48300644 418.84612775 328.65079068 413.80699474 332.91308594 408.8190918 C335.5909139 405.68178324 338.20600444 402.50843554 340.76196289 399.27124023 C345.43275163 393.38281207 350.35005249 387.71192949 355.26000977 382.02319336 C357.2893452 379.66956962 359.31172019 377.31003377 361.33325195 374.94970703 C362.3294597 373.78664916 363.32620693 372.62405316 364.32348633 371.46191406 C366.83155495 368.53896161 369.33359761 365.61121579 371.82446289 362.67358398 C377.78037807 355.6628645 383.88343834 348.82726494 390.15258789 342.09545898 C392.81669328 339.2171346 395.40268778 336.28644012 397.96508789 333.31811523 C400.9477593 329.93441238 404.02014737 326.632238 407.09423828 323.33154297 C409.22074812 321.03282775 411.0822516 318.82205717 412.82446289 316.20874023 C410.16212089 313.51692749 407.49379622 310.83111877 404.82446289 308.14624023 C404.08067383 307.39407227 403.33688477 306.6419043 402.57055664 305.86694336 C398.44849669 301.72696141 394.24892402 297.76272669 389.82055664 293.953125 C385.4825767 290.16216773 381.35424551 286.13869747 377.17993164 282.16967773 C372.49227721 277.73054612 367.71756937 273.4201759 362.82446289 269.20874023 C362.2642041 268.72630859 361.70394531 268.24387695 361.12670898 267.74682617 C359.50731937 266.35654477 357.88515763 264.96957648 356.26196289 263.58374023 C352.51738081 260.38507345 348.78126078 257.17830981 345.07836914 253.93139648 C338.59185303 248.24925231 332.04518036 242.71287033 325.22363281 237.4362793 C321.33557718 234.42191364 317.53312001 231.32208876 313.75805664 228.16748047 C304.82342427 220.70652768 295.59315936 213.75316269 286.17016602 206.92358398 C283.94951691 205.30016191 281.75086178 203.65178406 279.55883789 201.98999023 C249.9699737 179.64731001 218.31775666 159.99928559 185.82446289 142.20874023 C185.00300781 141.75402344 184.18155273 141.29930664 183.33520508 140.83081055 C146.93484022 120.72173425 106.88124914 105.21910423 65.82446289 98.20874023 C64.61274414 97.9831543 63.40102539 97.75756836 62.15258789 97.52514648 C23.99772356 91.48534809 -17.34268858 97.28434118 -47.17553711 123.20874023 Z M764.82446289 149.20874023 C763.81496582 149.78156738 762.80546875 150.35439453 761.76538086 150.94458008 C742.18031234 162.13216128 723.44565129 174.49758513 704.82446289 187.20874023 C703.90890625 187.83296875 702.99334961 188.45719727 702.05004883 189.1003418 C690.79331215 196.81458577 679.967773 205.09211462 669.15698242 213.4152832 C667.16400716 214.94766715 665.16625841 216.4732759 663.16430664 217.99389648 C655.1886137 224.07202679 647.40315069 230.36848239 639.64477539 236.72045898 C638.05184425 238.02283402 636.45416769 239.31940055 634.85571289 240.61499023 C628.62095101 245.67614988 622.50784445 250.86825042 616.42602539 256.11108398 C614.07663313 258.13618142 611.71771149 260.14898753 609.34790039 262.15014648 C602.43948785 267.99730056 595.72213337 274.00289647 589.14892578 280.22583008 C586.11971459 283.09019484 583.05894447 285.89747186 579.91040039 288.63061523 C575.61437651 292.36437302 571.46207242 296.2384979 567.32446289 300.14624023 C566.61676758 300.81075195 565.90907227 301.47526367 565.17993164 302.15991211 C560.30427347 306.75479655 555.53668857 311.44657003 550.82446289 316.20874023 C554.84714463 320.9764635 558.99314982 325.59841978 563.26196289 330.14624023 C567.30026639 334.4712064 571.29648894 338.81606602 575.16040039 343.29858398 C577.13986415 345.57078534 579.17029459 347.79333896 581.19946289 350.02124023 C584.32869116 353.48404106 587.32946638 357.01553027 590.26196289 360.64624023 C593.33782877 364.44961526 596.51199455 368.10956675 599.82446289 371.70874023 C603.86079344 376.09902593 607.66476818 380.62049643 611.41040039 385.25952148 C614.16308723 388.62243179 616.98646256 391.91787225 619.82446289 395.20874023 C624.92332659 401.13095354 629.90444333 407.13671609 634.82446289 413.20874023 C635.84361341 414.45774891 636.86317191 415.70642476 637.88305664 416.95483398 C644.50791446 425.07238129 651.04610957 433.25055156 657.49487305 441.50854492 C659.25532461 443.75969892 661.02357616 446.00466422 662.79174805 448.24975586 C665.13996183 451.23296757 667.48238842 454.22070774 669.82446289 457.20874023 C670.35410645 457.88388672 670.88375 458.5590332 671.42944336 459.25463867 C684.9762258 476.53914649 698.08117282 494.14364343 711.08178711 511.84106445 C712.84687899 514.23919573 714.61799754 516.63276201 716.39086914 519.02514648 C722.73513495 527.59402498 729.00375816 536.20369695 735.09448242 544.95532227 C738.28761176 550.17035966 738.28761176 550.17035966 743.41992188 552.69189453 C744.54213135 552.8044458 745.66434082 552.91699707 746.82055664 553.03295898 C748.13241943 553.17056641 749.44428223 553.30817383 750.79589844 553.44995117 C751.51659515 553.52177612 752.23729187 553.59360107 752.97982788 553.66760254 C757.05007392 554.0753837 761.11660441 554.51819768 765.18383789 554.95483398 C766.54142464 555.09944565 766.54142464 555.09944565 767.92643738 555.24697876 C854.82632667 564.53738146 941.74362742 576.77469681 1026.99780273 596.27954102 C1028.1329834 596.53848145 1029.26816406 596.79742188 1030.43774414 597.06420898 C1031.39463135 597.2874585 1032.35151855 597.51070801 1033.33740234 597.74072266 C1036.05784448 598.33203026 1036.05784448 598.33203026 1039.82446289 598.20874023 C1058.33118988 528.23819618 1070.98126858 456.45838311 1075.82446289 384.20874023 C1075.87285309 383.50911163 1075.92124329 382.80948303 1075.97109985 382.08865356 C1076.89444221 368.38482863 1077.01067566 354.69191219 1077.00976562 340.96044922 C1077.01194096 337.30806615 1077.03014063 333.65599171 1077.04907227 330.00366211 C1077.1017055 308.18278572 1075.96544844 286.41202382 1073.07446289 264.77124023 C1072.90527344 263.49740479 1072.73608398 262.22356934 1072.56176758 260.91113281 C1065.42400665 209.49833527 1049.34859373 153.39054491 1007.12915039 119.61499023 C935.30032181 66.08342587 832.79815392 110.55970589 764.82446289 149.20874023 Z M479.34399414 389.45874023 C475.69275231 393.20188975 472.17827845 397.02402486 468.76586914 400.98608398 C466.53642228 403.53850906 464.24444907 406.02761537 461.94946289 408.52124023 C458.64109375 412.14397929 455.46433932 415.82566915 452.38696289 419.64624023 C449.16501214 423.64100457 445.81768307 427.45405691 442.32446289 431.20874023 C438.11544868 435.73728883 434.15003546 440.40850016 430.27368164 445.22436523 C427.33799218 448.80150518 424.30574965 452.28611091 421.26196289 455.77124023 C417.07288855 460.57658324 412.97991673 465.42560055 409.03540039 470.43530273 C406.0747985 474.14913197 403.04037488 477.80015014 400.01196289 481.45874023 C394.27841847 488.3985846 388.66733484 495.42157478 383.13793945 502.5246582 C381.38481113 504.77244243 379.62087541 507.01162296 377.85668945 509.25073242 C376.02502554 511.57722494 374.19895676 513.9080894 372.37231445 516.23852539 C370.63939051 518.44431344 368.89959633 520.64461347 367.16040039 522.84545898 C365.90237499 524.44555203 364.64456015 526.04581066 363.38696289 527.64624023 C362.7955249 528.39164063 362.20408691 529.13704102 361.59472656 529.9050293 C358.24939939 534.17500701 355.38878718 538.42662197 352.82446289 543.20874023 C361.15167975 543.26157684 369.44264544 543.11681776 377.76196289 542.77124023 C448.09454718 540.16685489 518.75181728 539.98250216 589.07836914 542.90380859 C596.3304149 543.20021211 603.56668247 543.25479121 610.82446289 543.20874023 C608.0850586 538.14245372 605.0505742 533.76558656 601.38696289 529.33374023 C596.96994647 523.90821034 592.66797405 518.41486783 588.44946289 512.83374023 C582.28583627 504.70591165 575.8240999 496.84690433 569.30639648 489.00219727 C567.45246849 486.75854735 565.63366319 484.48856406 563.82446289 482.20874023 C555.43344699 471.6661818 546.82381874 461.30053966 538.01733398 451.10302734 C535.01694706 447.62271951 532.08699522 444.09652107 529.19946289 440.52124023 C525.39187079 435.82704276 521.36380376 431.37989011 517.26977539 426.93530273 C514.98036909 424.38257813 512.83208417 421.76776169 510.69946289 419.08374023 C505.98916083 413.23791892 500.85448845 407.82516659 495.67163086 402.39770508 C491.72740326 398.26283171 487.93004943 394.06002896 484.27416992 389.66650391 C483.7957666 389.18544189 483.31736328 388.70437988 482.82446289 388.20874023 C480.75622118 387.9936974 480.75622118 387.9936974 479.34399414 389.45874023 Z M360.82446289 641.20874023 C358.38827509 641.32792499 355.95207681 641.4468959 353.51586914 641.56567383 C338.91198153 642.28340863 338.91198153 642.28340863 324.31616211 643.14648438 C322.11842667 643.28731647 319.92067323 643.42786807 317.72290039 643.56811523 C316.6763327 643.6350206 315.62976501 643.70192596 314.55148315 643.77085876 C308.58856341 644.12600925 302.70725686 644.23226397 296.73852539 644.03686523 C285.29435733 643.49998654 285.29435733 643.49998654 275.33081055 648.28979492 C270.38105957 653.7358513 266.78465107 659.81875503 263.36450195 666.30493164 C261.65727262 669.52398454 259.76916059 672.56954012 257.79467773 675.62866211 C256.57697644 677.51734167 255.40101607 679.42712191 254.23071289 681.34545898 C251.61999179 685.58137565 248.85243785 689.70629541 246.07446289 693.83374023 C239.13263529 704.17099052 232.46203704 714.67426771 225.82446289 725.20874023 C224.92920898 726.62799805 224.92920898 726.62799805 224.01586914 728.07592773 C198.16031224 769.11119869 173.54301424 810.90444795 149.82446289 853.20874023 C149.23697266 854.25610352 148.64948242 855.3034668 148.04418945 856.38256836 C134.65022165 880.29375596 121.71155599 904.43119697 109.14477539 928.78686523 C107.07104586 932.80523912 104.98527244 936.81662575 102.87915039 940.81811523 C97.12150038 951.75921537 91.47523925 962.75523773 85.91445923 973.7975769 C85.15475816 975.30456714 84.39306445 976.81055474 83.62924194 978.31546021 C81.29558107 982.91747008 79.04276894 987.55007061 76.82446289 992.20874023 C76.37433838 993.04880615 75.92421387 993.88887207 75.46044922 994.75439453 C73.81160001 998.30890415 73.55583082 1000.28476485 74.66259766 1004.09155273 C76.15034529 1007.58551757 77.85141909 1010.92444065 79.63696289 1014.27124023 C80.28338197 1015.5352417 80.92687834 1016.80074159 81.56762695 1018.06762695 C82.92656279 1020.74470177 84.30139708 1023.4127156 85.68823242 1026.07543945 C87.83572348 1030.21075361 89.91358692 1034.37852536 91.97680664 1038.55639648 C98.57965087 1051.91234785 105.28730109 1065.20698105 112.30541992 1078.3503418 C114.20765648 1081.92979946 116.09184298 1085.51860291 117.97680664 1089.10717773 C125.71953433 1103.83239267 133.55954605 1118.47270605 141.82055664 1132.91577148 C144.88412416 1138.28171641 147.82654261 1143.70945325 150.76196289 1149.14624023 C156.03959122 1158.89223154 161.58351954 1168.46709173 167.19946289 1178.02124023 C170.26335387 1183.23581063 173.27888467 1188.4767009 176.28393555 1193.7253418 C184.53788294 1208.12788188 193.09104491 1222.33157808 201.76660156 1236.4822998 C202.81508594 1238.19343695 203.8617749 1239.9056738 204.90844727 1241.61791992 C213.47777638 1255.63564965 222.16389035 1269.57088208 231.02954102 1283.40307617 C232.89980002 1286.32650062 234.76123608 1289.25540634 236.62133789 1292.18530273 C243.68165596 1303.28924953 250.83785364 1314.32316042 258.13696289 1325.27124023 C258.84111328 1326.32786865 259.54526367 1327.38449707 260.27075195 1328.47314453 C261.68743309 1330.59077057 263.13178458 1332.69011593 264.6015625 1334.77124023 C266.29538402 1337.24734365 267.55791469 1339.73823674 268.78369141 1342.47436523 C271.08519668 1347.18609877 273.42799494 1351.19748189 277.82446289 1354.20874023 C286.49138295 1357.17783852 295.96406311 1356.90707026 305.03396225 1357.04241562 C308.58263045 1357.11214805 312.12732642 1357.27070916 315.67333984 1357.42089844 C321.38083631 1357.65282556 327.08777938 1357.83757349 332.7980957 1357.98364258 C339.85158768 1358.1659105 346.89512813 1358.46147908 353.94165039 1358.82202148 C363.85183372 1359.31902895 373.76049322 1359.76719894 383.6776123 1360.10159302 C385.89654641 1360.17714558 388.11537052 1360.25596336 390.33410645 1360.33712769 C420.28304955 1361.41461948 450.2343425 1361.4099311 480.19946289 1361.39624023 C481.50833088 1361.39597336 482.81719887 1361.39570648 484.16572952 1361.39543152 C523.75443783 1361.38530354 563.27901935 1361.23723612 602.82446289 1359.20874023 C603.54105827 1359.17218071 604.25765366 1359.13562119 604.99596405 1359.0979538 C623.10160021 1358.17325557 641.20346217 1357.18235261 659.30102539 1356.11108398 C660.5948967 1356.03508469 661.88876801 1355.95908539 663.22184753 1355.88078308 C665.63170182 1355.73575552 668.04083774 1355.57804075 670.44888306 1355.40556335 C672.67755427 1355.27561412 674.91175966 1355.21804102 677.14413452 1355.23713684 C682.90963828 1355.21141998 682.90963828 1355.21141998 687.8699646 1352.60475159 C689.7658784 1350.33009965 691.30601303 1348.00609212 692.84790039 1345.47827148 C693.43700699 1344.5844577 694.02611359 1343.69064392 694.6330719 1342.76974487 C696.52706784 1339.87657147 698.3628533 1336.95110611 700.19946289 1334.02124023 C701.49099874 1332.02460828 702.78601208 1330.03022152 704.08447266 1328.03808594 C707.18166051 1323.26799776 710.23553722 1318.47224312 713.27142334 1313.66296387 C715.26946836 1310.50551091 717.29629254 1307.3678275 719.32836914 1304.23217773 C722.02693519 1300.05241092 724.68094086 1295.84741703 727.31176758 1291.62475586 C729.54797616 1288.05317417 731.82141162 1284.50564118 734.09155273 1280.95556641 C762.04748227 1237.21217762 788.43872591 1192.48661666 813.82446289 1147.20874023 C814.41195312 1146.16137695 814.99944336 1145.11401367 815.60473633 1144.03491211 C828.99728283 1120.12626184 841.93448504 1095.99134774 854.50024414 1071.63842773 C856.58733224 1067.59420571 858.68639481 1063.5568882 860.80493164 1059.52905273 C866.76713188 1048.1909503 872.58783825 1036.78725081 878.32446289 1025.33374023 C878.67007263 1024.64510895 879.01568237 1023.95647766 879.37176514 1023.24697876 C880.98821598 1020.02367756 882.59575635 1016.79667262 884.17993164 1013.55737305 C885.1807768 1011.51942883 886.19962131 1009.49002921 887.25024414 1007.47729492 C889.45493845 1003.10418097 889.45493845 1003.10418097 889.39086914 998.31811523 C888.87395508 997.29202148 888.35704102 996.26592773 887.82446289 995.20874023 C887.48398926 994.46430664 887.14351562 993.71987305 886.79272461 992.95288086 C885.48840522 990.10145364 884.12974397 987.28026692 882.76196289 984.45874023 C881.9848999 982.84878174 881.9848999 982.84878174 881.19213867 981.20629883 C871.21734996 960.6262148 861.07032606 940.10621033 850.2800293 919.94018555 C848.8294561 917.21811025 847.38931637 914.49065518 845.95158386 911.76177979 C838.61716384 897.84144322 831.23059477 883.96873707 823.42456055 870.30517578 C819.82621789 864.00498091 816.33419335 857.6552109 812.88696289 851.27124023 C807.60927791 841.52527776 802.06540769 831.95039121 796.44946289 822.39624023 C793.38557191 817.18166984 790.37004111 811.94077957 787.36499023 806.69213867 C779.11104284 792.28959859 770.55788087 778.08590239 761.88232422 763.93518066 C760.83383984 762.22404352 759.78715088 760.51180667 758.74047852 758.79956055 C750.14408612 744.73756064 741.42150874 730.76485973 732.53344727 716.88549805 C730.8148719 714.193718 729.10715037 711.49534998 727.40258789 708.79467773 C721.33722366 699.19397927 715.1845702 689.65900719 708.88696289 680.20874023 C708.30382324 679.33362793 707.72068359 678.45851563 707.11987305 677.55688477 C705.84755397 675.65607482 704.54702763 673.7739763 703.22558594 671.90698242 C701.20474627 668.94977095 699.60525751 665.86446723 697.97998047 662.67456055 C692.31300294 651.9790964 692.31300294 651.9790964 682.88314819 644.91259766 C674.51179752 642.78687382 665.96947951 642.947484 657.38696289 642.95874023 C654.65973436 642.89596714 651.93397946 642.80016274 649.20776367 642.70361328 C643.70156249 642.5217931 638.19794912 642.40447943 632.68920898 642.3371582 C625.57589305 642.24620929 618.47988226 641.97626739 611.37524414 641.61889648 C609.2866225 641.51567793 607.19799948 641.41248718 605.109375 641.30932617 C604.11485321 641.25997925 603.12033142 641.21063232 602.09567261 641.15979004 C594.73597406 640.80771443 587.37279159 640.55624032 580.00872803 640.31588745 C577.79996493 640.24156487 575.59135055 640.16273935 573.38287354 640.08035278 C543.41244409 638.96613568 513.4369421 639.00932854 483.44946289 639.02124023 C482.10349147 639.02140817 480.75752004 639.02152874 479.41154861 639.02160263 C439.84679025 639.02491237 400.34741477 639.21359122 360.82446289 641.20874023 Z M812.82446289 659.20874023 C816.12353314 665.26692207 819.60415849 671.15032533 823.32446289 676.95874023 C824.39421478 678.64186295 825.4631989 680.32547384 826.53149414 682.00952148 C827.35061279 683.30043701 827.35061279 683.30043701 828.1862793 684.61743164 C833.13164592 692.44010248 837.98173092 700.3222649 842.82446289 708.20874023 C843.4810791 709.27801758 844.13769531 710.34729492 844.81420898 711.44897461 C853.91953394 726.30244919 862.81387616 741.25342977 871.47290039 756.37280273 C874.23630369 761.19752202 877.04725943 765.9911805 879.88696289 770.77124023 C885.8459431 780.83351486 891.50847414 791.06420581 897.19506836 801.28198242 C898.62203459 803.84513363 900.05241367 806.40632703 901.48461914 808.96655273 C907.25327604 819.29348903 912.89225647 829.68896209 918.51586914 840.09545898 C921.70610682 845.99660137 924.91944664 851.88493939 928.13696289 857.77124023 C932.75413165 866.22170121 937.31770123 874.6989138 941.82446289 883.20874023 C944.94630107 881.64782115 945.50937514 878.56158354 946.73852539 875.45874023 C947.02484329 874.75132187 947.31116119 874.0439035 947.6061554 873.31504822 C948.56115846 870.94911862 949.50563331 868.57914743 950.44946289 866.20874023 C951.12178627 864.53227538 951.79439897 862.85592654 952.46728516 861.1796875 C954.24335029 856.74670489 956.00820843 852.30935115 957.76873779 847.87017822 C958.79036379 845.29470261 959.81431232 842.72016076 960.83862305 840.14575195 C974.83096013 804.93483529 987.78727116 769.38311217 1000.01196289 733.52124023 C1000.37031219 732.47219513 1000.7286615 731.42315002 1001.09786987 730.34231567 C1005.29253208 718.04066326 1009.29046588 705.71729895 1012.82446289 693.20874023 C960.52480224 682.0277326 908.07562694 672.23027923 855.13696289 664.58374023 C854.38345425 664.47481194 853.6299456 664.36588364 852.85360336 664.25365448 C848.51124069 663.62684217 844.16814785 663.00545597 839.82395554 662.39144897 C837.88513098 662.11740913 835.94654317 661.84169596 834.00796509 661.56591797 C826.9580418 660.58208212 819.92071565 659.77217819 812.82446289 659.20874023 Z M143.29882812 659.6550293 C142.36822571 659.78022949 141.43762329 659.90542969 140.4788208 660.03442383 C139.45721863 660.17960449 138.43561646 660.32478516 137.38305664 660.47436523 C136.30272156 660.62309082 135.22238647 660.77181641 134.10931396 660.92504883 C130.49218054 661.42712521 126.87698629 661.94169965 123.26196289 662.45874023 C122.00630524 662.63691284 120.75064758 662.81508545 119.4569397 662.99865723 C71.6739848 669.80156509 24.18027471 677.987344 -23.10131836 687.67749023 C-24.13695923 687.88956116 -25.1726001 688.10163208 -26.23962402 688.32012939 C-33.57783585 689.83940472 -40.87970903 691.49804067 -48.17553711 693.20874023 C-47.60031749 699.67103191 -46.03008073 705.36059486 -43.95678711 711.49389648 C-43.62744171 712.48615738 -43.29809631 713.47841827 -42.95877075 714.50074768 C-41.87313007 717.76058752 -40.77526524 721.01612789 -39.67553711 724.27124023 C-39.10715118 725.96334625 -39.10715118 725.96334625 -38.52728271 727.68963623 C-20.98085238 779.90300291 -1.49369591 831.41871632 19.82446289 882.20874023 C20.81446289 882.20874023 21.80446289 882.20874023 22.82446289 882.20874023 C23.06455078 881.71809082 23.30463867 881.22744141 23.55200195 880.72192383 C29.3026437 869.00695234 35.32716464 857.47994265 41.62133789 846.04858398 C44.46752912 840.87729787 47.25958856 835.67830145 50.04370117 830.47338867 C56.24387251 818.88908171 62.61753762 807.42657132 69.18920898 796.04956055 C70.97980072 792.93888193 72.75677258 789.82068705 74.53149414 786.70092773 C96.74154912 747.66925177 119.71401129 709.10062437 143.82446289 671.20874023 C144.58883632 670.00564732 145.35316275 668.80252455 146.11743164 667.59936523 C147.68450858 665.13458154 149.25315361 662.67082695 150.82446289 660.20874023 C147.71841494 659.17339092 146.45958447 659.2195744 143.29882812 659.6550293 Z M1108.82446289 718.20874023 C1106.01344399 724.98654703 1103.56572386 731.80998416 1101.34790039 738.80249023 C1100.68042092 740.88012145 1100.01242916 742.95758813 1099.34399414 745.03491211 C1098.99546387 746.1208667 1098.64693359 747.20682129 1098.2878418 748.32568359 C1084.61290235 790.83210708 1069.2467115 832.69171671 1052.82446289 874.20874023 C1052.51353699 874.99583374 1052.20261108 875.78292725 1051.88226318 876.59387207 C1037.61729697 912.67232934 1022.33942241 948.37512845 1006.32055664 983.70874023 C1005.89758301 984.64975586 1005.47460938 985.59077148 1005.03881836 986.56030273 C1004.24244528 988.29714536 1003.41925302 990.0219925 1002.56713867 991.73217773 C1002.000354 992.89620117 1002.000354 992.89620117 1001.42211914 994.08374023 C1001.08833252 994.74116211 1000.7545459 995.39858398 1000.41064453 996.07592773 C998.85152723 1001.74875103 1001.91063454 1007.10001359 1004.26196289 1012.13842773 C1004.61382156 1012.9087735 1004.96568024 1013.67911926 1005.32820129 1014.47280884 C1006.08951036 1016.13923959 1006.85371961 1017.80434782 1007.62051392 1019.46826172 C1009.6901851 1023.96444938 1011.73239432 1028.47304773 1013.77368164 1032.98217773 C1014.40556648 1034.37729584 1014.40556648 1034.37729584 1015.05021667 1035.80059814 C1027.01163176 1062.28982822 1038.0804169 1089.20497185 1048.82446289 1116.20874023 C1049.12034302 1116.9515625 1049.41622314 1117.69438477 1049.72106934 1118.4597168 C1065.40161428 1157.85669783 1080.04064908 1197.60840963 1093.63696289 1237.77124023 C1093.8516069 1238.40499321 1094.06625092 1239.03874619 1094.28739929 1239.6917038 C1095.72799195 1243.94698894 1097.16271984 1248.20421881 1098.59399414 1252.46264648 C1098.97300873 1253.58866272 1099.35202332 1254.71467896 1099.74252319 1255.87481689 C1101.36048741 1260.71028519 1102.94855653 1265.54655527 1104.40014648 1270.43481445 C1104.62731857 1271.19632309 1104.85449066 1271.95783173 1105.08854675 1272.74241638 C1105.65887171 1274.68308663 1106.21074984 1276.62915335 1106.76074219 1278.57568359 C1107.11177002 1279.44459229 1107.46279785 1280.31350098 1107.82446289 1281.20874023 C1111.85466413 1282.55214065 1114.65738234 1281.31257293 1118.56665039 1280.10327148 C1119.3488092 1279.86854126 1120.13096802 1279.63381104 1120.93682861 1279.39196777 C1123.52735488 1278.61120903 1126.11350122 1277.8169775 1128.69946289 1277.02124023 C1130.52085635 1276.46595434 1132.34230901 1275.91086262 1134.16381836 1275.35595703 C1138.83496736 1273.9282726 1143.50130496 1272.48554131 1148.16552734 1271.03540039 C1150.64169043 1270.26556399 1153.11877028 1269.49874357 1155.59594727 1268.73217773 C1202.80693816 1254.07548529 1249.13792693 1236.36516567 1293.82446289 1215.20874023 C1294.82413086 1214.73903809 1295.82379883 1214.26933594 1296.85375977 1213.78540039 C1361.61054815 1183.3277584 1433.02810618 1143.53679996 1475.82446289 1084.20874023 C1476.66381815 1083.09670937 1477.50499436 1081.98605083 1478.34790039 1080.87670898 C1498.63559768 1053.8173704 1511.64753683 1020.44924514 1507.00439453 986.26074219 C1501.45765749 949.62279342 1481.34200876 919.25968988 1455.82446289 893.20874023 C1454.68702637 892.04060791 1454.68702637 892.04060791 1453.52661133 890.84887695 C1444.66996657 881.77678105 1435.88236518 872.94781779 1425.82446289 865.20874023 C1424.68901381 864.28750125 1423.55639393 863.36276856 1422.42602539 862.43530273 C1413.20442578 854.89336915 1403.64265409 847.95047027 1393.82446289 841.20874023 C1393.22762695 840.79446777 1392.63079102 840.38019531 1392.01586914 839.95336914 C1374.0755948 827.52027086 1355.05385906 816.51582577 1335.82446289 806.20874023 C1334.98866699 805.75998535 1334.15287109 805.31123047 1333.29174805 804.84887695 C1225.66616019 745.62480698 1225.66616019 745.62480698 1108.82446289 718.20874023 Z M-154.91772461 720.31420898 C-156.09150665 720.66650826 -156.09150665 720.66650826 -157.28900146 721.02592468 C-159.8791338 721.80663011 -162.46491045 722.60074912 -165.05053711 723.39624023 C-166.8660624 723.94935785 -168.68165578 724.50225201 -170.49731445 725.05493164 C-176.06238226 726.75476145 -181.61998589 728.47809282 -187.17553711 730.20874023 C-188.00093994 730.46540466 -188.82634277 730.72206909 -189.67675781 730.98651123 C-272.39683398 756.74657158 -355.20832917 790.43285311 -477.96850586 879.22436523 C-479.89723464 880.95851429 -481.86266881 882.62126904 -483.86303711 884.27124023 C-487.04190568 886.96733671 -489.68329191 889.98701197 -492.37475586 893.16186523 C-494.13920704 895.16744532 -495.99267378 896.99141836 -497.92553711 898.83374023 C-512.7470254 913.54121707 -524.65499363 932.23380979 -533.17553711 951.20874023 C-533.45623047 951.82281738 -533.73692383 952.43689453 -534.02612305 953.06958008 C-546.51688283 980.7655227 -547.3482952 1011.66627516 -536.95288086 1040.16235352 C-527.35839171 1065.42020781 -512.00031942 1086.95567443 -493.17553711 1106.20874023 C-492.41756836 1106.98717285 -491.65959961 1107.76560547 -490.87866211 1108.56762695 C-481.69675707 1117.96517844 -472.6153387 1127.20743244 -462.17553711 1135.20874023 C-461.04122872 1136.12847727 -459.90993057 1137.05193421 -458.78100586 1137.97827148 C-388.77335896 1195.26064284 -301.24332615 1232.24035622 -198.25219727 1266.53234863 C-196.23889508 1267.18810383 -194.22657596 1267.84678117 -192.21459961 1268.5065918 C-180.22705428 1272.43343976 -168.21810677 1276.2831443 -156.11303711 1279.83374023 C-155.24364502 1280.09396973 -154.37425293 1280.35419922 -153.47851562 1280.62231445 C-152.29020142 1280.96286865 -152.29020142 1280.96286865 -151.07788086 1281.31030273 C-150.39201904 1281.50962402 -149.70615723 1281.70894531 -148.99951172 1281.91430664 C-146.94735532 1282.39010732 -146.94735532 1282.39010732 -144.17553711 1281.20874023 C-143.08169359 1279.03347389 -143.08169359 1279.03347389 -142.28466797 1276.2890625 C-141.94186798 1275.22732819 -141.59906799 1274.16559387 -141.24588013 1273.07168579 C-140.69865799 1271.31614883 -140.69865799 1271.31614883 -140.14038086 1269.52514648 C-139.54135572 1267.65934188 -138.94231311 1265.79354278 -138.34256363 1263.92797089 C-137.70154349 1261.92761599 -137.06603828 1259.92557782 -136.43179321 1257.92306519 C-134.20686338 1250.90545912 -131.92913689 1243.90488832 -129.65209961 1236.90405273 C-129.42179613 1236.195035 -129.19149265 1235.48601727 -128.95421028 1234.75551414 C-117.03760466 1198.10061474 -103.34991615 1162.04293336 -89.17553711 1126.20874023 C-88.86461121 1125.42164673 -88.5536853 1124.63455322 -88.2333374 1123.8236084 C-73.96837119 1087.74515113 -58.69049663 1052.04235202 -42.67163086 1016.70874023 C-42.24865723 1015.76772461 -41.82568359 1014.82670898 -41.38989258 1013.85717773 C-40.59351949 1012.12033511 -39.77032724 1010.39548796 -38.91821289 1008.68530273 C-38.54035645 1007.90928711 -38.1625 1007.13327148 -37.77319336 1006.33374023 C-37.43940674 1005.67631836 -37.10562012 1005.01889648 -36.76171875 1004.34155273 C-35.24813539 998.83440394 -38.07522186 993.70705436 -40.35913086 988.78686523 C-40.68551544 988.06773956 -41.01190002 987.34861389 -41.34817505 986.60769653 C-42.0572862 985.04592484 -42.76931206 983.48547399 -43.48391724 981.9262085 C-45.44962547 977.63054175 -47.38533763 973.3213626 -49.32397461 969.01342773 C-49.72844315 968.11568634 -50.13291168 967.21794495 -50.54963684 966.29299927 C-72.33103719 917.88392574 -92.13184143 868.44527191 -110.31201172 818.574646 C-111.19237738 816.1626009 -112.07714099 813.75220348 -112.96264648 811.34204102 C-119.28368191 794.11360823 -125.37087611 776.82810492 -131.01538086 759.36499023 C-131.2200831 758.73285677 -131.42478535 758.1007233 -131.63569069 757.44943428 C-133.87117371 750.54611461 -136.08789224 743.63726963 -138.27441406 736.71826172 C-139.00682428 734.43245383 -139.73947818 732.146724 -140.47241211 729.86108398 C-140.80301132 728.79656006 -141.13361053 727.73203613 -141.47422791 726.63525391 C-141.78654861 725.66813477 -142.09886932 724.70101562 -142.4206543 723.70458984 C-142.82244904 722.43233803 -142.82244904 722.43233803 -143.23236084 721.13438416 C-143.54360901 720.49892166 -143.85485718 719.86345917 -144.17553711 719.20874023 C-148.20573277 717.86534168 -151.00846525 719.10489629 -154.91772461 720.31420898 Z M20.82446289 1117.20874023 C15.93445758 1127.44329238 11.63620886 1137.85973027 7.44946289 1148.39624023 C7.10575653 1149.25910645 6.76205017 1150.12197266 6.40792847 1151.01098633 C-10.68669168 1193.95427712 -26.5505154 1237.307657 -41.30047607 1281.11279297 C-41.92011408 1282.9523849 -42.54186266 1284.79126741 -43.16583252 1286.62939453 C-44.02211273 1289.1571547 -44.86806845 1291.68811922 -45.71069336 1294.22045898 C-45.96290146 1294.96083908 -46.21510956 1295.70121918 -46.47496033 1296.46403503 C-47.6871496 1300.14967889 -48.47501804 1303.3192851 -48.17553711 1307.20874023 C11.81549346 1320.35649491 72.23069397 1331.02611517 133.07446289 1339.39624023 C133.83940063 1339.50319214 134.60433838 1339.61014404 135.39245605 1339.72033691 C137.47818209 1340.00970543 139.56493026 1340.28916936 141.65258789 1340.56420898 C142.78599609 1340.715271 143.9194043 1340.86633301 145.0871582 1341.02197266 C147.91647448 1341.38922148 147.91647448 1341.38922148 150.82446289 1340.20874023 C150.13223633 1339.11561523 149.44000977 1338.02249023 148.72680664 1336.89624023 C129.57645616 1306.63169851 110.74317869 1276.2209426 92.82446289 1245.20874023 C91.57585913 1243.05373776 90.32715904 1240.8987911 89.07836914 1238.74389648 C80.90128502 1224.61746286 72.81151304 1210.44348629 64.82446289 1196.20874023 C64.17018311 1195.0430249 64.17018311 1195.0430249 63.50268555 1193.85375977 C57.27152114 1182.73483599 51.19254039 1171.53523122 45.13305664 1160.32202148 C41.94281896 1154.4208791 38.72947914 1148.53254108 35.51196289 1142.64624023 C30.89479413 1134.19577926 26.33122455 1125.71856667 21.82446289 1117.20874023 C21.49446289 1117.20874023 21.16446289 1117.20874023 20.82446289 1117.20874023 Z M941.82446289 1117.20874023 C941.27661133 1118.25545898 940.72875977 1119.30217773 940.16430664 1120.38061523 C929.86442924 1140.02523799 919.51277772 1159.63840755 908.52612305 1178.90917969 C904.89809025 1185.27909744 901.37059606 1191.6963908 897.88696289 1198.14624023 C892.61140723 1207.88800368 887.06989045 1217.45887487 881.45727539 1227.00952148 C878.36036655 1232.28062429 875.30643293 1237.57532265 872.26342773 1242.87768555 C855.49739208 1272.0819121 837.9014864 1300.79896626 819.82446289 1329.20874023 C819.06008946 1330.41183314 818.29576304 1331.61495592 817.53149414 1332.81811523 C815.9644172 1335.28289893 814.39577217 1337.74665352 812.82446289 1340.20874023 C816.10388421 1341.30188067 817.64381449 1341.1356813 821.02441406 1340.6706543 C822.10147614 1340.52544342 823.17853821 1340.38023254 824.28823853 1340.23062134 C825.46937225 1340.06355682 826.65050598 1339.89649231 827.86743164 1339.72436523 C829.10915131 1339.55335297 830.35087097 1339.3823407 831.63021851 1339.20614624 C835.04325437 1338.73242691 838.45505285 1338.25134418 841.86626053 1337.7647171 C844.0186277 1337.45778983 846.17126595 1337.15282128 848.32394409 1336.8480835 C903.05361159 1329.08113088 958.07358951 1320.19287167 1011.82446289 1307.20874023 C1011.24924327 1300.74644856 1009.67900651 1295.05688561 1007.60571289 1288.92358398 C1007.11169479 1287.43519264 1007.11169479 1287.43519264 1006.60769653 1285.91673279 C1005.52205585 1282.65689295 1004.42419102 1279.40135258 1003.32446289 1276.14624023 C1002.94553894 1275.01816956 1002.56661499 1273.89009888 1002.1762085 1272.72784424 C986.24389507 1225.31764703 968.65196081 1178.51854275 949.76196289 1132.20874023 C949.32069565 1131.11920547 949.32069565 1131.11920547 948.87051392 1130.00765991 C948.05912002 1128.00907258 947.23855076 1126.01455602 946.41430664 1124.02124023 C945.95918701 1122.91393555 945.50406738 1121.80663086 945.03515625 1120.66577148 C944.0680629 1118.07860459 944.0680629 1118.07860459 941.82446289 1117.20874023 Z M-76.17553711 1402.20874023 C-92.89547546 1463.52450077 -104.40036795 1526.91533669 -110.17553711 1590.20874023 C-110.28671875 1591.40040802 -110.28671875 1591.40040802 -110.40014648 1592.6161499 C-118.16612803 1676.32654443 -121.01317534 1787.55761947 -66.05053711 1857.70874023 C-64.77189729 1859.21986002 -63.48034464 1860.72015699 -62.17553711 1862.20874023 C-61.50393555 1863.01182617 -60.83233398 1863.81491211 -60.14038086 1864.64233398 C-40.12732287 1887.92431252 -11.77706937 1901.81375539 18.82446289 1904.20874023 C67.86309339 1906.4307428 113.73685512 1892.7290322 157.82446289 1872.20874023 C159.48812305 1871.45134543 161.15216683 1870.69479253 162.81665039 1869.93920898 C195.80332336 1854.81013614 227.22986422 1835.39374802 256.89575195 1814.56079102 C258.87437079 1813.17375416 260.86065698 1811.7982293 262.84790039 1810.42358398 C273.63433901 1802.92617511 284.08443467 1795.01488133 294.49194336 1787.00219727 C296.48491862 1785.46981332 298.48266737 1783.94420457 300.48461914 1782.42358398 C308.46031208 1776.34545368 316.24577509 1770.04899807 324.00415039 1763.69702148 C325.59708154 1762.39464645 327.19475809 1761.09807991 328.79321289 1759.80249023 C335.02797477 1754.74133059 341.14108133 1749.54923005 347.22290039 1744.30639648 C349.57229266 1742.28129905 351.93121429 1740.26849293 354.30102539 1738.26733398 C361.20943793 1732.42017991 367.92679242 1726.414584 374.5 1720.19165039 C377.52921119 1717.32728563 380.58998132 1714.52000861 383.73852539 1711.78686523 C388.03454927 1708.05310745 392.18685336 1704.17898257 396.32446289 1700.27124023 C397.0321582 1699.60672852 397.73985352 1698.9422168 398.46899414 1698.25756836 C403.34465231 1693.66268392 408.11223721 1688.97091044 412.82446289 1684.20874023 C408.80178115 1679.44101697 404.65577596 1674.81906069 400.38696289 1670.27124023 C396.34865939 1665.94627406 392.35243685 1661.60141445 388.48852539 1657.11889648 C386.50906163 1654.84669513 384.47863119 1652.62414151 382.44946289 1650.39624023 C379.32023462 1646.93343941 376.3194594 1643.4019502 373.38696289 1639.77124023 C370.31109701 1635.96786521 367.13693123 1632.30791372 363.82446289 1628.70874023 C359.78491471 1624.31495475 355.9776667 1619.790352 352.23071289 1615.14624023 C349.52667519 1611.8452072 346.74335057 1608.6210881 343.94946289 1605.39624023 C339.43915232 1600.17746275 335.12607366 1594.83900362 330.89916992 1589.38916016 C327.80182043 1585.41042845 324.60430584 1581.53803392 321.32446289 1577.70874023 C316.09643909 1571.59623096 311.1216104 1565.30720299 306.1862793 1558.95727539 C304.41678682 1556.68529526 302.63506589 1554.42308429 300.8527832 1552.16113281 C298.50533881 1549.18066491 296.16491357 1546.19470108 293.82446289 1543.20874023 C293.29481934 1542.53359375 292.76517578 1541.85844727 292.21948242 1541.1628418 C278.67269998 1523.87833398 265.56775296 1506.27383704 252.56713867 1488.57641602 C250.80204679 1486.17828474 249.03092825 1483.78471846 247.25805664 1481.39233398 C240.91379083 1472.82345549 234.64516762 1464.21378352 228.55444336 1455.4621582 C225.39960852 1450.28889723 225.39960852 1450.28889723 220.34008789 1447.74145508 C219.26243164 1447.63526855 218.18477539 1447.52908203 217.07446289 1447.41967773 C215.79909668 1447.28730713 214.52373047 1447.15493652 213.2097168 1447.01855469 C212.50373352 1446.94883453 211.79775024 1446.87911438 211.07037354 1446.80728149 C207.01454804 1446.40359476 202.96275524 1445.9620868 198.91040039 1445.52514648 C197.52768448 1445.37685646 197.52768448 1445.37685646 196.11703491 1445.22557068 C108.02795349 1435.71762272 19.62035054 1423.62281812 -66.69799805 1403.36990356 C-69.98974118 1402.61308594 -72.77013253 1402.20874023 -76.17553711 1402.20874023 Z M1031.02661133 1403.15161133 C1030.06425568 1403.35996613 1029.10190002 1403.56832092 1028.11038208 1403.7829895 C1027.0621225 1404.01372162 1026.01386292 1404.24445374 1024.93383789 1404.48217773 C1022.64050099 1404.97785105 1020.34703794 1405.47294099 1018.0534668 1405.9675293 C1016.83701477 1406.2308606 1015.62056274 1406.49419189 1014.36724854 1406.76550293 C935.03820309 1423.87956906 854.7583512 1435.60288297 774.1048584 1444.32003784 C770.46825777 1444.71437336 766.83236677 1445.11477608 763.1965332 1445.51611328 C759.33342121 1445.94185724 755.47014736 1446.34326929 751.60083008 1446.70800781 C750.1545199 1446.85648393 748.70822867 1447.00514477 747.26196289 1447.15405273 C745.50432617 1447.3186499 745.50432617 1447.3186499 743.71118164 1447.48657227 C737.97675179 1448.92114969 735.74772188 1453.42204922 732.82446289 1458.20874023 C731.47643579 1460.16238757 730.09749498 1462.09196004 728.71655273 1464.02246094 C727.1602195 1466.2011772 725.62438939 1468.39337146 724.09008789 1470.58764648 C719.05481846 1477.74935829 713.81920019 1484.76407284 708.60668945 1491.79711914 C706.83589058 1494.19327685 705.07475118 1496.59622268 703.31665039 1499.00170898 C695.85073992 1509.20658019 688.1978515 1519.24241119 680.39819336 1529.1940918 C678.12665273 1532.10205848 675.88088091 1535.02944328 673.63696289 1537.95874023 C665.19473182 1548.94464027 656.58325621 1559.77919431 647.82836914 1570.51733398 C645.3933011 1573.50517082 642.97708876 1576.50721056 640.57446289 1579.52124023 C634.14219061 1587.57836627 627.5839405 1595.52181212 620.90673828 1603.37646484 C618.0463703 1606.74667039 615.23212304 1610.14873485 612.44946289 1613.58374023 C607.80476859 1619.28818653 602.98472549 1624.83142613 598.15258789 1630.37670898 C596.00224674 1632.84610481 593.8661637 1635.32638358 591.74633789 1637.82202148 C585.81432238 1644.80546358 579.74083096 1651.61661554 573.49633789 1658.32202148 C570.8322325 1661.20034587 568.246238 1664.13104035 565.68383789 1667.09936523 C562.70116649 1670.48306809 559.62877841 1673.78524247 556.5546875 1677.0859375 C554.42817766 1679.38465272 552.56667418 1681.5954233 550.82446289 1684.20874023 C553.48680489 1686.90055298 556.15512956 1689.5863617 558.82446289 1692.27124023 C559.56825195 1693.0234082 560.31204102 1693.77557617 561.07836914 1694.55053711 C565.20042909 1698.69051906 569.40000176 1702.65475378 573.82836914 1706.46435547 C578.16634908 1710.25531274 582.29468028 1714.27878299 586.46899414 1718.24780273 C591.15664857 1722.68693435 595.93135641 1726.99730457 600.82446289 1731.20874023 C601.66485107 1731.9323877 601.66485107 1731.9323877 602.5222168 1732.6706543 C604.14160641 1734.0609357 605.76376815 1735.44790399 607.38696289 1736.83374023 C611.13154497 1740.03240702 614.867665 1743.23917066 618.57055664 1746.48608398 C625.05707275 1752.16822816 631.60374542 1757.70461014 638.42529297 1762.98120117 C642.3133486 1765.99556683 646.11580577 1769.09539171 649.89086914 1772.25 C658.82550151 1779.71095279 668.05576642 1786.66431777 677.47875977 1793.49389648 C679.69940887 1795.11731856 681.89806401 1796.76569641 684.09008789 1798.42749023 C712.81252432 1820.11592709 743.50653594 1839.38381366 775.0402832 1856.67944336 C777.3992021 1857.97515258 779.74963399 1859.28451835 782.09790039 1860.59936523 C817.82905619 1880.34517559 857.57152258 1895.34937449 897.82446289 1902.20874023 C899.65944336 1902.54711914 899.65944336 1902.54711914 901.53149414 1902.89233398 C936.38979961 1908.36844915 974.95389443 1904.07483548 1004.07446289 1882.89624023 C1006.01180805 1881.35945427 1007.92858904 1879.79640509 1009.82446289 1878.20874023 C1010.80930664 1877.38760742 1011.79415039 1876.56647461 1012.80883789 1875.72045898 C1025.36554635 1864.90440517 1034.92507313 1851.6977957 1042.82446289 1837.20874023 C1043.16429199 1836.58950684 1043.50412109 1835.97027344 1043.85424805 1835.33227539 C1060.49035791 1804.61394915 1068.53076028 1770.03390692 1073.07446289 1735.64624023 C1073.22544434 1734.51532959 1073.37642578 1733.38441895 1073.53198242 1732.21923828 C1076.29303863 1709.81483913 1077.20795965 1687.3287584 1077.13696289 1664.77124023 C1077.13514008 1663.54983337 1077.13331726 1662.32842651 1077.13143921 1661.07000732 C1077.03654797 1622.86685601 1073.9363601 1585.05370125 1068.82446289 1547.20874023 C1068.70649353 1546.33485657 1068.58852417 1545.4609729 1068.46697998 1544.56060791 C1061.93213984 1496.60408218 1052.33090109 1448.96099579 1039.82446289 1402.20874023 C1036.55278478 1402.20874023 1034.1658321 1402.46339434 1031.02661133 1403.15161133 Z M352.82446289 1457.20874023 C355.56386718 1462.27502675 358.59835158 1466.65189391 362.26196289 1471.08374023 C366.67897932 1476.50927013 370.98095173 1482.00261263 375.19946289 1487.58374023 C381.36308952 1495.71156882 387.82482588 1503.57057614 394.3425293 1511.4152832 C396.19645729 1513.65893312 398.0152626 1515.92891641 399.82446289 1518.20874023 C408.21547879 1528.75129867 416.82510705 1539.11694081 425.6315918 1549.31445312 C428.63197873 1552.79476096 431.56193056 1556.32095939 434.44946289 1559.89624023 C438.25705499 1564.59043771 442.28512202 1569.03759036 446.37915039 1573.48217773 C448.66855669 1576.03490233 450.81684161 1578.64971878 452.94946289 1581.33374023 C457.65976495 1587.17956154 462.79443734 1592.59231388 467.97729492 1598.01977539 C472.38818798 1602.64387068 476.65615623 1607.36464544 480.82446289 1612.20874023 C483.72078163 1610.90857507 485.67640595 1609.57363601 487.81274414 1607.23217773 C488.35060547 1606.64791016 488.8884668 1606.06364258 489.44262695 1605.46166992 C490.00175781 1604.84195312 490.56088867 1604.22223633 491.13696289 1603.58374023 C491.71800781 1602.94855469 492.29905273 1602.31336914 492.89770508 1601.65893555 C496.36738904 1597.85491789 499.79867758 1594.01882615 503.16040039 1590.11889648 C505.13986415 1587.84669513 507.17029459 1585.62414151 509.19946289 1583.39624023 C512.32869116 1579.93343941 515.32946638 1576.4019502 518.26196289 1572.77124023 C521.33782877 1568.96786521 524.51199455 1565.30791372 527.82446289 1561.70874023 C531.88108376 1557.29583679 535.71119982 1552.75373261 539.47680664 1548.09155273 C542.052619 1544.92857516 544.68165932 1541.81569047 547.32446289 1538.70874023 C552.22932692 1532.93250081 557.04387197 1527.08840592 561.82446289 1521.20874023 C562.82150994 1519.99361021 563.81892895 1518.77878534 564.81665039 1517.56420898 C571.02954027 1509.98295348 577.0924283 1502.31043887 583.0144043 1494.49975586 C586.58549435 1489.79862856 590.23657694 1485.17343895 593.94946289 1480.58374023 C598.11561663 1475.42258083 602.14617879 1470.17840533 606.07446289 1464.83374023 C606.55286621 1464.18453613 607.03126953 1463.53533203 607.52416992 1462.86645508 C609.80228595 1460.2781569 609.80228595 1460.2781569 610.82446289 1457.20874023 C602.51795177 1457.15608274 594.2480151 1457.3002017 585.94946289 1457.64624023 C515.58706708 1460.26051401 444.87644676 1460.4474307 374.52026367 1457.51367188 C367.28497882 1457.2164379 360.06553121 1457.1628369 352.82446289 1457.20874023 Z " fill="#60DAFB" transform="translate(668.175537109375,-0.208740234375)"/>
<path d="M0 0 C6.92292476 6.20906069 12.75015017 13.08362941 18.52001953 20.36328125 C19.31408203 21.32878906 20.10814453 22.29429687 20.92626953 23.2890625 C53.23538165 63.52208661 66.86768237 116.96513106 61.69775391 167.88500977 C55.7959354 219.04067859 31.10723405 268.55984995 -9.52294922 301.01953125 C-10.49876953 301.79296875 -11.47458984 302.56640625 -12.47998047 303.36328125 C-13.44548828 304.15734375 -14.41099609 304.95140625 -15.40576172 305.76953125 C-55.36024531 337.85496153 -108.94699477 351.93976796 -159.59301758 346.54101562 C-212.95351349 340.07045537 -261.86751798 314.77100476 -295.47998047 272.36328125 C-296.27404297 271.39777344 -297.06810547 270.43226563 -297.88623047 269.4375 C-330.19534259 229.20447589 -343.8276433 175.76143144 -338.65771484 124.84155273 C-332.75589634 73.68588391 -308.06719498 24.16671255 -267.43701172 -8.29296875 C-266.46119141 -9.06640625 -265.48537109 -9.83984375 -264.47998047 -10.63671875 C-263.51447266 -11.43078125 -262.54896484 -12.22484375 -261.55419922 -13.04296875 C-187.29132615 -72.67973594 -78.46640551 -66.21950482 0 0 Z " fill="#60DAFB" transform="translate(1288.47998046875,853.63671875)"/>
</svg>
