<?xml version="1.0" encoding="UTF-8"?>
<svg version="1.1" xmlns="http://www.w3.org/2000/svg" width="600" height="600">
<path d="M0 0 C0.66 0 1.32 0 2 0 C35.15584407 96.60828236 35.15584407 96.60828236 46 145 C46.24298828 146.06927734 46.48597656 147.13855469 46.73632812 148.24023438 C49.78013968 161.81164487 51.88103393 175.47644747 53.75 189.25 C53.85718353 190.03814087 53.96436707 190.82628174 54.07479858 191.63830566 C54.38353341 193.93005306 54.68550053 196.2225724 54.984375 198.515625 C55.11683372 199.50985474 55.11683372 199.50985474 55.25196838 200.52416992 C56.61877263 211.25108335 57.16537209 221.98131041 57.23828125 232.7890625 C57.246353 233.97180756 57.25442474 235.15455261 57.26274109 236.37313843 C57.27647762 238.86560651 57.28724564 241.35809258 57.29516602 243.85058594 C57.30660716 246.34185501 57.32693151 248.83310114 57.35668945 251.32421875 C58.05582591 310.12979712 39.10665989 367.73095696 1 413 C0.57138672 413.51739746 0.14277344 414.03479492 -0.29882812 414.56787109 C-10.81835716 427.2564129 -21.96183097 438.86528878 -35 449 C-36.47339844 450.18142578 -36.47339844 450.18142578 -37.9765625 451.38671875 C-77.70240885 483.0035908 -129.62952322 503.93437939 -180.79296875 504.203125 C-181.69337387 504.21018463 -182.59377899 504.21724426 -183.52146912 504.22451782 C-220.98691069 504.45161655 -220.98691069 504.45161655 -238 501 C-239.01545898 500.80132324 -240.03091797 500.60264648 -241.07714844 500.39794922 C-290.9758035 490.41672289 -334.53871388 466.11419427 -371 431 C-371.7940625 430.2471875 -372.588125 429.494375 -373.40625 428.71875 C-378.75597303 423.53885945 -383.38660506 417.83594459 -388 412 C-388.7940625 411.01128906 -389.588125 410.02257812 -390.40625 409.00390625 C-414.9776499 377.86198961 -431.32468106 341.48759715 -439.25 302.6875 C-439.47671387 301.57942993 -439.47671387 301.57942993 -439.70800781 300.44897461 C-440.18439803 297.97158418 -440.60252786 295.49133778 -441 293 C-441.17805176 291.88423584 -441.35610352 290.76847168 -441.53955078 289.61889648 C-443.19998488 277.98027732 -443.3987437 266.43103747 -443.375 254.6875 C-443.37445618 253.6738739 -443.37391235 252.6602478 -443.37335205 251.61590576 C-443.33347417 235.41878779 -442.46747801 219.87491635 -439 204 C-438.78037598 202.97374512 -438.56075195 201.94749023 -438.33447266 200.89013672 C-427.82149525 152.98280374 -403.85138923 111.15003587 -370 76 C-369.2471875 75.2059375 -368.494375 74.411875 -367.71875 73.59375 C-362.53885945 68.24402697 -356.83594459 63.61339494 -351 59 C-350.01128906 58.2059375 -349.02257812 57.411875 -348.00390625 56.59375 C-315.66655102 31.07913264 -278.33332447 14.86607287 -238 7 C-237.17274414 6.83338867 -236.34548828 6.66677734 -235.49316406 6.49511719 C-207.99573891 1.21009675 -175.41351163 1.31145551 -148 7 C-147.00629395 7.20399414 -146.01258789 7.40798828 -144.98876953 7.61816406 C-105.05091626 16.06431004 -68.55109529 32.52897043 -36.6015625 58.0390625 C-34.41711701 59.68559649 -32.44672001 60.83158229 -30 62 C-26.8506036 55.58212386 -23.70349201 49.16313088 -20.55786133 42.7434082 C-19.49066127 40.56607567 -18.42296545 38.38898605 -17.35473633 36.2121582 C-11.45683749 24.1925995 -5.58465181 12.16897224 0 0 Z " fill="#8BC34A" transform="translate(493,46)"/>
<path d="M0 0 C0.66 0 1.32 0 2 0 C5.00108472 9.37605971 7.66803507 18.83754426 10.2956543 28.32373047 C11.64488637 33.18895926 12.99838673 38.04872251 14.46875 42.87890625 C22.23516822 68.5667923 28.23911261 95.34186157 31.61035156 121.96435547 C32.00715822 125.05576776 32.45290325 128.13793042 32.8984375 131.22265625 C36.90409298 160.93778373 37.46801131 192.80192345 31.546875 222.26757812 C31.02491814 224.87549827 30.56719321 227.4869236 30.125 230.109375 C24.09190498 264.09009713 5.12571879 299.89737369 -23.2421875 320.3359375 C-64.14641556 348.04184423 -113.8732933 350.37526427 -161.72281837 350.20278788 C-165.86269053 350.1900704 -170.00256738 350.18909381 -174.14245605 350.18673706 C-181.94028042 350.18058279 -189.73804702 350.16425627 -197.53584623 350.14403808 C-206.43102585 350.12148765 -215.3262086 350.11063811 -224.2214098 350.10064721 C-242.48097231 350.07988277 -260.74048147 350.044828 -279 350 C-278 348 -278 348 -275.69360352 347.02612305 C-274.68225342 346.69136963 -273.67090332 346.35661621 -272.62890625 346.01171875 C-271.50605225 345.63764893 -270.38319824 345.2635791 -269.22631836 344.87817383 C-268.0172583 344.48525146 -266.80819824 344.0923291 -265.5625 343.6875 C-264.33217041 343.28233154 -263.10184082 342.87716309 -261.83422852 342.4597168 C-254.37243613 340.02581277 -246.89116806 337.7656443 -239.30810547 335.74511719 C-233.33131874 334.1396616 -227.47760019 332.23794981 -221.62475586 330.22973633 C-217.34850233 328.76494512 -213.05368651 327.39097288 -208.73046875 326.0703125 C-169.31235477 314.00377584 -135.90676258 296.29777416 -105 269 C-104.47341797 268.53658203 -103.94683594 268.07316406 -103.40429688 267.59570312 C-61.94139623 230.86854083 -33.348145 182.61624729 -20 129 C-20.29390625 129.81597656 -20.5878125 130.63195312 -20.890625 131.47265625 C-27.20980206 148.16036808 -35.42042222 164.5928514 -46 179 C-46.71671875 179.98742187 -47.4334375 180.97484375 -48.171875 181.9921875 C-62.33276859 201.18263985 -78.50685446 219.99501694 -97.28515625 234.83984375 C-100.09069019 237.07216068 -102.78734436 239.40605484 -105.5 241.75 C-142.54010854 272.64077794 -187.48303707 290.2190127 -233.61572266 302.36523438 C-236.39854202 303.10610375 -239.1736713 303.87296689 -241.94921875 304.640625 C-260.92651646 309.86386611 -280.02744624 314.4346389 -299.3125 318.375 C-300.12444824 318.54281982 -300.93639648 318.71063965 -301.77294922 318.88354492 C-308.2598475 320.17188603 -312.37236234 320.85287259 -318.1875 317.125 C-334.39010216 306.26511322 -343.25685867 290.62960052 -348.75 272.3125 C-348.96092285 271.6117334 -349.1718457 270.9109668 -349.38916016 270.18896484 C-354.97709032 250.70226172 -353.95312229 226.28720386 -348 207 C-347.68651611 205.9780957 -347.68651611 205.9780957 -347.36669922 204.93554688 C-342.18306167 188.67406818 -333.97143205 174.02314201 -323 161 C-322.25878906 160.10667969 -321.51757812 159.21335937 -320.75390625 158.29296875 C-302.94997879 137.63279624 -278.07749907 124.71935559 -252 118 C-251.04867187 117.71640625 -250.09734375 117.4328125 -249.1171875 117.140625 C-229.91604969 111.65458562 -209.20550714 111.43474105 -189.375 110.4296875 C-187.274423 110.32231194 -185.17386258 110.2146369 -183.07333374 110.10632324 C-181.69369352 110.0355735 -180.31399304 109.96598899 -178.93423462 109.89758301 C-123.43648385 107.09484137 -74.43460388 84.66420688 -34 47 C-33.26136719 46.31550781 -32.52273438 45.63101563 -31.76171875 44.92578125 C-18.59232548 32.27100015 -7.60514107 16.58608656 0 0 Z " fill="#FEFEFE" transform="translate(490,113)"/>
<path d="M0 0 C5.14035612 3.04613696 9.45931703 7.2529511 11.375 13 C12.15752755 19.50395852 11.20158965 24.62873195 7.375 30 C3.94940556 33.60447666 0.72418674 35.79321733 -4.33203125 36.23828125 C-10.62164241 36.388599 -14.79059214 36.4806707 -19.625 32 C-24.82919344 26.55408173 -26.05897713 22.27706896 -25.9609375 14.85546875 C-25.32358257 9.43795185 -22.83617887 5.97083334 -18.828125 2.3984375 C-12.63568143 -2.03535209 -7.15232491 -1.97305515 0 0 Z " fill="#FDFEFC" transform="translate(188.625,451)"/>
<path d="M0 0 C1.63129887 4.06285757 0.29968777 7.20102184 -0.9375 11.25 C-1.31777344 12.51328125 -1.69804687 13.7765625 -2.08984375 15.078125 C-2.39019531 16.04234375 -2.69054687 17.0065625 -3 18 C-3.99 18 -4.98 18 -6 18 C-4 12 -2 6 0 0 Z " fill="#A4CF71" transform="translate(470,239)"/>
</svg>
